<?xml version="1.0" encoding="UTF-8"?>
<svg width="149px" height="43px" viewBox="0 0 149 43" version="1.1" xmlns="http://www.w3.org/2000/svg" xmlns:xlink="http://www.w3.org/1999/xlink">
    <!-- Generator: Sketch 50.2 (55047) - http://www.bohemiancoding.com/sketch -->
    <title>Appstore-white</title>
    <desc>Created with Sketch.</desc>
    <defs></defs>
    <g id="Appstore-white" stroke="none" stroke-width="1" fill="none" fill-rule="evenodd">
        <g id="Appstore">
            <rect id="backfround-copy" stroke="#FFFFFF" x="0.5" y="0.5" width="148" height="42" rx="4.00000006"></rect>
            <path d="M55.6563381,28.0232019 L58.0934063,28.0232019 L52.7584797,13.2611455 L50.2906921,13.2611455 L44.9557655,28.0232019 L47.3109154,28.0232019 L48.6728065,24.1050677 L54.3046868,24.1050677 L55.6563381,28.0232019 Z M51.4068284,15.9414357 L51.5809047,15.9414357 L53.7210192,22.181806 L49.2564741,22.181806 L51.4068284,15.9414357 Z M64.5553332,16.6984642 C63.0398454,16.6984642 61.7291533,17.4554928 61.0533276,18.7240271 L60.8894911,18.7240271 L60.8894911,16.8826063 L58.7698561,16.8826063 L58.7698561,31.6344326 L60.9714094,31.6344326 L60.9714094,26.3352328 L61.1454857,26.3352328 C61.7291533,27.5116961 62.9886465,28.2073439 64.5758128,28.2073439 C67.3917529,28.2073439 69.1837148,25.9874089 69.1837148,22.447789 C69.1837148,18.9081691 67.3917529,16.6984642 64.5553332,16.6984642 L64.5553332,16.6984642 Z M63.9307065,26.2329317 C62.0875456,26.2329317 60.9304502,24.7802553 60.9304502,22.4580191 C60.9304502,20.1255529 62.0875456,18.6728765 63.9409463,18.6728765 C65.8045867,18.6728765 66.9207229,20.0948625 66.9207229,22.447789 C66.9207229,24.8109457 65.8045867,26.2329317 63.9307065,26.2329317 L63.9307065,26.2329317 Z M75.9733148,16.6984642 C74.457827,16.6984642 73.1471348,17.4554928 72.4713092,18.7240271 L72.3074727,18.7240271 L72.3074727,16.8826063 L70.1878377,16.8826063 L70.1878377,31.6344326 L72.3893909,31.6344326 L72.3893909,26.3352328 L72.5634672,26.3352328 C73.1471348,27.5116961 74.4066281,28.2073439 75.9937943,28.2073439 C78.8097345,28.2073439 80.6016964,25.9874089 80.6016964,22.447789 C80.6016964,18.9081691 78.8097345,16.6984642 75.9733148,16.6984642 L75.9733148,16.6984642 Z M75.348688,26.2329317 C73.5055272,26.2329317 72.3484318,24.7802553 72.3484318,22.4580191 C72.3484318,20.1255529 73.5055272,18.6728765 75.3589278,18.6728765 C77.2225682,18.6728765 78.3387045,20.0948625 78.3387045,22.447789 C78.3387045,24.8109457 77.2225682,26.2329317 75.348688,26.2329317 L75.348688,26.2329317 Z M85.2620458,24.0539171 C85.4258823,26.6932869 87.6274355,28.3812559 90.9041659,28.3812559 C94.4061715,28.3812559 96.5974849,26.6114459 96.5974849,23.7879341 C96.5974849,21.5679991 95.3482314,20.3403853 92.3172559,19.6345073 L90.6891304,19.2355328 C88.7640514,18.7854078 87.9858279,18.181831 87.9858279,17.1281291 C87.9858279,15.7982141 89.1941222,14.9286543 91.0065637,14.9286543 C92.7268471,14.9286543 93.9146619,15.7777539 94.1296973,17.1383592 L96.3619699,17.1383592 C96.2288527,14.6524412 94.0375393,12.9030915 91.037283,12.9030915 C87.8117516,12.9030915 85.6613973,14.6524412 85.6613973,17.2815808 C85.6613973,19.4503652 86.8799314,20.7393598 89.5525146,21.3633968 L91.4571141,21.823752 C93.4129126,22.2841072 94.2730543,22.9592948 94.2730543,24.0846075 C94.2730543,25.3940622 92.921403,26.3454629 91.0782422,26.3454629 C89.1019642,26.3454629 87.7298333,25.4554429 87.5352775,24.0539171 L85.2620458,24.0539171 Z M98.4924688,14.1818559 L98.4924688,16.9337569 L96.6595478,16.9337569 L96.6595478,18.7854078 L98.4924688,18.7854078 L98.4924688,25.0769287 C98.4924688,27.2252529 99.4652482,28.0845825 101.912556,28.0845825 C102.342627,28.0845825 102.741979,28.033432 103.090131,27.9720513 L103.090131,26.1408606 C102.782938,26.171551 102.608861,26.1920112 102.270949,26.1920112 C101.175292,26.1920112 100.694022,25.6805055 100.694022,24.5142723 L100.694022,18.7854078 L103.192529,18.7854078 L103.192529,16.9337569 L100.694022,16.9337569 L100.694022,14.1818559 L98.4924688,14.1818559 Z M108.650957,26.2840823 C106.736118,26.2840823 105.660941,24.8825565 105.660941,22.447789 C105.660941,20.0334818 106.736118,18.6217259 108.650957,18.6217259 C110.555557,18.6217259 111.640974,20.0334818 111.640974,22.447789 C111.640974,24.8723263 110.555557,26.2840823 108.650957,26.2840823 L108.650957,26.2840823 Z M108.650957,28.2380343 C111.907208,28.2380343 113.903966,26.0590197 113.903966,22.447789 C113.903966,18.8570186 111.896968,16.6677739 108.650957,16.6677739 C105.394706,16.6677739 103.387709,18.8570186 103.387709,22.447789 C103.387709,26.0590197 105.384467,28.2380343 108.650957,28.2380343 L108.650957,28.2380343 Z M114.908088,28.0232019 L117.109642,28.0232019 L117.109642,21.4452377 C117.109642,19.8800301 118.287217,18.8263282 119.946061,18.8263282 C120.314693,18.8263282 120.990519,18.897939 121.164595,18.9593197 L121.164595,16.7905353 C120.92908,16.7291546 120.509249,16.6984642 120.191816,16.6984642 C118.737767,16.6984642 117.508993,17.4964132 117.19156,18.5910356 L117.027723,18.5910356 L117.027723,16.8826063 L114.908088,16.8826063 L114.908088,28.0232019 Z M126.121274,18.539885 C127.7494,18.539885 128.814337,19.6754278 128.865536,21.4247775 L123.233656,21.4247775 C123.356533,19.6856579 124.493149,18.539885 126.121274,18.539885 L126.121274,18.539885 Z M128.855296,25.015548 C128.445705,25.8851078 127.534364,26.3659232 126.203193,26.3659232 C124.44195,26.3659232 123.305334,25.1280792 123.233656,23.1741272 L123.233656,23.0513658 L131.108048,23.0513658 L131.108048,22.2841072 C131.108048,18.7854078 129.234168,16.6677739 126.131514,16.6677739 C122.987901,16.6677739 120.991143,18.9286294 120.991143,22.4887095 C120.991143,26.0487896 122.946942,28.2380343 126.141754,28.2380343 C128.69146,28.2380343 130.473182,27.0104204 130.974931,25.015548 L128.855296,25.015548 Z" id="App-Store" fill="#FFFFFF"></path>
            <g id="logo_apple" transform="translate(12.982094, 6.684455)" fill="#FFFFFF">
                <path d="M19.3074457,15.0204916 C19.2753089,11.4522527 22.231889,9.71629278 22.367085,9.63547322 C20.69265,7.19649387 18.0973312,6.86325157 17.1853126,6.83668076 C15.0055551,6.60750748 12.8911792,8.13975778 11.7807995,8.13975778 C10.6482564,8.13975778 8.93836018,6.8588231 7.09548435,6.89646509 C4.72401455,6.93299996 2.5054713,8.30471826 1.28870782,10.4348119 C-1.22239058,14.7780329 0.650405669,21.160564 3.05622854,24.6712329 C4.25969406,26.3916931 5.66595349,28.3103273 7.50661299,28.2427932 C9.30737862,28.1697234 9.98003384,27.0958197 12.1531424,27.0958197 C14.306304,27.0958197 14.9379572,28.2427932 16.8151861,28.1985085 C18.7478231,28.1697234 19.9645866,26.4725127 21.1259419,24.7365528 C22.5166871,22.7680983 23.0752014,20.8251075 23.0973647,20.7254669 C23.0530382,20.7110744 19.3451232,19.2972856 19.3074457,15.0204916" id="Fill-2"></path>
                <path d="M15.7613226,4.52723413 C16.7298575,3.31715496 17.3925392,1.67087158 17.2085841,0.000231617628 C15.8067573,0.0622301847 14.0536427,0.968959229 13.0441058,2.15246759 C12.1509261,3.19537206 11.3530484,4.90476112 11.5591668,6.5122954 C13.133867,6.62964983 14.7506775,5.71849232 15.7613226,4.52723413" id="Fill-3"></path>
            </g>
        </g>
    </g>
</svg>