<?xml version="1.0" encoding="UTF-8"?>
<svg width="696px" height="448px" viewBox="0 0 696 448" version="1.1" xmlns="http://www.w3.org/2000/svg" xmlns:xlink="http://www.w3.org/1999/xlink">
    <!-- Generator: Sketch 50.2 (55047) - http://www.bohemiancoding.com/sketch -->
    <title>Group</title>
    <desc>Created with Sketch.</desc>
    <defs>
        <rect id="path-1" x="0.984340738" y="0" width="688.167418" height="439.904489" rx="5.19848805"></rect>
        <filter x="-0.9%" y="-1.3%" width="101.9%" height="103.0%" filterUnits="objectBoundingBox" id="filter-2">
            <feOffset dx="0" dy="1" in="SourceAlpha" result="shadowOffsetOuter1"></feOffset>
            <feGaussianBlur stdDeviation="2" in="shadowOffsetOuter1" result="shadowBlurOuter1"></feGaussianBlur>
            <feColorMatrix values="0 0 0 0 0.652529762   0 0 0 0 0.652529762   0 0 0 0 0.652529762  0 0 0 1 0" type="matrix" in="shadowBlurOuter1"></feColorMatrix>
        </filter>
    </defs>
    <g id="PAGES-WEBBFRONT" stroke="none" stroke-width="1" fill="none" fill-rule="evenodd">
        <g id="04-Expertise" transform="translate(-18.000000, -1013.000000)">
            <g id="Group" transform="translate(21.000000, 1016.000000)">
                <g id="Rectangle-8">
                    <use fill="black" fill-opacity="1" filter="url(#filter-2)" xlink:href="#path-1"></use>
                    <use fill="#FFFFFF" fill-rule="evenodd" xlink:href="#path-1"></use>
                </g>
                <path d="M607.917515,116.291583 L633.397132,116.291583 C635.742466,116.291583 637.643735,118.192852 637.643735,120.538185 L637.643735,146.017802 C637.643735,148.363136 635.742466,150.264405 633.397132,150.264405 L607.917515,150.264405 C605.572181,150.264405 603.670913,148.363136 603.670913,146.017802 L603.670913,120.538185 C603.670913,118.192852 605.572181,116.291583 607.917515,116.291583 Z M607.917515,117.565564 C606.275782,117.565564 604.944893,118.896452 604.944893,120.538185 L604.944893,146.017802 C604.944893,147.659536 606.275782,148.990424 607.917515,148.990424 L633.397132,148.990424 C635.038866,148.990424 636.369754,147.659536 636.369754,146.017802 L636.369754,120.538185 C636.369754,118.896452 635.038866,117.565564 633.397132,117.565564 L607.917515,117.565564 Z M624.75782,136.507787 C624.420467,136.84514 624.045103,137.120724 623.631728,137.344042 C623.213601,137.576862 622.762213,137.752666 622.296572,137.8667 C621.826179,137.990238 621.365289,138.042504 620.918653,138.042504 C620.262954,138.042504 619.654769,137.928469 619.094099,137.690897 C618.523926,137.453325 618.025024,137.144481 617.573637,136.750111 C617.127001,136.360493 616.742134,135.894851 616.414285,135.372192 C616.091187,134.849534 615.844112,134.284112 615.682562,133.694933 L613.86276,133.694933 L614.228621,132.839673 L615.506759,132.839673 C615.473499,132.573592 615.459245,132.312263 615.459245,132.036679 L615.459245,131.87513 L614.276135,131.87513 L614.641996,131.01987 L615.554274,131.01987 C615.668308,130.39268 615.863117,129.793998 616.157707,129.228576 C616.442793,128.653651 616.822909,128.140495 617.283799,127.708114 C617.744689,127.26623 618.291105,126.909871 618.908793,126.648542 C619.535983,126.37771 620.234445,126.239918 621.008931,126.239918 C622.044746,126.239918 622.933265,126.47749 623.679242,126.947883 C624.420467,127.418276 624.976386,128.035964 625.327993,128.786692 L624.163889,129.542171 C623.988086,129.166807 623.783774,128.862715 623.531947,128.606137 C623.280121,128.349559 623.018791,128.15475 622.728953,127.997952 C622.443867,127.850657 622.139774,127.731871 621.835682,127.674854 C621.517335,127.603582 621.217994,127.570322 620.928156,127.570322 C620.386492,127.570322 619.897093,127.665351 619.45996,127.855409 C619.022827,128.050218 618.647463,128.297293 618.324365,128.61564 C618.001267,128.929235 617.720932,129.295096 617.511868,129.713223 C617.298053,130.126599 617.141256,130.568483 617.041475,131.024622 L622.201543,131.024622 L621.835682,131.879881 L616.941695,131.879881 L616.941695,132.112702 C616.941695,132.378783 616.955949,132.621107 616.989209,132.853927 L621.626618,132.853927 L621.260757,133.709187 L617.18877,133.709187 C617.331313,134.141569 617.526123,134.535938 617.763695,134.9018 C618.006018,135.277164 618.286354,135.590759 618.618955,135.861591 C618.951556,136.132423 619.307914,136.336736 619.711787,136.493533 C620.110908,136.640828 620.533786,136.726354 620.980422,136.726354 C621.289266,136.726354 621.59811,136.683591 621.921208,136.612319 C622.239555,136.536296 622.55315,136.408007 622.852491,136.241707 C623.151832,136.070655 623.427416,135.861591 623.679242,135.600262 C623.931069,135.338932 624.149635,135.030089 624.311184,134.668979 L625.541808,135.343684 C625.35175,135.79032 625.095172,136.170435 624.75782,136.507787 Z M632.255894,124.786404 C630.350603,124.786404 628.904638,123.785708 627.373515,122.72641 C625.61456,121.509334 623.620963,120.129858 620.657381,120.129858 C617.693798,120.129858 615.700202,121.509334 613.941133,122.72641 C612.410124,123.785708 610.964101,124.786404 609.05881,124.786404 C608.721784,124.786404 608.448341,125.031699 608.448341,125.33426 C608.448341,131.730879 609.336031,135.990156 611.326651,139.14463 C613.30325,142.276968 616.245601,144.224998 620.352118,146.352736 C620.446547,146.401682 620.551906,146.426129 620.657324,146.426129 C620.762741,146.426129 620.868101,146.40163 620.96253,146.352736 C625.069104,144.224998 628.011397,142.277019 629.988111,139.14463 C631.978617,135.990156 632.866306,131.730879 632.866306,125.33426 C632.866364,125.031699 632.59292,124.786404 632.255894,124.786404 Z M620.657324,144.961051 C613.506397,141.212466 610.081993,137.983098 609.988456,126.098115 C611.94167,125.921195 613.422586,124.894702 614.859041,123.899087 C616.493295,122.766372 618.183294,121.594936 620.657324,121.594936 C623.131298,121.594936 624.821241,122.766272 626.455606,123.899087 C627.89195,124.894752 629.372977,125.921145 631.326191,126.098115 C631.232654,137.983098 627.80825,141.212466 620.657324,144.961051 Z" id="Mask" fill="#304762" fill-rule="nonzero"></path>
                <g id="Group-3" transform="translate(0.000000, 23.624178)">
                    <text id="Dynamique" font-family="OpenSans-Bold, Open Sans" font-size="17.42196" font-weight="bold" fill="#E71A6D">
                        <tspan x="27.0040379" y="28.4775462">Dynamique</tspan>
                    </text>
                    <path d="M607.891344,5.12205623 L633.213935,5.12205623 C635.544815,5.12205623 637.434366,7.01160787 637.434366,9.34248795 L637.434366,34.6650783 C637.434366,36.9959584 635.544815,38.88551 633.213935,38.88551 L607.891344,38.88551 C605.560464,38.88551 603.670913,36.9959584 603.670913,34.6650783 L603.670913,9.34248795 C603.670913,7.01160787 605.560464,5.12205623 607.891344,5.12205623 Z M607.891344,6.38818575 C606.259728,6.38818575 604.937042,7.7108719 604.937042,9.34248795 L604.937042,34.6650783 C604.937042,36.2966944 606.259728,37.6193805 607.891344,37.6193805 L633.213935,37.6193805 C634.845551,37.6193805 636.168237,36.2966944 636.168237,34.6650783 L636.168237,9.34248795 C636.168237,7.7108719 634.845551,6.38818575 633.213935,6.38818575 L607.891344,6.38818575 Z M630.575439,27.3682752 C630.307681,27.2914968 630.100073,27.0585409 630.069337,26.7650761 L629.590793,22.186852 L625.474979,22.9845873 C625.092486,23.0578473 624.724311,22.8081197 624.650469,22.4276557 C624.576822,22.0465155 624.825391,21.6772767 625.207401,21.6031466 L630.076606,20.6584937 C630.270945,20.6212869 630.471003,20.6662127 630.629637,20.7841439 C630.788466,20.901399 630.89023,21.0798568 630.910622,21.2766916 L631.469504,26.618485 C631.509523,27.0046174 631.229477,27.3509271 630.842669,27.3907525 C630.750483,27.4009064 630.659958,27.3925108 630.575439,27.3682752 Z M619.626467,33.0349196 L616.10141,29.34785 L612.447686,33.0438293 C612.158967,33.3358868 611.688155,33.3385935 611.396098,33.049875 C611.10404,32.7611565 611.101333,32.2903445 611.390052,31.998287 L615.581507,27.758359 C615.876001,27.4604587 616.358327,27.4644889 616.647802,27.7672687 L620.165477,31.4466173 L627.713893,23.596202 C627.998536,23.300171 628.469265,23.2909391 628.765296,23.575582 C629.061327,23.8602249 629.070559,24.3309542 628.785916,24.6269852 L620.699958,33.0364498 C620.40681,33.3413259 619.918745,33.3406302 619.626467,33.0349196 Z M621.20902,20.9932406 C620.873746,21.328514 620.500696,21.6023994 620.089868,21.824341 C619.674317,22.0557269 619.225712,22.2304469 618.76294,22.3437787 C618.295446,22.4665549 617.837397,22.5184987 617.393514,22.5184987 C616.741855,22.5184987 616.137419,22.4051668 615.580204,22.1690588 C615.013544,21.9329507 614.517717,21.6260102 614.069112,21.2340708 C613.625229,20.8468536 613.242734,20.3840818 612.916905,19.864644 C612.595798,19.3452063 612.350245,18.7832691 612.189692,18.1977211 L610.381104,18.1977211 L610.74471,17.347732 L612.014972,17.347732 C611.981917,17.083291 611.96775,16.8235721 611.96775,16.5496867 L611.96775,16.3891333 L610.791932,16.3891333 L611.155538,15.5391442 L612.062193,15.5391442 C612.175525,14.9158189 612.369134,14.3208266 612.661908,13.7588894 C612.945238,13.1875078 613.32301,12.6775144 613.78106,12.2477977 C614.23911,11.8086367 614.782158,11.4544746 615.396039,11.1947557 C616.019365,10.9255926 616.713522,10.7886499 617.483235,10.7886499 C618.512666,10.7886499 619.39571,11.0247579 620.137089,11.4922519 C620.873746,11.9597459 621.426239,12.5736269 621.775679,13.3197284 L620.61875,14.070552 C620.44403,13.6975013 620.240977,13.3952829 619.990702,13.1402862 C619.740428,12.8852895 619.480709,12.6916809 619.192657,12.5358496 C618.909327,12.3894626 618.607109,12.2714085 618.304891,12.2147426 C617.988506,12.1439102 617.69101,12.1108551 617.402958,12.1108551 C616.864631,12.1108551 616.378249,12.2052983 615.94381,12.3941847 C615.509371,12.5877934 615.13632,12.8333457 614.815213,13.1497306 C614.494106,13.4613932 614.215499,13.8249996 614.007724,14.2405498 C613.795227,14.6513779 613.639395,15.0905389 613.54023,15.5438664 L618.668497,15.5438664 L618.304891,16.3938554 L613.441064,16.3938554 L613.441064,16.6252413 C613.441064,16.8896824 613.455231,17.1305126 613.488286,17.3618985 L618.097116,17.3618985 L617.733509,18.2118875 L613.686617,18.2118875 C613.828282,18.6416042 614.02189,19.0335436 614.257998,19.39715 C614.498829,19.7702008 614.777436,20.0818634 615.107987,20.3510266 C615.438539,20.6201898 615.792701,20.8232428 616.194085,20.9790741 C616.590746,21.1254611 617.011018,21.21046 617.454902,21.21046 C617.761842,21.21046 618.068783,21.1679606 618.38989,21.0971281 C618.706274,21.0215736 619.017937,20.8940752 619.315433,20.7287996 C619.612929,20.5588017 619.886815,20.3510266 620.137089,20.0913078 C620.387364,19.8315889 620.604583,19.5246484 620.765137,19.1657641 L621.988177,19.8363111 C621.79929,20.2801942 621.544293,20.6579671 621.20902,20.9932406 Z" id="Mask" fill="#304762" fill-rule="nonzero"></path>
                    <text id="Rendement" font-family="OpenSans-Semibold, Open Sans" font-size="15.5831325" font-weight="500" fill="#304762">
                        <tspan x="205.579128" y="17.7665662">Rendement</tspan>
                    </text>
                    <text id="Risque" font-family="OpenSans-Semibold, Open Sans" font-size="15.5831325" font-weight="500" fill="#304762">
                        <tspan x="205.579128" y="39.5440162">Risque</tspan>
                    </text>
                    <rect id="Rectangle-14" fill="#D3D3D3" x="303.142103" y="9.47754622" width="254.642968" height="7.79156626"></rect>
                    <rect id="Rectangle-14-Copy-3" fill="#E71A6D" x="303.142103" y="9.47754622" width="254.642968" height="7.79156626"></rect>
                    <rect id="Rectangle-14-Copy" fill="#D3D3D3" x="303.142103" y="28.6417022" width="254.642968" height="7.79156626"></rect>
                    <rect id="Rectangle-14-Copy-2" fill="#E71A6D" x="303.142103" y="28.6417022" width="241.337235" height="7.79156626"></rect>
                    <path d="M0.435548999,65.6633671 L688.724595,65.6633671" id="Line-5-Copy-2" stroke="#979797" stroke-width="0.871097998" stroke-linecap="square"></path>
                </g>
                <g id="Group-2" transform="translate(0.000000, 112.214844)">
                    <text id="Protecteur" font-family="OpenSans-Bold, Open Sans" font-size="17.42196" font-weight="bold" fill="#73B4E4">
                        <tspan x="27.0040379" y="29.6099736">Protecteur</tspan>
                    </text>
                    <text id="Rendement" font-family="OpenSans-Semibold, Open Sans" font-size="15.5831325" font-weight="500" fill="#304762">
                        <tspan x="205.579128" y="17.1567976">Rendement</tspan>
                    </text>
                    <text id="Risque" font-family="OpenSans-Semibold, Open Sans" font-size="15.5831325" font-weight="500" fill="#304762">
                        <tspan x="205.579128" y="38.9342476">Risque</tspan>
                    </text>
                    <rect id="Rectangle-14" fill="#D3D3D3" x="303.142103" y="8.86777762" width="254.642968" height="7.79156626"></rect>
                    <rect id="Rectangle-14-Copy-3" fill="#73B4E4" x="303.142103" y="8.86777762" width="160.89149" height="7.79156626"></rect>
                    <rect id="Rectangle-14-Copy" fill="#D3D3D3" x="303.142103" y="28.0319336" width="254.642968" height="7.79156626"></rect>
                    <rect id="Rectangle-14-Copy-2" fill="#73B4E4" x="303.142103" y="28.0319336" width="128.713192" height="7.79156626"></rect>
                    <path d="M0.435548999,65.0535985 L688.724595,65.0535985" id="Line-5-Copy-2" stroke="#979797" stroke-width="0.871097998" stroke-linecap="square"></path>
                </g>
                <g id="Group-5-Copy-2" transform="translate(0.000000, 200.352540)">
                    <text id="Modéré" font-family="OpenSans-Bold, Open Sans" font-size="17.42196" font-weight="bold" fill="#4CC6CE">
                        <tspan x="27.0040379" y="30.324274">Modéré</tspan>
                    </text>
                    <text id="Rendement" font-family="OpenSans-Semibold, Open Sans" font-size="15.5831325" font-weight="500" fill="#304762">
                        <tspan x="205.579128" y="17">Rendement</tspan>
                    </text>
                    <text id="Risque" font-family="OpenSans-Semibold, Open Sans" font-size="15.5831325" font-weight="500" fill="#304762">
                        <tspan x="205.579128" y="38.7774499">Risque</tspan>
                    </text>
                    <rect id="Rectangle-14" fill="#D3D3D3" x="303.142103" y="8.71097998" width="254.642968" height="7.79156626"></rect>
                    <rect id="Rectangle-14-Copy-3" fill="#4CC6CE" x="303.142103" y="8.71097998" width="160.89149" height="7.79156626"></rect>
                    <rect id="Rectangle-14-Copy" fill="#D3D3D3" x="303.142103" y="27.8751359" width="254.642968" height="7.79156626"></rect>
                    <rect id="Rectangle-14-Copy-2" fill="#4CC6CE" x="303.142103" y="27.8751359" width="128.713192" height="7.79156626"></rect>
                    <path d="M0.435548999,64.8968008 L688.724595,64.8968008" id="Line-5-Copy-2" stroke="#979797" stroke-width="0.871097998" stroke-linecap="square"></path>
                </g>
                <g id="Group-5-Copy-3" transform="translate(0.000000, 288.333437)">
                    <text id="Stable" font-family="OpenSans-Bold, Open Sans" font-size="17.42196" font-weight="bold" fill="#4ED6A2">
                        <tspan x="27.0040379" y="30.324274">Stable</tspan>
                    </text>
                    <text id="Rendement" font-family="OpenSans-Semibold, Open Sans" font-size="15.5831325" font-weight="500" fill="#304762">
                        <tspan x="205.579128" y="17">Rendement</tspan>
                    </text>
                    <text id="Risque" font-family="OpenSans-Semibold, Open Sans" font-size="15.5831325" font-weight="500" fill="#304762">
                        <tspan x="205.579128" y="38.7774499">Risque</tspan>
                    </text>
                    <rect id="Rectangle-14" fill="#D3D3D3" x="303.142103" y="8.71097998" width="254.642968" height="7.79156626"></rect>
                    <path d="M630.822344,15.7053349 C630.294559,14.4661045 629.528307,13.327567 628.54731,12.346827 C626.534155,10.3336719 623.857867,9.22545987 621.011573,9.22598784 C617.006382,9.22598784 613.376578,11.4392441 611.53871,15.0014675 C611.405133,15.2607014 611.086766,15.3625999 610.827532,15.2290231 C610.568298,15.0949184 610.4664,14.7770796 610.600504,14.5178456 C612.619995,10.6024094 616.609347,8.17004496 621.011573,8.17004496 C624.140332,8.16951699 627.081661,9.38807508 629.294389,11.5997475 C630.053263,12.358802 630.695214,13.2036989 631.211136,14.1125765 L631.12482,10.7062489 C631.117442,10.4062642 631.354366,10.1570457 631.653963,10.1494433 C631.80837,10.1456433 631.95012,10.2067529 632.051549,10.3081825 C632.146831,10.4034647 632.206786,10.5340749 632.210665,10.6784979 L632.352343,16.2575992 C632.355456,16.4066311 632.298647,16.5502697 632.193431,16.6554854 C632.088215,16.7607011 631.945345,16.8182783 631.796313,16.8143977 C629.816646,16.7685482 626.602088,16.6997089 626.252559,16.7103709 C626.038237,16.7348964 625.821193,16.6307475 625.712439,16.4306021 C625.568715,16.1670708 625.665805,15.8371541 625.92926,15.6935703 C626.092653,15.6048165 626.108929,15.5957537 630.822344,15.7053349 Z M631.251733,15.7146498 C631.251373,15.7148712 631.251015,15.715093 631.250658,15.7153153 L631.251733,15.7146498 Z M611.604354,27.1176551 C612.127505,28.2737624 612.861021,29.3375859 613.785077,30.261399 C615.798232,32.2745541 618.474519,33.3827661 621.320813,33.3822382 C625.326005,33.3822382 628.955808,31.1689819 630.793677,27.6067585 C630.927254,27.3475246 631.24562,27.2456261 631.504854,27.3792028 C631.764088,27.5133076 631.865987,27.8311464 631.731882,28.0903804 C629.712391,32.0058166 625.723039,34.438181 621.320813,34.438181 C618.192054,34.438709 615.250726,33.2201509 613.037997,31.0084785 C612.096376,30.0666324 611.33477,28.9926216 610.770578,27.8282101 L610.878865,32.1015531 C610.886235,32.4012152 610.649566,32.6501658 610.350291,32.6577601 C610.19605,32.661556 610.054453,32.600512 609.953132,32.4991916 C609.857952,32.4040117 609.798062,32.273542 609.794187,32.1292743 L609.652661,26.5561716 C609.649552,26.4073 609.7063,26.2638158 609.811403,26.1587132 C609.916505,26.0536107 610.059222,25.9960954 610.208094,25.9999718 C612.185633,26.045772 615.396734,26.1145373 615.745887,26.1038868 C615.959978,26.0793876 616.17679,26.1834246 616.285426,26.3833547 C616.428995,26.6466027 616.33201,26.9761647 616.068838,27.1195941 C615.910666,27.2055118 615.890508,27.2166698 611.604354,27.1176551 Z M610.752276,27.1059532 C610.755449,27.1032875 610.758594,27.1006607 610.761711,27.0980721 C610.7585,27.0979971 610.755286,27.0979221 610.752071,27.097847 L610.752276,27.1059532 Z M607.894684,4.01126578 L633.237313,4.01126578 C635.570038,4.01126578 637.461085,5.90231271 637.461085,8.23503732 L637.461085,33.5776666 C637.461085,35.9103912 635.570038,37.8014381 633.237313,37.8014381 L607.894684,37.8014381 C605.56196,37.8014381 603.670913,35.9103912 603.670913,33.5776666 L603.670913,8.23503732 C603.670913,5.90231271 605.56196,4.01126578 607.894684,4.01126578 Z M607.894684,5.27839724 C606.261777,5.27839724 604.938044,6.6021301 604.938044,8.23503732 L604.938044,33.5776666 C604.938044,35.2105738 606.261777,36.5343067 607.894684,36.5343067 L633.237313,36.5343067 C634.870221,36.5343067 636.193953,35.2105738 636.193953,33.5776666 L636.193953,8.23503732 C636.193953,6.6021301 634.870221,5.27839724 633.237313,5.27839724 L607.894684,5.27839724 Z M624.202492,24.4884195 C623.94603,24.7448816 623.660671,24.9543858 623.346415,25.1241565 C623.028546,25.3011514 622.685393,25.4348007 622.331403,25.5214921 C621.973801,25.6154078 621.623423,25.6551414 621.283881,25.6551414 C620.785406,25.6551414 620.323052,25.56845 619.896819,25.3878429 C619.463362,25.2072358 619.084087,24.9724465 618.740933,24.6726387 C618.401392,24.3764431 618.108809,24.0224531 617.859571,23.6251175 C617.613945,23.2277819 617.426114,22.797937 617.303301,22.3500314 L615.91985,22.3500314 L616.197985,21.6998458 L617.169652,21.6998458 C617.144367,21.4975658 617.13353,21.298898 617.13353,21.0893938 L617.13353,20.9665809 L616.234107,20.9665809 L616.512242,20.3163954 L617.205773,20.3163954 C617.292464,19.8395926 617.440562,19.3844627 617.664515,18.9546178 C617.881244,18.5175486 618.170215,18.1274372 618.520593,17.7987323 C618.870971,17.4628031 619.286367,17.1918924 619.755945,16.9932246 C620.232748,16.7873325 620.763733,16.6825804 621.352512,16.6825804 C622.139959,16.6825804 622.81543,16.8631875 623.382536,17.2207896 C623.94603,17.5783916 624.368651,18.0479701 624.635949,18.6186886 L623.750975,19.1930192 C623.617325,18.9076599 623.462003,18.6764828 623.27056,18.4814272 C623.079116,18.2863715 622.880448,18.1382737 622.660108,18.019073 C622.443379,17.9070966 622.212202,17.816793 621.981025,17.7734473 C621.739011,17.7192652 621.511446,17.6939802 621.291106,17.6939802 C620.879322,17.6939802 620.507271,17.766223 620.174954,17.9107087 C619.842637,18.0588065 619.557278,18.2466379 619.311652,18.4886515 C619.066026,18.7270528 618.85291,19.0051878 618.693976,19.3230563 C618.531429,19.6373126 618.412229,19.9732419 618.336374,20.3200075 L622.25916,20.3200075 L621.981025,20.9701931 L618.260519,20.9701931 L618.260519,21.147188 C618.260519,21.349468 618.271355,21.5336872 618.29664,21.7106822 L621.822091,21.7106822 L621.543956,22.3608678 L618.44835,22.3608678 C618.556714,22.6895727 618.704812,22.9893805 618.885419,23.2675154 C619.069638,23.5528747 619.282755,23.7912761 619.535605,23.9971682 C619.788455,24.2030602 620.059365,24.3583824 620.366397,24.477583 C620.669817,24.5895595 620.991298,24.654578 621.330839,24.654578 C621.565629,24.654578 621.800418,24.6220687 622.046043,24.5678866 C622.288057,24.5100923 622.526458,24.4125645 622.754023,24.2861395 C622.981588,24.1561024 623.191093,23.9971682 623.382536,23.7985003 C623.57398,23.5998325 623.740138,23.3650433 623.862951,23.0905205 L624.798496,23.6034447 C624.65401,23.942986 624.458954,24.2319574 624.202492,24.4884195 Z" id="stable" fill="#304762" fill-rule="nonzero"></path>
                    <rect id="Rectangle-14-Copy-3" fill="#4ED6A2" x="303.142103" y="8.71097998" width="160.89149" height="7.79156626"></rect>
                    <rect id="Rectangle-14-Copy" fill="#D3D3D3" x="303.142103" y="27.8751359" width="254.642968" height="7.79156626"></rect>
                    <rect id="Rectangle-14-Copy-2" fill="#4ED6A2" x="303.142103" y="27.8751359" width="128.713192" height="7.79156626"></rect>
                    <path d="M0.435548999,64.8968008 L688.724595,64.8968008" id="Line-5-Copy-2" stroke="#979797" stroke-width="0.871097998" stroke-linecap="square"></path>
                </g>
                <g id="Group-5-Copy-4" transform="translate(27.004038, 376.314335)">
                    <text id="Défensif" font-family="OpenSans-Bold, Open Sans" font-size="17.42196" font-weight="bold" fill="#CC69CB">
                        <tspan x="0" y="28.582078">Défensif</tspan>
                    </text>
                    <text id="Rendement" font-family="OpenSans-Semibold, Open Sans" font-size="15.5831325" font-weight="500" fill="#304762">
                        <tspan x="178.57509" y="17">Rendement</tspan>
                    </text>
                    <text id="Risque" font-family="OpenSans-Semibold, Open Sans" font-size="15.5831325" font-weight="500" fill="#304762">
                        <tspan x="178.57509" y="38.7774499">Risque</tspan>
                    </text>
                    <rect id="Rectangle-14" fill="#D3D3D3" x="276.138065" y="8.71097998" width="254.545881" height="7.79156626"></rect>
                    <rect id="Rectangle-14-Copy-3" fill="#CC69CB" x="276.138065" y="8.71097998" width="64.6429159" height="7.79156626"></rect>
                    <rect id="Rectangle-14-Copy" fill="#D3D3D3" x="276.138065" y="27.8751359" width="254.545881" height="7.79156626"></rect>
                    <rect id="Rectangle-14-Copy-2" fill="#CC69CB" x="276.138065" y="27.8751359" width="32.3214579" height="7.79156626"></rect>
                </g>
                <path d="M607.917515,204.272481 L633.397132,204.272481 C635.742466,204.272481 637.643735,206.173749 637.643735,208.519083 L637.643735,233.9987 C637.643735,236.344034 635.742466,238.245302 633.397132,238.245302 L607.917515,238.245302 C605.572181,238.245302 603.670913,236.344034 603.670913,233.9987 L603.670913,208.519083 C603.670913,206.173749 605.572181,204.272481 607.917515,204.272481 Z M607.917515,205.546461 C606.275782,205.546461 604.944893,206.87735 604.944893,208.519083 L604.944893,233.9987 C604.944893,235.640433 606.275782,236.971322 607.917515,236.971322 L633.397132,236.971322 C635.038866,236.971322 636.369754,235.640433 636.369754,233.9987 L636.369754,208.519083 C636.369754,206.87735 635.038866,205.546461 633.397132,205.546461 L607.917515,205.546461 Z M628.264134,227.041398 C625.999078,227.041398 624.15564,225.197481 624.15564,222.93099 C624.15564,222.666342 624.369559,222.452423 624.634207,222.452423 L631.896454,222.452423 C632.161101,222.452423 632.37502,222.666342 632.37502,222.93099 C632.37502,225.197481 630.530625,227.041398 628.264134,227.041398 Z M625.149144,223.409556 C625.379813,224.921827 626.689171,226.084265 628.264134,226.084265 C629.840532,226.084265 631.14989,224.921827 631.381516,223.409556 L625.149144,223.409556 Z M624.634207,223.409556 C624.577736,223.409556 624.520786,223.399506 624.464794,223.378928 C624.217375,223.285129 624.093426,223.008996 624.186747,222.761577 L627.816674,213.184025 C627.887023,212.998341 628.06505,212.87535 628.263655,212.874871 C628.263655,212.874871 628.264134,212.874871 628.264612,212.874871 C628.462739,212.874871 628.640287,212.996905 628.711593,213.181632 L632.343913,222.6271 C632.43867,222.87404 632.315199,223.15113 632.069216,223.245886 C631.821797,223.339686 631.545186,223.217651 631.45043,222.971189 L628.268441,214.695338 L625.083102,223.100881 C625.008924,223.291829 624.827547,223.409556 624.634207,223.409556 Z M613.514713,227.041398 C611.248222,227.041398 609.403826,225.197481 609.403826,222.93099 C609.403826,222.666342 609.618224,222.452423 609.882393,222.452423 L617.145597,222.452423 C617.409766,222.452423 617.624164,222.666342 617.624164,222.93099 C617.624164,225.197481 615.780726,227.041398 613.514713,227.041398 Z M610.397331,223.409556 C610.628478,224.921827 611.938793,226.084265 613.514713,226.084265 C615.090154,226.084265 616.399512,224.921827 616.63066,223.409556 L610.397331,223.409556 Z M621.368468,211.708371 L621.368468,230.918265 L623.711052,230.918265 C623.975699,230.918265 624.189618,231.132185 624.189618,231.396832 C624.189618,231.661479 623.975699,231.875398 623.711052,231.875398 L618.067795,231.875398 C617.803626,231.875398 617.589228,231.661479 617.589228,231.396832 C617.589228,231.132185 617.803626,230.918265 618.067795,230.918265 L620.411335,230.918265 L620.411335,211.708004 L614.006754,213.300103 L617.5921,222.627579 C617.686856,222.87404 617.563864,223.15113 617.316924,223.245886 C617.070462,223.340164 616.793372,223.217173 616.698616,222.970711 L613.517584,214.695338 L610.329853,223.100881 C610.257589,223.291829 610.075255,223.409556 609.882393,223.409556 C609.825922,223.409556 609.768494,223.399506 609.71298,223.378449 C609.465561,223.285129 609.341613,223.008996 609.434933,222.761577 L612.920854,213.570045 L610.925668,214.066023 C610.886904,214.075594 610.84814,214.079902 610.809855,214.079902 C610.595457,214.079902 610.400202,213.934417 610.345645,213.71667 C610.281996,213.460158 610.438487,213.200775 610.694999,213.136647 L620.411335,210.721633 L620.411335,209.322472 C620.411335,209.058303 620.625733,208.843905 620.889902,208.843905 C621.154549,208.843905 621.368468,209.058303 621.368468,209.322472 L621.368468,210.722014 L631.082891,213.137125 C631.339402,213.200775 631.495415,213.460158 631.431766,213.71667 C631.377688,213.934417 631.182432,214.079902 630.968035,214.079902 C630.929749,214.079902 630.890985,214.075594 630.852222,214.066023 L621.368468,211.708371 Z" id="Mask" fill="#304762" fill-rule="nonzero"></path>
                <path d="M616.199348,395.615946 L616.199348,399.647639 L624.98264,399.647639 L624.98264,395.615946 L616.199348,395.615946 Z M615.467842,395.615946 L612.501793,395.615946 L612.495994,395.607146 C612.560235,397.15212 612.711984,398.484151 612.953154,399.647639 L615.467842,399.647639 L615.467842,395.615946 Z M625.714145,395.615946 L625.714145,399.647639 L628.177205,399.647639 C628.418273,398.484645 628.569995,397.15325 628.634284,395.609112 L628.628566,395.615946 L625.714145,395.615946 Z M620.305874,400.453978 L613.141526,400.453978 C613.576069,402.114499 614.220967,403.405407 615.083076,404.485671 L620.305874,404.485671 L620.305874,400.453978 Z M621.03738,400.453978 L621.03738,404.485671 L626.047283,404.485671 C626.909392,403.405407 627.55429,402.114499 627.988833,400.453978 L621.03738,400.453978 Z M620.305874,390.779915 C618.566378,390.857192 617.344601,391.704074 616.161302,392.524227 C615.070295,393.280411 613.945518,394.060047 612.462024,394.19442 C612.463666,394.402962 612.466657,394.607996 612.471003,394.809607 L620.305874,394.809607 L620.305874,390.779915 Z M621.03738,390.79337 L621.03738,394.809607 L628.659356,394.809607 C628.663702,394.607996 628.666693,394.402962 628.668335,394.19442 C627.184841,394.060009 626.05998,393.280449 624.969057,392.524227 C623.834551,391.737876 622.664785,390.927086 621.03738,390.79337 Z M615.803328,405.29201 C617.036457,406.531442 618.619133,407.50095 620.56518,408.521086 C622.511226,407.50095 624.093902,406.531442 625.327031,405.29201 L615.803328,405.29201 Z M607.917515,381.540923 L633.397132,381.540923 C635.742466,381.540923 637.643735,383.442192 637.643735,385.787526 L637.643735,411.267142 C637.643735,413.612476 635.742466,415.513745 633.397132,415.513745 L607.917515,415.513745 C605.572181,415.513745 603.670913,413.612476 603.670913,411.267142 L603.670913,385.787526 C603.670913,383.442192 605.572181,381.540923 607.917515,381.540923 Z M607.917515,382.814904 C606.275782,382.814904 604.944893,384.145792 604.944893,385.787526 L604.944893,411.267142 C604.944893,412.908876 606.275782,414.239764 607.917515,414.239764 L633.397132,414.239764 C635.038866,414.239764 636.369754,412.908876 636.369754,411.267142 L636.369754,385.787526 C636.369754,384.145792 635.038866,382.814904 633.397132,382.814904 L607.917515,382.814904 Z M629.374458,393.198157 C629.630434,393.198157 629.838118,393.384462 629.838074,393.614262 C629.838074,398.472584 629.163861,401.707565 627.652044,404.103432 C626.150702,406.482526 623.915989,407.962043 620.796988,409.57809 C620.725268,409.615226 620.645245,409.633834 620.56518,409.633834 C620.485114,409.633834 620.405091,409.615265 620.333371,409.57809 C617.214414,407.962043 614.979657,406.482487 613.478402,404.103432 C611.966498,401.707565 611.292285,398.472584 611.292285,393.614262 C611.292285,393.384462 611.499969,393.198157 611.755945,393.198157 C613.20304,393.198157 614.301315,392.438114 615.464138,391.633562 C616.800176,390.709176 618.31434,389.661445 620.565223,389.661445 C622.816106,389.661445 624.33027,390.709176 625.666221,391.633562 C626.829131,392.438114 627.927362,393.198157 629.374458,393.198157 Z" id="Mask" fill="#304762" fill-rule="nonzero"></path>
            </g>
        </g>
    </g>
</svg>