<?xml version="1.0" encoding="UTF-8"?>
<svg width="650px" height="438px" viewBox="0 0 650 438" version="1.1" xmlns="http://www.w3.org/2000/svg" xmlns:xlink="http://www.w3.org/1999/xlink">
    <!-- Generator: Sketch 50.2 (55047) - http://www.bohemiancoding.com/sketch -->
    <title>Illustration2</title>
    <desc>Created with Sketch.</desc>
    <defs>
        <linearGradient x1="56.5685299%" y1="50%" x2="88.4077708%" y2="78.9657956%" id="linearGradient-1">
            <stop stop-color="#2B668C" offset="0%"></stop>
            <stop stop-color="#303E47" offset="100%"></stop>
        </linearGradient>
        <radialGradient cx="52.1079883%" cy="100%" fx="52.1079883%" fy="100%" r="105.824496%" gradientTransform="translate(0.521080,1.000000),scale(0.336612,1.000000),scale(1.000000,0.796319),translate(-0.521080,-1.000000)" id="radialGradient-2">
            <stop stop-color="#466784" offset="0%"></stop>
            <stop stop-color="#314659" stop-opacity="0" offset="100%"></stop>
        </radialGradient>
        <path d="M0.735362398,153 C17.8379557,66.3320583 113.075561,0 228,0 C342.924439,0 438.162044,66.3320583 455.264638,153 L0.735362398,153 Z" id="path-3"></path>
        <polygon id="path-5" points="1.870695 2.08208206 59.7994117 2.08208206 59.7994117 24.7866912 1.870695 24.7866912"></polygon>
        <polygon id="path-7" points="0.237903333 2.08282567 34.96732 2.08282567 34.96732 24.7866912 0.237903333 24.7866912"></polygon>
        <polygon id="path-9" points="22.8282 14.1552 24.8282 14.1552 24.8282 85 22.8282 85"></polygon>
        <polygon id="path-11" points="18.1587955 11.32416 19.7497045 11.32416 19.7497045 68 18.1587955 68"></polygon>
    </defs>
    <g id="PAGES-WEBBFRONT" stroke="none" stroke-width="1" fill="none" fill-rule="evenodd">
        <g id="01-Home-BLEU-2" transform="translate(-727.000000, -138.000000)">
            <g id="1LAME">
                <g id="Illustration2" transform="translate(727.000000, 138.000000)">
                    <g id="Rectangle" transform="translate(45.000000, 284.000000)">
                        <mask id="mask-4" fill="white">
                            <use xlink:href="#path-3"></use>
                        </mask>
                        <use id="Mask" fill="url(#radialGradient-2)" xlink:href="#path-3"></use>
                    </g>
                    <g id="Group-9" transform="translate(383.000000, 90.000000)">
                        <path d="M30.6207131,41.9425568 C30.1565924,42.3884787 29.5435277,42.6296047 28.9074594,42.6296047 C28.2562522,42.6296047 27.6280999,42.3758138 27.1591181,41.9081698 L17.0596231,31.8242736 C16.098037,30.8621531 16.098037,29.2927677 17.0598475,28.3337029 L18.1541747,27.2404601 C18.6214713,26.7732217 19.2504913,26.5199124 19.9027223,26.5199124 C20.5544718,26.5199124 21.1823902,26.7729175 21.6510793,27.2402697 L31.7497141,37.3244 C32.7005773,38.273846 32.712054,39.8183259 31.7841442,40.7808706 L32.2488264,41.2446172 L34.9197072,38.5786152 L27.0757348,30.745787 L32.036789,25.7916068 C31.9488945,24.4364237 33.3816614,22.0814578 35.58244,19.8834936 C37.709951,17.7597093 40.0081915,16.3384645 41.3661243,16.3384653 C41.7524494,16.3377148 42.0804821,16.4503396 42.3180146,16.6875181 C43.3856731,17.7528709 41.8666782,20.6698405 39.1175013,23.413757 C36.991534,25.5376672 34.6930491,26.9589 33.3329041,26.9589 C33.2879553,26.9589 33.2438016,26.9573923 33.2004709,26.9543433 L29.4038288,30.7457749 L37.2479185,38.5787202 L32.2487199,43.5692308 L30.6207131,41.9425568 Z M40.9670331,18.0526801 C40.0148974,18.3389172 38.3179226,19.4760864 36.7457176,21.0455332 C35.0910541,22.6984533 34.0030786,24.3957622 33.7320236,25.2455054 C34.6841399,24.9597291 36.3812412,23.8223556 37.9541732,22.2517678 C39.6091109,20.5992967 40.6963959,18.9025217 40.9670331,18.0526801 Z M19.9027223,28.1632454 C19.6788102,28.1632454 19.4731577,28.247755 19.3180274,28.4030187 L18.2240491,29.4942728 C17.9021962,29.8163764 17.9021962,30.3400029 18.2237276,30.6614199 L28.3229098,40.7460969 C28.4774173,40.9003741 28.6831492,40.9846316 28.9074594,40.9846316 C29.1318783,40.9846316 29.33773,40.900325 29.4916067,40.7459519 L30.586462,39.6538217 C30.9084506,39.332313 30.9084506,38.8085204 30.586462,38.4870117 L20.48693,28.4025319 C20.3324446,28.2479129 20.1263127,28.1632454 19.9027223,28.1632454 Z" id="objectif-7" fill="#E6CA85" fill-rule="nonzero"></path>
                        <circle id="Oval-Copy-3" stroke="#E6CA85" stroke-width="3.6" opacity="0.433705357" cx="29.5" cy="29.5" r="29.5"></circle>
                    </g>
                    <g id="Group-5" transform="translate(324.000000, 0.000000)">
                        <polygon id="Fill-1" fill="#E6CA85" points="56 11.9220779 57.0291851 13.2797203 79 15 59.9610949 6"></polygon>
                        <polygon id="Fill-2" fill="#E6CA85" points="18 54.7113613 18.0571179 57 37 37"></polygon>
                        <polygon id="Fill-3" fill="#90A3AA" points="30 0 43.5001439 34 57 31.1714142"></polygon>
                        <polygon id="Fill-4" fill="#FFFFFF" points="42.0652832 32 51 21.3795816 0 8"></polygon>
                        <polygon id="Fill-5" fill="#FFFFFF" points="56.1567045 11 56.2672422 11.5071225 61 33.1994302 30 44"></polygon>
                    </g>
                    <g id="Group-12" opacity="0.868470982" transform="translate(518.000000, 164.000000)">
                        <path d="M29.9538462,16.3394936 L29.9547745,16.3384615 L30.4767374,16.7969589 L43.0472679,27.8390376 L43.5692308,28.297535 L42.6412968,29.3291541 L42.1193339,28.8706567 L29.9538462,18.1843716 L17.7883584,28.8706567 L17.2663955,29.3291541 L16.3384615,28.297535 L16.8604244,27.8390376 L29.4309549,16.7969589 L29.9529178,16.3384615 L29.9538462,16.3394936 Z M29.8312864,21.48908 L40.1814787,31.0069656 L40.1814787,41.7538462 L19.4810942,41.7538462 L19.4810942,31.0069656 L29.8312864,21.48908 Z M21.0524105,31.6831077 L21.0524105,40.2010538 L38.6101624,40.2010538 L38.6101624,31.6831077 L29.8312864,23.6101816 L21.0524105,31.6831077 Z" id="objectif-2" fill="#E6CA85" fill-rule="nonzero"></path>
                        <circle id="Oval-Copy-4" stroke="#899EA6" stroke-width="3.6" opacity="0.2" cx="29.5" cy="29.5" r="29.5"></circle>
                    </g>
                    <g id="Group-6" opacity="0.4" transform="translate(589.000000, 27.000000)">
                        <path d="M39.6541363,27.0866278 C40.1756573,26.9007118 40.6271173,26.5835837 41.011231,26.173446 C41.1880046,25.984696 41.3376439,25.7892839 41.4605638,25.5985992 C41.5343289,25.4841678 41.5831123,25.3961453 41.6056051,25.3495735 C41.7790641,24.9852002 42.2126156,24.8291508 42.5789698,25.0002111 C42.9438806,25.1716234 43.1016241,25.6053434 42.9315507,25.9694591 C42.7920641,26.2731806 42.5056178,26.7254018 42.0754994,27.1841618 C41.4976259,27.8005157 40.7981247,28.2697702 39.9701607,28.5250735 C40.0038972,28.8111778 40.0211428,29.1010151 40.0211428,29.3940057 C40.0211428,32.2199973 38.4335746,34.8363578 35.650748,36.6232398 L35.650748,40.2670231 C35.650748,40.671619 35.3233779,40.9988901 34.9186596,40.9988901 L32.2363596,40.9988901 C31.8316414,40.9988901 31.5042713,40.671619 31.5042713,40.2670231 L31.5042713,38.3635903 C29.3092388,38.8872702 27.0008448,38.9074966 24.7783291,38.4077344 L24.7783291,40.2681329 C24.7783291,40.6725646 24.4505684,41 24.0462408,41 L21.3633857,41 C20.9590581,41 20.6312974,40.6725646 20.6312974,40.2681329 L20.6341986,36.4936764 C20.6260324,36.449147 20.6218605,36.4052639 20.6218605,36.3607724 C20.6218605,36.3136186 20.6255666,36.2673061 20.6312974,36.2353551 C20.6312974,34.0977754 19.0504435,32.2873626 16.873886,31.9410753 C16.5912754,31.8956956 16.3608553,31.6900035 16.2840762,31.414413 C16.0956554,30.7398208 16,30.0595559 16,29.3940057 C16,28.3760001 16.2149778,27.3648226 16.6384413,26.3893358 C16.7958535,26.0248353 17.2153722,25.8532557 17.5844509,26.0018676 C17.9309346,26.141882 18.2914184,26.2126159 18.6566608,26.2126159 C20.213337,26.2126159 21.474911,24.9557325 21.5273373,23.3472565 C21.5752959,21.8411353 20.9025179,20.2099738 20.0175536,19.3258982 C19.8242448,19.1326478 19.7547271,18.8473244 19.8373184,18.5872057 C19.9193863,18.3264262 20.1406335,18.1336075 20.4111401,18.0873137 C20.4915624,18.073914 20.5972277,18.0592743 20.7558069,18.0433874 C21.0266682,18.0162517 21.3278305,18 21.6520438,18 C23.6775784,18 25.5908594,18.5830729 26.9525526,20.0606742 C27.3332381,20.0304646 27.6732059,20.0144466 28.0080734,20.0144466 C33.6075394,20.0144466 38.3340329,23.0204659 39.6541363,27.0866278 Z M23.3141525,39.5362659 L23.3141525,37.4634461 C23.3141525,37.2333272 23.4226786,37.0161426 23.6063592,36.8784259 C23.7900603,36.7394113 24.0282617,36.6963307 24.2514248,36.7609119 C26.8084,37.5097257 29.518477,37.4815338 32.018895,36.7062763 C32.2411106,36.6371308 32.4834807,36.677646 32.6697399,36.8158463 C32.8572347,36.9534961 32.9678929,37.1723665 32.9678929,37.405177 L32.9678929,39.535156 L34.1860162,39.535156 L34.1860162,36.2153771 C34.1860162,35.9574 34.3218614,35.7186345 34.5433296,35.5866735 C37.0977017,34.0658314 38.5564111,31.8081707 38.5564111,29.3940057 C38.5564111,25.0419815 33.8330529,21.4781807 28.0075183,21.4781807 C27.6158821,21.4781807 27.2334531,21.502008 26.7086976,21.5507857 C26.4619219,21.5719524 26.2234721,21.4710391 26.0702872,21.2792509 C25.0799638,20.0435911 23.5602512,19.5025184 21.9461281,19.4642698 C22.6339476,20.6201694 23.033406,22.0230617 22.9896643,23.3941912 C22.911072,25.793999 21.0078702,27.6757951 18.6555506,27.6757951 C18.3515261,27.6757951 18.0494623,27.6435145 17.751617,27.5793605 C17.5605686,28.1787171 17.4641766,28.7866105 17.4641766,29.3940057 C17.4641766,29.7868661 17.5064348,30.1889003 17.5902552,30.5933934 C20.2377955,31.2353123 22.095474,33.5504571 22.095474,36.2520034 C22.0947371,36.3267966 22.095474,36.3413209 22.095474,36.3652119 L22.095474,39.5362659 L23.3141525,39.5362659 Z M26.9249463,25.6614525 C26.9249463,26.4159877 26.3185883,27.0237359 25.5633612,27.0237359 C24.8103909,27.0237359 24.2017762,26.4149111 24.2017762,25.6614525 C24.2017762,24.907833 24.8105515,24.2980592 25.5633612,24.2980592 C26.3189826,24.2980592 26.9249463,24.9061991 26.9249463,25.6614525 Z" id="objectif-4" fill="#E6CA85" fill-rule="nonzero"></path>
                        <circle id="Oval-Copy" stroke="#899EA6" stroke-width="3.6" opacity="0.2" cx="29.5" cy="29.5" r="29.5"></circle>
                    </g>
                    <g id="Group-10" transform="translate(113.000000, 21.000000)">
                        <circle id="Oval-Copy-6" stroke="#899EA6" stroke-width="3.6" opacity="0.2" cx="29.5" cy="29.5" r="29.5"></circle>
                        <path d="M41.9809678,23.7850725 L41.9809678,21.4134033 C40.2865958,22.2525451 37.3878793,22.7053279 34.0305769,22.7053279 C30.6734628,22.7053279 27.7750103,22.2525776 26.0807534,21.4134802 L26.0807534,24.5847875 C26.126864,24.5905387 26.1722248,24.6007365 26.2161081,24.6155044 C26.5951844,24.6922401 30.8286638,25.2337479 31.4601436,25.2981538 C32.2837931,25.3703487 33.1502292,25.4072005 34.0305769,25.4072005 C38.4257581,25.4072005 41.9809678,24.4224012 41.9809678,23.7850725 Z M41.9809678,25.6765629 C40.2865399,26.5160348 37.3877292,26.9690637 34.0305769,26.9690637 C33.115348,26.9690637 32.2168015,26.9315511 31.3594592,26.8576138 C32.5307377,27.7125621 33.49414,28.8281915 34.1602009,30.116505 C34.2466857,30.0832409 34.340599,30.0644605 34.4389038,30.0632341 C38.6070848,30.0104636 41.9804005,29.0381539 41.9804005,28.4444357 C41.9804005,28.4344532 41.9805907,28.4245144 41.9809678,28.4146227 L41.9809678,25.6765629 Z M41.9809678,30.3210499 C40.4084769,31.1002 37.8019542,31.5539068 34.7750747,31.6201151 C35.0367785,32.4696664 35.1775297,33.3704299 35.1775297,34.3029321 C35.177545,34.4374322 35.1746313,34.5712721 35.168848,34.7043936 C38.9830981,34.5577016 41.9804005,33.6551992 41.9804005,33.1043569 C41.9804005,33.0909774 41.9807414,33.0776772 41.9814151,33.0644641 C41.9811177,33.0556637 41.9809678,33.0468263 41.9809678,33.037954 L41.9809678,30.3210499 Z M43.5682154,33.0778251 C43.5685134,33.0866326 43.5686635,33.0954773 43.5686635,33.1043569 C43.5686635,35.0115022 39.9151695,36.1412127 34.962952,36.2752335 C34.0417785,40.4404213 30.2638397,43.5692308 25.7568612,43.5692308 C20.5633036,43.5692308 16.3384615,39.4125978 16.3384615,34.3029571 C16.3384615,29.6150568 19.8946642,25.7293375 24.4924904,25.1198339 L24.4924904,20.280785 C24.4924904,20.1674874 24.5170369,20.0598052 24.5611813,19.9626065 C24.5158059,19.8208733 24.4924904,19.6741181 24.4924904,19.5224527 C24.4924904,17.4896843 28.6790339,16.3384615 34.0305769,16.3384615 C39.382276,16.3384615 43.5692308,17.489705 43.5692308,19.5224527 C43.5692308,19.6740715 43.5459268,19.8207834 43.5005736,19.9624764 C43.5447018,20.0596978 43.5692308,20.1674216 43.5692308,20.280785 L43.5692308,33.037954 C43.5692308,33.0513258 43.5688896,33.0646189 43.5682154,33.0778251 Z M25.7568612,26.5991047 C21.4396007,26.5991047 17.9267245,30.0553284 17.9267245,34.3029571 C17.9267245,38.5505858 21.4396007,42.0068096 25.7568612,42.0068096 C30.0753112,42.0068096 33.5892667,38.5505317 33.5892667,34.3029571 C33.5892667,30.0551876 30.0756802,26.5991047 25.7568612,26.5991047 Z M23.366097,36.1350735 C23.5467701,36.410386 23.7552241,36.6403304 24.0041851,36.8397573 C24.2499005,37.0365844 24.5142627,37.1866524 24.8153193,37.3016652 C25.1238336,37.4136691 25.435752,37.4714177 25.7535053,37.4714177 C25.970383,37.4714177 26.1978295,37.4433432 26.454792,37.3876167 C26.6825504,37.3341116 26.9144293,37.2426951 27.1412952,37.1187277 C27.3698861,36.9902296 27.5718292,36.8369552 27.7530806,36.6519243 C27.9464542,36.4545187 28.1023813,36.2308605 28.215816,35.9814262 L28.3162828,35.7605071 L29.6984255,36.5059547 L29.6179858,36.6919122 C29.454614,37.0695894 29.2328302,37.3933655 28.9413226,37.6801302 C28.6589176,37.9579402 28.3414203,38.1892237 27.9887633,38.3766191 C27.6374507,38.5690536 27.2569268,38.7154017 26.8659618,38.8095585 C26.483935,38.9082564 26.0968664,38.9554837 25.704001,38.9554837 C25.1439247,38.9554837 24.627294,38.8582063 24.1544529,38.6611055 C23.675252,38.4646871 23.2543945,38.208488 22.8739992,37.88155 C22.5064059,37.5661009 22.1821581,37.1852973 21.9009996,36.7443574 C21.661007,36.3624506 21.4714645,35.9532749 21.3374659,35.5278345 L19.7052429,35.5278345 L20.1925817,34.4071367 L21.1162855,34.4071367 C21.1086547,34.3046991 21.1041005,34.2006324 21.1024245,34.0930916 L20.0365409,34.0930916 L20.5238797,32.9723939 L21.2184744,32.9723939 C21.3191161,32.5126257 21.4738162,32.0829919 21.6850861,31.6841727 C21.9255123,31.2072022 22.2463704,30.7810416 22.633837,30.4234744 C23.0234695,30.0559873 23.484724,29.7601068 24.003258,29.5443031 C24.5375429,29.317343 25.128424,29.2038528 25.7763535,29.2038528 C26.6455053,29.2038528 27.4002043,29.4011045 28.0380382,29.7967626 C28.669381,30.1909035 29.1435496,30.7106374 29.4433216,31.3402771 L29.5271451,31.5163395 L28.2098905,32.3573017 L28.0994058,32.1252402 C27.9682905,31.8498462 27.8186072,31.6314843 27.6364826,31.4489426 C27.4540327,31.2660747 27.2636193,31.1247521 27.0507087,31.0113991 C26.8227916,30.895558 26.6027472,30.8156723 26.3893793,30.7761785 C26.1536063,30.7242523 25.93017,30.699157 25.7116171,30.699157 C25.3076747,30.699157 24.9462018,30.7682039 24.6272976,30.9045918 C24.2953681,31.0501101 24.0190354,31.2313345 23.782847,31.4602544 C23.5313502,31.7003826 23.3265999,31.9701088 23.1751803,32.2679737 C23.0572918,32.4921831 22.9613535,32.7294723 22.8883765,32.97614 L27.076011,32.97614 L26.5886722,34.0968377 L22.7437247,34.0968377 C22.7445662,34.2112764 22.7490965,34.3175632 22.7575781,34.4183749 L26.6152402,34.4183749 L26.1279014,35.5390727 L23.0424308,35.5390727 C23.1314832,35.7450004 23.2392781,35.942949 23.366097,36.1350735 Z M34.0305769,17.9008827 C29.7641357,17.9008827 26.0807534,18.8932873 26.0807534,19.5224527 C26.0807534,20.1513307 29.7637651,21.1429067 34.0305769,21.1429067 C38.4256832,21.1429067 41.9809678,20.1589832 41.9809678,19.5224527 C41.9809678,18.8852759 38.4259297,17.9008827 34.0305769,17.9008827 Z" id="objectif-8" fill="#E6CA85" fill-rule="nonzero"></path>
                    </g>
                    <g id="femme" transform="translate(186.000000, 13.000000)">
                        <polygon id="Fill-1" fill="#FDF9ED" points="81.8255833 418.562896 98.6700333 418.562896 98.6700333 388.181849 81.8255833 388.181849"></polygon>
                        <polygon id="Fill-2" fill="#FDF9ED" points="36.509965 394.752801 26.0327817 384.768721 43.982315 366.005196 54.4594983 375.994233"></polygon>
                        <g id="Group-45" transform="translate(0.000000, 0.461894)">
                            <polygon id="Fill-5" fill="#FDF9ED" transform="translate(72.617327, 73.834930) rotate(-28.000000) translate(-72.617327, -73.834930) " points="66.7653517 99.9452302 49.6129683 87.5692353 78.4693017 47.7246291 95.621685 60.1006241"></polygon>
                            <g id="Group-8" transform="translate(71.000000, 50.500000) rotate(-35.000000) translate(-71.000000, -50.500000) translate(38.000000, 13.000000)">
                                <path d="M10.6669922,14.3066608 C9.07765885,22.2706247 12.440435,36.5935838 18.3507683,53.6022113 L45.3793683,44.4906236 L63.4785156,27.0616064 C63.4785156,27.0616064 62.519335,2.89111967 35.5826183,0.633052094 C25.0955017,-0.244396776 12.7182255,4.00531197 10.6669922,14.3066608 Z" id="Fill-3" fill="#1B2731"></path>
                                <path d="M63.2921483,25.5520662 C65.1024983,28.2885169 64.883965,33.0128602 65.1124317,36.1508553 C65.688565,44.0478952 62.507415,52.0391244 56.972065,57.65331 C52.9962483,61.6861047 44.5429817,68.1678244 38.5655983,63.7483574 L33.474765,60.8334425 C28.6049483,57.2344149 27.3111317,50.5097856 30.4997317,45.3640685 L32.2802817,42.4863336 C32.2802817,42.4863336 30.390465,43.7107962 30.4997317,36.7060772 C30.5419483,33.9250105 31.3639317,30.2020494 33.9093483,29.0792123 C34.8579817,28.6603172 38.8660817,29.3270792 39.255965,29.8723864 C40.0729817,31.0150529 40.1549317,35.823671 40.1449983,38.1635347 C40.1449983,38.4361883 40.515015,38.520463 40.6317317,38.2800321 C43.4329317,32.5691785 47.4608983,26.1915628 53.939915,24.2681156 C55.9340317,23.6781923 58.0051317,23.6137469 60.0389817,24.025206 C61.9213483,24.4093997 62.753265,24.736584 63.2921483,25.5520662" id="Fill-7" fill="#FDF9ED"></path>
                                <path d="M45.07069,74.1520753 C38.35824,73.0936836 -26.7899302,68.1906875 13.3457031,8.15236397 C68.8168945,14.1689655 58.4641113,15.7199909 62.878418,25.0722858 C62.878418,25.0722858 30.0539733,51.0409644 45.07069,74.1520753 Z" id="Fill-44" fill="#1B2731"></path>
                                <path d="M64.2431551,44.0166218 C64.0815841,45.6811087 64.2241468,47.1443939 64.6708433,48.4064774 C65.1175398,49.6685609 65.5258609,50.5867006 65.8958067,51.1608966 C64.794039,52.1153319 63.2150413,52.1751911 61.1588135,51.3404743 C59.1025857,50.5057575 60.1306996,48.0644733 64.2431551,44.0166218 Z" id="Path-9" fill="#FDF9ED"></path>
                            </g>
                            <polygon id="Fill-11" fill="#212F3B" points="87.6196967 304.09536 35.7428633 367.95827 50.7993133 380.04426 99.4031133 341.986775"></polygon>
                            <polygon id="Fill-13" fill="#1B2731" points="79.2734617 318.468666 62.7046617 370.723969 99.4008783 341.986279 87.619945 304.094864 78.8537783 315.172036"></polygon>
                            <path d="M113.769942,206.316076 L115.369208,310.301204 L100.883925,396.856329 L80.917925,396.856329 L83.2001083,318.468418 L75.1839083,255.423469 L64.848275,237.081318 C62.0421083,232.101671 60.9395083,226.34868 61.7018917,220.689879 L62.747375,212.956431 L113.769942,206.316076 Z" id="Fill-15" fill="#212F3B"></path>
                            <polyline id="Fill-17" fill="#232F38" points="115.367967 310.301699 100.882683 396.856825 80.9191667 396.856825 83.20135 318.468914"></polyline>
                            <path d="M132.487305,148.493931 L133.041353,147.889425 L138.905273,145.554229 L133.84347,137.890184 C133.84347,137.315133 133.490837,136.802049 132.951953,136.59384 L127.04162,134.310986 C126.37857,134.055683 125.63357,134.130043 125.03757,134.511758 L116.497387,139.972266 L108.70717,139.972266 L102.096537,143.048295 L102.096537,153.176137 L115.951053,153.176137 C115.951053,153.176137 123.887787,157.536116 126.75107,157.203974 C127.923203,157.070126 130.679703,154.591457 130.679703,154.591457 L133.041353,155.005395 C134.248253,155.216082 135.457637,154.663338 136.08592,153.614861 L137.007237,152.085522 L139.493053,152.023556 C140.516187,151.99629 141.37542,151.245254 141.534353,150.233957 L141.805037,148.493931 C141.805037,148.493931 143.868687,147.851956 144.261053,147.296734 C144.752753,146.602706 144.643487,143.920786 144.643487,143.920786 L140.82412,145.554229 L125.87942,153.830506 L123.830322,153.176137 L132.487305,148.493931 Z" id="Fill-19" fill="#FDF9ED"></path>
                            <polygon id="Fill-21" fill="#F2EBD6" points="110.706998 148.2768 112.634065 139.973258 108.705432 139.973258 102.097282 143.049286 102.097282 153.177128 111.119232 153.177128"></polygon>
                            <path d="M113.769942,206.316076 L62.747375,212.956431 L61.7018917,220.689879 C61.182875,224.539252 63.6910417,233.417845 64.848275,237.081318 C83.2001083,236.652508 97.8915083,218.354972 113.859342,210.718193 L113.769942,206.316076 Z" id="Fill-23" fill="#1B2731"></path>
                            <path d="M81.96167,85.8653981 C79.3492033,89.4718617 74.7674533,91.0780393 70.4688033,89.8957141 L55.8469367,85.8653981 C55.8469367,85.8653981 47.2794367,91.1077833 47.36387,94.0499636 C49.06992,153.629733 47.55012,133.42858 53.49522,162.981752 C59.5942867,193.295875 62.7456367,212.956679 62.7456367,212.956679 C62.7456367,212.956679 91.5672033,212.299832 114.07117,207.947289 L104.709003,146.919976 L107.60457,134.219275 C107.60457,134.219275 108.198087,122.259697 101.885453,111.807149 C95.35677,100.995194 81.96167,85.8653981 81.96167,85.8653981 Z" id="Fill-25" fill="#E6CA85"></path>
                            <g id="sac" transform="translate(48.649361, 129.249484) rotate(14.000000) translate(-48.649361, -129.249484) translate(9.649361, 85.249484)">
                                <path d="M15.5112,35.91665 C15.5112,35.91665 24.6777,0.16715 40.3447,0.00065 C56.0112,-0.16585 63.8447,35.91665 63.8447,35.91665" id="Stroke-12" stroke="#232F38" stroke-width="3" stroke-linecap="round"></path>
                                <path d="M12.4631905,34.6847714 C12.4631905,34.6847714 3.12969052,58.9827714 1.12969052,68.6492714 C0.629690522,70.6492714 -1.03680948,87.6492714 12.4631905,87.8162714 C25.9631905,87.9827714 63.2966905,87.8162714 63.2966905,87.8162714 C63.2966905,87.8162714 79.9631905,87.8162714 76.9631905,69.6492714 C73.2966905,53.8162714 67.6296905,38.7742714 65.7966905,35.8782714 C64.1296905,34.9827714 15.7966905,34.0532714 12.4631905,34.6847714" id="Fill-5" fill="#232F38"></path>
                                <path d="M15.2256405,34.0231714 C15.2256405,34.0231714 41.3921405,33.2306714 62.3921405,34.0231714 C63.0591405,34.3161714 63.8921405,53.9826714 60.0591405,63.3161714 C58.8921405,65.3161714 55.0591405,77.3161714 39.8921405,76.6491714 C24.7256405,75.9826714 21.8921405,77.1491714 17.8921405,62.3161714 C16.8921405,59.1491714 14.7256405,47.7306714 15.2256405,34.0231714" id="Fill-8" fill="#374F65"></path>
                                <path d="M41.8987405,68.0661214 C41.8987405,70.0451214 40.2947405,71.6491214 38.3152405,71.6491214 C36.3362405,71.6491214 34.7322405,70.0451214 34.7322405,68.0661214 C34.7322405,66.0871214 36.3362405,64.4826214 38.3152405,64.4826214 C40.2947405,64.4826214 41.8987405,66.0871214 41.8987405,68.0661214" id="Fill-10" fill="#FFF2D7"></path>
                            </g>
                            <g id="Group-3" transform="translate(140.478152, 145.646186) scale(-1, 1) rotate(-17.000000) translate(-140.478152, -145.646186) translate(121.978152, 127.146186)" fill="#FFFFFF">
                                <path d="M36.4338125,36.1558059 L36.3530625,36.2378059 C35.8305625,36.7683941 34.9850625,36.7683941 34.4625625,36.2378059 L1.3906875,2.65639412 C0.8681875,2.12580588 0.8681875,1.26721765 1.3906875,0.736629412 L1.4714375,0.654629412 C1.9939375,0.124041176 2.8394375,0.124041176 3.3619375,0.654629412 L36.4338125,34.2384529 C36.9563125,34.7666294 36.9563125,35.6252176 36.4338125,36.1558059" id="Fill-1"></path>
                            </g>
                            <g id="Group-32" transform="translate(77.566667, 399.193714)">
                                <mask id="mask-6" fill="white">
                                    <use xlink:href="#path-5"></use>
                                </mask>
                                <g id="Clip-31"></g>
                                <path d="M1.870695,7.80037174 L1.870695,24.7891699 L59.7994117,24.7891699 L59.7994117,17.4151293 C59.7994117,14.5820105 58.028795,12.0512893 55.3666617,11.0697363 L27.3993617,2.08208206 L23.4707283,7.80037174 L1.870695,7.80037174 Z" id="Fill-30" fill="#E6CA85" mask="url(#mask-6)"></path>
                            </g>
                            <g id="Group-35" transform="translate(102.400000, 399.193714)">
                                <mask id="mask-8" fill="white">
                                    <use xlink:href="#path-7"></use>
                                </mask>
                                <g id="Clip-34"></g>
                                <path d="M30.5320867,11.0704799 L2.56478667,2.08282567 L0.237903333,5.46868769 L26.3427033,13.8589827 C29.00732,14.838057 30.7754533,17.3712568 30.7754533,20.2043756 L30.7754533,24.7874348 L34.96732,24.7874348 L34.96732,17.4158729 C34.96732,14.5827541 33.1967033,12.0520329 30.5320867,11.0704799" id="Fill-33" fill="#DEC17B" mask="url(#mask-8)"></path>
                            </g>
                            <polygon id="Fill-36" fill="#FFFFFF" points="79.4366167 423.980406 137.365333 423.980406 137.365333 418.752892 79.4366167 418.752892"></polygon>
                            <path d="M28.7095667,374.001513 L13,386.414688 L52.9270333,423.981397 L67.4917833,423.981397 L67.4917833,419.323978 C67.4917833,416.845309 65.4778,414.835108 62.9919833,414.835108 L58.8199833,414.835108 L50.9627167,388.702499 L40.2471333,387.066578 L28.7095667,374.001513 Z" id="Fill-38" fill="#E6CA85"></path>
                            <path d="M55.546205,418.75314 L17.4419383,382.904149 L12.999255,386.413944 L52.9287717,423.980653 L67.4935217,423.980653 L67.4935217,419.323234 C67.4935217,419.127419 67.458755,418.941519 67.4339217,418.75314 L55.546205,418.75314 Z" id="Fill-39" fill="#FFFFFF"></path>
                            <path d="M88.2199183,235.331625 L92.7222017,239.850239 C93.1617517,240.291442 93.462235,240.834271 93.5938517,241.439066 C94.3314017,244.85715 96.6235183,256.655616 93.3852517,258.008969 C92.508635,258.378291 90.6709683,255.346878 90.6709683,255.346878 C90.6709683,255.346878 89.4516517,258.717868 88.4359683,258.727783 C87.4252517,258.742655 86.1264683,255.41876 86.1264683,255.41876 C86.1264683,255.41876 85.200185,258.633593 84.2515517,258.727783 C83.158885,258.839323 81.3684017,255.41876 81.3684017,255.41876 C81.3684017,255.41876 79.5779183,258.579063 78.584585,258.370855 C77.310635,258.103158 76.8512183,253.473004 76.8512183,253.473004 L74.6460183,244.059019 C74.3331183,242.720538 74.6087683,241.315132 75.403435,240.194774 L77.832135,236.771732 L76.1658183,227.818779 L86.883885,226.267132 L88.2199183,235.331625 Z" id="Fill-40" fill="#FDF9ED"></path>
                            <polygon id="Fill-41" fill="#F2EBD6" points="86.8836367 226.266636 76.16557 227.818283 77.5338867 235.170016 88.1948367 235.170016"></polygon>
                            <path d="M83.2120283,218.581275 L69.687795,165.351855 L69.2134783,103.628037 L53.297795,89.5467175 C53.297795,89.5467175 50.682845,91.1603311 48.3559617,93.0986504 C47.8791617,93.7629337 47.591095,94.3925157 47.6084783,94.9452589 C49.3145283,154.525029 47.4296783,134.398235 53.737345,163.877047 C54.9119617,169.362342 55.0882783,172.639143 56.6999617,180.11233 L63.6036283,217.773229 C68.7168117,213.470259 77.6344617,221.213621 83.2120283,218.581275" id="Fill-42" fill="#ECD08C"></path>
                            <path d="M51.4642334,90.178365 C46.5369873,92.9000446 47.3698237,93.3420197 47.387207,96.2841999 C47.677757,143.165748 54.6137133,164.827617 54.6137133,164.827617 L73.8744467,232.554772 L90.2495467,232.554772 L72.23793,161.669792 L69.9833984,100.78774 C68.8432615,96.9902597 67.4807941,94.1428883 65.8959961,92.2456257 C62.0569661,87.6496784 57.2463786,86.9605915 51.4642334,90.178365 Z" id="Fill-43" fill="#DEC17B"></path>
                        </g>
                    </g>
                    <g id="Group-17" opacity="0.545703125" transform="translate(53.000000, 351.000000)">
                        <g id="Group-3" fill="#233648">
                            <path d="M27.7334,62.331 C27.6154,62.387 27.4954,62.447 27.3774,62.503 C23.6654,64.279 21.6954,63.981 18.0794,62.311 C14.7494,60.775 11.5194,58.951 8.7594,56.513 C5.2674,53.427 2.5574,49.257 1.9934,44.629 C1.8674,43.593 1.8734,42.455 2.4894,41.611 C3.3374,40.451 5.0714,40.279 6.4114,40.795 C7.7514,41.313 8.8054,42.359 9.8714,43.319 C10.3234,43.727 10.8074,44.137 11.3974,44.297 C11.9854,44.455 12.7074,44.289 13.0074,43.759 C13.4894,42.911 12.6654,41.935 11.9154,41.311 C10.1814,39.867 8.5554,39.031 6.7354,37.749 C4.4514,36.141 2.3374,34.177 1.0834,31.681 C-0.1706,29.185 -0.4506,26.089 0.8534,23.619 C1.2514,22.869 1.7954,22.179 2.5134,21.725 C3.7874,20.921 5.4234,20.961 6.8974,21.279 C8.3694,21.593 9.7914,22.153 11.2914,22.309 C14.8334,22.679 16.2254,20.187 16.1554,16.925 C16.1074,14.739 15.4014,12.617 15.2754,10.433 C15.0534,6.591 16.9494,2.495 20.4314,0.853 C23.9114,-0.793 28.7734,0.783 30.0174,4.425 C31.3714,8.383 28.2814,12.827 30.3254,16.611 C30.9914,17.845 32.4994,19.539 33.6774,20.269 C35.6194,21.471 38.4174,20.057 40.6814,20.161 C41.1834,20.185 41.7294,20.255 42.0814,20.615 C42.3414,20.879 42.4474,21.257 42.5174,21.623 C43.0514,24.373 42.0574,27.371 39.9834,29.257 C37.6434,31.389 33.5814,32.475 32.5854,35.813 C31.9674,37.885 32.2354,43.053 35.5334,42.529 C36.7714,42.331 37.5994,41.109 38.7874,40.705 C40.2554,40.209 41.9374,41.185 42.5934,42.589 C43.2514,43.991 43.0554,45.667 42.4834,47.109 C41.5814,49.383 39.8414,51.207 38.1434,52.967 C34.6454,56.597 32.3474,60.055 27.7334,62.331" id="Fill-1"></path>
                        </g>
                        <mask id="mask-10" fill="white">
                            <use xlink:href="#path-9"></use>
                        </mask>
                        <use id="Clip-5" fill="#3A556D" xlink:href="#path-9"></use>
                        <polyline id="Stroke-7" stroke="#3A556D" stroke-width="2" points="32 28 22.5010172 37 13 28"></polyline>
                        <polyline id="Stroke-9" stroke="#3A556D" stroke-width="2" points="32 47 22.5010172 56 13 47"></polyline>
                    </g>
                    <g id="Group-17" opacity="0.722042411" transform="translate(471.500000, 402.000000) scale(-1, 1) translate(-471.500000, -402.000000) translate(454.000000, 368.000000)">
                        <g id="Group-3" fill="#233648">
                            <path d="M22.0606591,49.8648 C21.9667955,49.9096 21.8713409,49.9576 21.7774773,50.0024 C18.82475,51.4232 17.2577045,51.1848 14.3813409,49.8488 C11.7324773,48.62 9.16315909,47.1608 6.96770455,45.2104 C4.18997727,42.7416 2.03429545,39.4056 1.58565909,35.7032 C1.48543182,34.8744 1.49020455,33.964 1.98020455,33.2888 C2.65475,32.3608 4.03406818,32.2232 5.09997727,32.636 C6.16588636,33.0504 7.00429545,33.8872 7.85225,34.6552 C8.21179545,34.9816 8.59679545,35.3096 9.06611364,35.4376 C9.53384091,35.564 10.1081591,35.4312 10.3467955,35.0072 C10.7302045,34.3288 10.07475,33.548 9.47815909,33.0488 C8.09884091,31.8936 6.80543182,31.2248 5.35770455,30.1992 C3.54088636,28.9128 1.85929545,27.3416 0.861795455,25.3448 C-0.135704545,23.348 -0.358431818,20.8712 0.678840909,18.8952 C0.995431818,18.2952 1.42815909,17.7432 1.99929545,17.38 C3.01270455,16.7368 4.31406818,16.7688 5.48656818,17.0232 C6.65747727,17.2744 7.78861364,17.7224 8.98179545,17.8472 C11.7992955,18.1432 12.9065682,16.1496 12.8508864,13.54 C12.8127045,11.7912 12.2511136,10.0936 12.1508864,8.3464 C11.9742955,5.2728 13.4824773,1.996 16.25225,0.6824 C19.0204318,-0.6344 22.8879318,0.6264 23.8774773,3.54 C24.9545227,6.7064 22.4965682,10.2616 24.1224773,13.2888 C24.65225,14.276 25.8517955,15.6312 26.7888409,16.2152 C28.3336136,17.1768 30.5592955,16.0456 32.3602045,16.1288 C32.7595227,16.148 33.1938409,16.204 33.4738409,16.492 C33.6806591,16.7032 33.7649773,17.0056 33.8206591,17.2984 C34.2454318,19.4984 33.45475,21.8968 31.8049773,23.4056 C29.9436136,25.1112 26.7124773,25.98 25.9202045,28.6504 C25.4286136,30.308 25.6417955,34.4424 28.2652045,34.0232 C29.2499773,33.8648 29.9086136,32.8872 30.8536136,32.564 C32.0213409,32.1672 33.3592955,32.948 33.8811136,34.0712 C34.4045227,35.1928 34.2486136,36.5336 33.7936136,37.6872 C33.0761136,39.5064 31.6920227,40.9656 30.3413409,42.3736 C27.5588409,45.2776 25.7308864,48.044 22.0606591,49.8648" id="Fill-1"></path>
                        </g>
                        <mask id="mask-12" fill="white">
                            <use xlink:href="#path-11"></use>
                        </mask>
                        <use id="Clip-5" fill="#3A556D" xlink:href="#path-11"></use>
                        <polyline id="Stroke-7" stroke="#3A556D" stroke-width="1.6" points="25.4545455 22.4 17.8985364 29.6 10.3409091 22.4"></polyline>
                        <polyline id="Stroke-9" stroke="#3A556D" stroke-width="1.6" points="25.4545455 37.6 17.8985364 44.8 10.3409091 37.6"></polyline>
                    </g>
                    <polygon id="Fill-5" fill="#FFFFFF" points="249.331313 315 249.484848 315.719192 256.058586 346.482828 213 361.8"></polygon>
                    <polygon id="Fill-4" fill="#FFFFFF" points="57.7656566 281.89697 70.0351515 266.89697 0 248"></polygon>
                    <polygon id="Fill-1" fill="#E6CA85" points="191 230.983838 190.099121 232.529785 222.882828 235.133333 196.490909 223"></polygon>
                    <polygon id="Fill-2" fill="#E6CA85" points="116 334.889293 116.080808 338.105455 142.880404 310"></polygon>
                    <polygon id="Fill-3" fill="#90A3AA" points="126 223 144.957576 271.226263 163.914747 267.214141"></polygon>
                    <path d="" id="Path-7" stroke="#979797"></path>
                </g>
            </g>
        </g>
    </g>
</svg>