<?xml version="1.0" encoding="UTF-8"?>
<svg width="547px" height="365px" viewBox="0 0 547 365" version="1.1" xmlns="http://www.w3.org/2000/svg" xmlns:xlink="http://www.w3.org/1999/xlink">
    <!-- Generator: Sketch 50.2 (55047) - http://www.bohemiancoding.com/sketch -->
    <title>Illustration</title>
    <desc>Created with Sketch.</desc>
    <defs>
        <polygon id="path-1" points="0 0.3944 91.82061 0.3944 91.82061 53.9327333 0 53.9327333"></polygon>
    </defs>
    <g id="PAGES-WEBBFRONT" stroke="none" stroke-width="1" fill="none" fill-rule="evenodd">
        <g id="01-Home-BLEU-2" transform="translate(-776.000000, -1642.000000)">
            <g id="Illustration" transform="translate(776.000000, 1642.000000)">
                <g id="homme-2" transform="translate(198.000000, 193.500000) scale(-1, 1) translate(-198.000000, -193.500000) translate(112.000000, 22.000000)">
                    <g id="Group-19" transform="translate(139.174994, 39.836374) rotate(9.000000) translate(-139.174994, -39.836374) translate(112.174994, 4.336374)">
                        <path d="M35.3434231,70.0109562 L18.7909431,70.0109562 L18.7909431,49.1661998 C20.4477952,49.1661998 37.3921449,48.7605048 37.4402692,49.260779 C37.5067266,49.8630991 37.7381818,50.4355521 37.7817228,51.0403612 C37.912346,52.7427866 36.6244471,54.1141849 35.859041,55.6025628 C34.4542687,58.3329147 35.3434231,61.424161 35.3434231,64.3660717 L35.3434231,70.0109562 Z" id="Fill-13" fill="#FDF9ED"></path>
                        <g id="Group-18" transform="translate(27.195539, 32.001770) rotate(11.000000) translate(-27.195539, -32.001770) translate(5.695539, 4.001770)">
                            <path d="M36,50.9090909 L11.5899002,50.9090909 C7.75733443,50.9090909 4.64965911,47.7043501 4.64965911,43.7520777 L2.01667009,37.4535202 C0.0360824294,36.0187416 -0.578905238,33.2866338 0.590272837,31.1043235 C2.94733583,26.7011206 6.58114129,19.7104935 7.43464128,16.8963983 C9.39418374,10.4266319 4.64965911,8.14545455 4.64965911,8.14545455 L36,8.14545455 L36,50.9090909 Z" id="Fill-18" fill="#FDF9ED"></path>
                            <path d="M5.14233434,35.0686341 C10.184334,35.1800156 12.8489572,38.3295042 16.3449616,39.8390784 C18.0053885,40.5523937 21.3472604,41.4292265 22.3467861,39.910173 C23.6872714,37.8673896 22.6410389,32.8315256 22.4472057,30.4285299 C22.2650491,28.1724628 21.8540293,22.4446119 20.8965398,20.3994587 C19.8946788,18.2618826 18.0404186,16.0366232 15.8171747,14.9891635 C14.7499242,14.4843922 13.5962661,14.2545198 12.4099132,14.4369958 C10.6724201,14.7024155 9.85271565,15.4228402 8.01013218,14.7427024 C6.16287803,14.0601947 4.54215189,12.4036917 3.53795558,10.7353396 C2.92142575,9.7139479 2.44735167,8.53614819 2.57579539,7.34649939 C2.74160455,5.83692512 3.87190923,4.57381195 5.19371182,3.86286645 C8.48887693,2.08787253 11.1675122,2.77511984 14.4696833,3.88893445 C16.0016666,4.40792467 17.8582621,4.51456649 19.0703037,3.4291897 C19.5140183,3.0286904 19.8292893,2.50259074 20.2099497,2.04047616 C22.2323544,-0.424134895 26.3425532,-0.703773457 28.6732228,1.46224049 C31.0412579,3.66380171 31.7068298,5.460124 34.8291798,6.51469316 C36.8772732,7.20668011 39.4274647,8.1759358 40.7002252,10.064681 C42.8300555,13.221279 40.2658519,14.8872613 39.7404003,17.8400549 C39.4975249,19.2027005 40.5297453,20.4113078 41.2840602,21.5677792 C42.75766,23.8309557 43.3228123,30.1441517 42.8207141,32.8101973 C42.5848448,34.0638312 42.0734053,35.3340538 41.0692089,36.0971353 C38.736204,37.8673896 39.0211155,40.5334352 39.0024328,43.3701077 C38.9860854,45.728077 41.0038194,46.7992348 41.097233,48.8917844 C41.2723835,52.8683396 35.8870889,53.0128985 33.547078,51.2142064 C31.412577,49.5719223 30.84976,46.6120192 30.4387401,43.9246452 C30.293949,42.962499 30.1468225,41.9861338 30.2589189,41.019248 C30.4550874,39.3082391 31.4312597,37.8081441 32.0104241,36.1895582 C32.5008455,34.8150636 32.7063555,32.9120995 31.6811411,31.717711 C30.6138906,30.4735564 28.7316063,30.1323026 27.3794443,31.0589015 C25.7587182,32.1703463 25.8941679,33.9571894 25.9782402,35.5734054 C26.1113546,38.0783034 26.1300373,40.744349 26.3121938,43.3084925 C26.5924347,47.1618171 28.0029802,52.3185417 23.9231407,54.7902622 C20.3524055,56.8614835 17.0899351,55.6623554 13.2272823,55.5841514 C11.3613455,55.5462343 9.38798294,55.4775096 7.81863428,54.453748 C5.81958301,53.150348 4.98586654,50.6549293 4.2875998,48.3467262 C3.81119039,46.7731668 3.33711631,45.1996075 2.85837156,43.6260481 C2.40998623,42.1378022 1.95459488,40.6163788 2.00363702,39.061778 C2.05267917,37.5048074 3.61035112,35.0354567 5.14233434,35.0686341" id="Fill-28" fill="#E6CA85"></path>
                        </g>
                    </g>
                    <polygon id="Fill-8" fill="#5361F0" points="61 324 69 324 69 315 61 315"></polygon>
                    <polygon id="Fill-10" fill="#5361F0" points="151 318.281759 143.851502 322 140 313.720684 147.148498 310"></polygon>
                    <path d="M128,165 L114.495102,194.214539 L86.2892037,236.50176 L73.5926723,321 L57,321 L61.1240816,259.264238 C61.9723969,247.170135 64.2095055,235.211816 67.7931092,223.625731 L79.3828358,186.14244 L83.6244125,165 L128,165 Z" id="Fill-11" fill="#1B2834"></path>
                    <path d="M119,182.863889 L80.8056819,177 L78.9902342,186.085884 L77,192.54385 C81.2694485,203.628628 85.678726,219.055992 85.9770281,236 L113.81234,194.118736 L119,182.863889 Z" id="Fill-12" fill="#121B23"></path>
                    <path d="M123.570688,66 L146.366699,71.7778541 L146.366699,76.0168238 C146.366699,76.0168238 153.886935,88.0229373 154.868143,94.1198284 C156.936443,106.96576 134.086313,129.305388 127.434339,165 L83,165 C83,165 100.774677,118.3901 101.934713,113.381688 C101.934713,113.381688 107.344295,88.3419743 117.003422,80.6381688 C117.003422,80.6381688 120.024694,75.7611251 122.730661,74.3489171 C122.730661,74.3489171 125.502513,71.393133 123.570688,66" id="Fill-14" fill="#FFFFFF"></path>
                    <path d="M56,46 L56,99.8636398 L56.0282957,99.8918629 L94.130824,138 C103.897559,128.284224 109.950483,114.857121 109.992926,100.021218 C109.992926,99.9671243 110,99.9153821 110,99.8636398 C110,70.1142214 85.8236758,46 56,46" id="Fill-1" fill="#6F7186"></path>
                    <path d="M15.8675109,61.7588374 C6.08855895,71.5058916 0.0282969432,84.9811469 0,99.8680283 L54,100 L54,99.9717203 L54,46 C39.1110917,46 25.6370306,52.0212097 15.8675109,61.7588374" id="Fill-3" fill="#E6CA85"></path>
                    <g id="Group-7" transform="translate(0.000000, 101.000000)">
                        <mask id="mask-2" fill="white">
                            <use xlink:href="#path-1"></use>
                        </mask>
                        <g id="Clip-6"></g>
                        <path d="M53.84696,0.525066667 L53.81876,0.525066667 L0.00611,0.3944 C0.00611,0.4294 -0.00094,0.462066667 -0.00094,0.497066667 C-0.00094,30.0090667 24.09596,53.9327333 53.81876,53.9327333 C68.65666,53.9327333 82.08691,47.9710667 91.82061,38.3320667 L53.84696,0.525066667 Z" id="Fill-5" fill="#00A1DF" mask="url(#mask-2)"></path>
                    </g>
                    <path d="M124.006672,118 L111,100.866063 L126.79099,88.6895415 C130.364507,85.9351608 135.481505,86.6202367 138.216934,90.2215778 L141.322518,94.3109181 C144.057947,97.9122592 143.375836,103.066752 139.802318,105.823479 L124.006672,118 Z" id="Fill-15" fill="#FFFFFF"></path>
                    <path d="M55.9342003,156 L97.5729519,136.409789 L123,115.940065 L113.094148,103 L92.3204161,126.16674 L54.5859558,149.735811 L56.0629389,151.518228 L48.4626788,151.852723 C45.2137841,151.99541 36.4595579,150.750993 33,154.33454 L48.2449935,156 L55.9342003,156 Z" id="Fill-16" fill="#FDF9ED"></path>
                    <path d="M153.829674,314 L140.219442,319.723345 L137.239048,328.541535 L129.446339,328.706405 C125.96569,328.779418 122.499132,329.540176 119.417747,331.165323 C116.42561,332.743364 115.399265,334.51925 115,340 L139.944654,340 L161,331.14177 L153.829674,314 Z" id="Fill-24" fill="#121B23"></path>
                    <path d="M128.309592,165 C128.309592,165 131.015814,178.047017 128.309592,186.487967 C125.605723,194.931254 121.741709,199.852805 121.741709,199.852805 L124.238493,224.124042 C126.012833,241.407893 130.62753,258.289793 137.894324,274.096711 L156,315.30513 L140.132126,320 L107.226946,259.093693 C105.572621,256.137491 104.174798,253.048085 103.054658,249.855854 L80,184.235178 L83.871074,165 L128.309592,165 Z" id="Fill-17" fill="#1B2834"></path>
                    <polygon id="Fill-19" fill="#121B23" points="81 170 130 170 130 163 81 163"></polygon>
                    <path d="M53.9307596,152.935755 L48.964191,148.251329 C48.0984377,147.821792 47.7507549,146.789554 48.1905391,145.941725 C48.6280208,145.096144 49.6871871,144.756563 50.5552429,145.186099 L57.0345771,148.393009 C57.9026329,148.822546 58.2480132,149.857032 57.8105315,150.702613 C57.3684447,151.550442 54.7988154,153.363043 53.9307596,152.935755" id="Fill-20" fill="#FDF9ED"></path>
                    <path d="M72,321 L57.2157607,321 L51.0507587,327.752566 L41.9114964,327.752566 C33.9252305,327.752566 26.6166443,332.099202 23,339 L72,339 L72,321 Z" id="Fill-21" fill="#121B23"></path>
                    <polygon id="Fill-23" fill="#080C10" points="22 343 74 343 74 339 22 339"></polygon>
                    <polygon id="Fill-26" fill="#080C10" points="114 343 142 343 142 339 114 339"></polygon>
                    <polygon id="Fill-27" fill="#080C10" points="163 333.985794 141.725059 343 140 339.014206 161.274941 330"></polygon>
                    <g id="Group-16" transform="translate(135.316324, 40.464170) rotate(6.000000) translate(-135.316324, -40.464170) translate(108.316324, 4.964170)"></g>
                </g>
                <g id="artboard" transform="translate(314.000000, 0.000000)">
                    <polygon id="Fill-22" fill="#27394A" points="83 93 107 93 107 89 83 89"></polygon>
                    <polygon id="Fill-24" fill="#27394A" points="107 72 131 72 131 68 107 68"></polygon>
                    <polygon id="Fill-25" fill="#27394A" points="128 51 152 51 152 47 128 47"></polygon>
                    <polygon id="Fill-26" fill="#27394A" points="152 29 176 29 176 25 152 25"></polygon>
                    <polygon id="Fill-27" fill="#27394A" points="186 7 210 7 210 3 186 3"></polygon>
                    <polygon id="Fill-28" fill="#27394A" points="0 113 6 113 6 107 0 107"></polygon>
                    <polygon id="Fill-29" fill="#27394A" points="30 113 36 113 36 107 30 107"></polygon>
                    <polygon id="Fill-30" fill="#27394A" points="60 113 66 113 66 107 60 107"></polygon>
                    <polygon id="Fill-31" fill="#27394A" points="90 113 96 113 96 107 90 107"></polygon>
                    <polygon id="Fill-32" fill="#27394A" points="120 113 126 113 126 107 120 107"></polygon>
                    <polygon id="Fill-33" fill="#27394A" points="150 113 156 113 156 107 150 107"></polygon>
                    <polygon id="Fill-34" fill="#27394A" points="180 113 186 113 186 107 180 107"></polygon>
                    <polygon id="Fill-35" fill="#27394A" points="210 113 216 113 216 107 210 107"></polygon>
                    <path d="M150,26.5 C150,28.984375 147.978986,31 145.479516,31 L21.5152546,31 C19.0210144,31 17,28.984375 17,26.5 C17,24.015625 19.0210144,22 21.5152546,22 L145.479516,22 C147.978986,22 150,24.015625 150,26.5" id="Fill-4" fill="#6F7186"></path>
                    <path d="M178.479516,9 L21.5152546,9 C19.0210144,9 17,6.984375 17,4.5 C17,2.015625 19.0210144,0 21.5152546,0 L178.479516,0 C180.978986,0 183,2.015625 183,4.5 C183,6.984375 180.978986,9 178.479516,9 Z" id="Fill-4" fill="#E6CA85"></path>
                    <path d="M125,47.5 C125,49.984375 122.979281,52 120.48279,52 L21.5145955,52 C19.0207194,52 17,49.984375 17,47.5 C17,45.015625 19.0207194,43 21.5145955,43 L120.48279,43 C122.979281,43 125,45.015625 125,47.5" id="Fill-6" fill="#6F7186"></path>
                    <path d="M104,69.5 C104,71.984375 101.977718,74 99.4792963,74 L21.5207037,74 C19.0248985,74 17,71.984375 17,69.5 C17,67.0130208 19.0248985,65 21.5207037,65 L99.4792963,65 C101.977718,65 104,67.0130208 104,69.5" id="Fill-8" fill="#6F7186"></path>
                    <path d="M78,90.5 C78,92.984375 75.9722628,95 73.4671024,95 L21.5328976,95 C19.0303604,95 17,92.984375 17,90.5 C17,88.015625 19.0303604,86 21.5328976,86 L73.4671024,86 C75.9722628,86 78,88.015625 78,90.5" id="Fill-10" fill="#6F7186"></path>
                    <path d="M5,5 C5,6.10478655 4.10478655,7 3.00258732,7 C1.89780078,7 1,6.10478655 1,5 C1,3.89521345 1.89780078,3 3.00258732,3 C4.10478655,3 5,3.89521345 5,5" id="Fill-12" fill="#27394A"></path>
                    <path d="M5,27 C5,28.1047865 4.10478655,29 3.00258732,29 C1.89780078,29 1,28.1047865 1,27 C1,25.8952135 1.89780078,25 3.00258732,25 C4.10478655,25 5,25.8952135 5,27" id="Fill-14" fill="#27394A"></path>
                    <path d="M5,48 C5,49.1047865 4.10478655,50 3.00258732,50 C1.89780078,50 1,49.1047865 1,48 C1,46.8952135 1.89780078,46 3.00258732,46 C4.10478655,46 5,46.8952135 5,48" id="Fill-16" fill="#27394A"></path>
                    <path d="M5,70 C5,71.1047865 4.10478655,72 3.00258732,72 C1.89780078,72 1,71.1047865 1,70 C1,68.8952135 1.89780078,68 3.00258732,68 C4.10478655,68 5,68.8952135 5,70" id="Fill-18" fill="#27394A"></path>
                    <path d="M5,92 C5,93.1047865 4.10478655,94 3.00258732,94 C1.89780078,94 1,93.1047865 1,92 C1,90.8952135 1.89780078,90 3.00258732,90 C4.10478655,90 5,90.8952135 5,92" id="Fill-20" fill="#27394A"></path>
                </g>
                <g id="Group-25" transform="translate(387.000000, 4.000000)">
                    <polygon id="Fill-8" fill="#FDF9ED" points="51.3939394 346.443548 61.0909091 346.443548 61.0909091 333.827957 51.3939394 333.827957"></polygon>
                    <path d="M46.7402745,347.413978 C43.1256492,347.413978 40.1824373,350.810904 39.7575758,355.177419 C40.9837306,352.555271 43.235717,350.772837 45.8421216,350.772837 L56.3161696,350.772837 L57.2121212,347.413978 L46.7402745,347.413978 Z" id="Fill-2" fill="#E66333"></path>
                    <path d="M63.030303,359.05914 L46.5454545,359.05914 L46.5454545,346.823562 C46.5454545,345.539674 47.6258049,344.502688 48.9633814,344.502688 L60.6123761,344.502688 C61.9499527,344.502688 63.030303,345.539674 63.030303,346.823562 L63.030303,359.05914 Z" id="Fill-4" fill="#1B2834"></path>
                    <path d="M63.2228477,361 L41.5066363,361 C40.5403411,361 39.7575758,360.348136 39.7575758,359.545276 C39.7575758,358.738732 40.5403411,358.08871 41.5066363,358.08871 L63.2228477,358.08871 C64.1891428,358.08871 64.969697,358.738732 64.969697,359.545276 C64.969697,360.348136 64.1891428,361 63.2228477,361" id="Fill-6" fill="#1B2834"></path>
                    <polygon id="Fill-8" fill="#FDF9ED" points="38.7878788 346.443548 48.4848485 346.443548 48.4848485 333.827957 38.7878788 333.827957"></polygon>
                    <path d="M74.8259586,170.852368 C74.8259586,170.852368 86.445392,170.0941 76.3844453,214.22798 C70.2219479,241.261687 69.1814683,257.460438 69.0095436,261.611899 C68.9715862,262.466348 68.9157664,263.29843 68.8331533,264.150643 L61.7574453,338.680108 L46.5454545,338.680108 L49.3252767,262.289643 L49.3252767,162.061828 L74.8259586,170.852368 Z" id="Fill-10" fill="#00A1DF"></path>
                    <path d="M27.064122,170.852368 C27.064122,170.852368 15.2984244,170.0941 25.48406,214.22798 C31.7229313,241.261687 32.776306,257.460438 32.9503615,261.611899 C32.9887893,262.466348 33.0453008,263.29843 33.1289379,264.150643 L40.2923376,338.680108 L50.95267,338.680108 C50.95267,338.680108 53.5273346,279.828224 53.3216327,260.726135 C53.0548983,235.671977 49.024497,162.061828 49.024497,162.061828 L27.064122,170.852368 Z" id="Fill-11" fill="#314659"></path>
                    <path d="M25.030156,170.852368 C25.030156,170.852368 13.4570696,170.0941 23.478184,214.22798 C29.6149215,241.261687 30.6510518,257.460438 30.8222578,261.611899 C30.8578331,262.466348 30.9134195,263.29843 30.9979108,264.150643 L38.0440416,338.680108 L49.694949,338.680108 L50.4242424,262.289643 L50.4242424,162.061828 L25.030156,170.852368 Z" id="Fill-12" fill="#00A1DF"></path>
                    <path d="M94.030303,187.233871 L94.030303,194.397488 C94.030303,199.260157 91.9431883,203.912454 88.2633955,207.249923 L83.5810584,211.494624 C82.8337073,207.815299 84.0390388,204.019831 86.7960353,201.368263 L88.2087112,200.009608 L88.3613714,196.555996 L85.5656402,199.873743 C85.0712037,200.572793 83.9342274,200.239703 83.9296704,199.393831 L83.8795432,187.233871 L94.030303,187.233871 Z" id="Fill-13" fill="#FDF9ED"></path>
                    <path d="M44.4947663,65.7109067 C47.132286,67.6091269 48.3813565,69.3106859 48.2419779,70.8155838 C48.1025992,72.3204818 49.3188761,71.5153414 51.8908083,68.4001627 L48.8041309,62.7851851 L44.4947663,65.7109067 Z" id="Path" fill="#FDF9ED"></path>
                    <path d="M44.6060606,71.6236211 L31.4947117,68.3286838 C24.589797,66.5909886 19.2279309,61.2865629 17.5410774,54.5273744 L10.7092063,27.172043 L1.93939394,27.172043 L6.25810426,64.2183664 C6.81506267,69.0014837 9.08170081,73.4392897 12.663126,76.7542773 L39.8194139,101.895161 L44.6060606,71.6236211 Z" id="Fill-14" fill="#E6CA85"></path>
                    <path d="M78.7086547,78.5456989 L85.4616343,83.9147529 C91.4773701,88.6994813 95,96.0867063 95,103.91667 L93.8548726,190.145161 L82.996884,190.145161 L79.8297889,144.527305 L78.7086547,115.351474 L78.7086547,78.5456989 Z" id="Fill-15" fill="#E6CA85"></path>
                    <path d="M79.5151515,116.80032 C79.5151515,116.80032 67.2765236,141.568573 78.0584368,173.706989 L20.3636364,173.706989 C20.3636364,173.706989 34.9155592,136.610423 31.1748047,92.3466797 C35.8309006,81.6238377 40.2019943,74.8214288 44.2880859,71.9394531 C48.9543815,68.6482517 58.8397982,68.6482517 73.9443359,71.9394531 C80.8076172,80.3502604 84.2392578,86.6988932 84.2392578,90.9853516 C84.2392578,95.2718099 82.6645557,103.876799 79.5151515,116.80032 Z" id="Fill-16" fill="#E6CA85"></path>
                    <path d="M1.48322781,23.4127933 L0.0573636938,16.7693107 C-0.146011908,15.8256217 0.200397084,14.8464889 0.953557281,14.2328694 L4.41317741,11.4150936 L7.04365086,11.4150936 C7.04365086,11.4150936 5.68259876,4.24217042 6.21450418,0 L7.04365086,0 L11.6363636,15.2319393 L11.6363636,23.9931842 L10.1233386,27.172043 L2.8509846,27.172043 L1.48322781,23.4127933 Z" id="Fill-19" fill="#FDF9ED"></path>
                    <path d="M44.6060606,360.02957 L27.1515152,360.02957 L27.1515152,356.368593 C27.1515152,351.425136 31.0139933,347.413978 35.779104,347.413978 L44.6060606,347.413978 L44.6060606,360.02957 Z" id="Fill-20" fill="#121B23"></path>
                    <path d="M34.1342139,347.413978 C30.5195886,347.413978 27.5763767,350.810904 27.1515152,355.177419 C28.37767,352.555271 30.6296564,350.772837 33.236061,350.772837 L43.710109,350.772837 L44.6060606,347.413978 L34.1342139,347.413978 Z" id="Fill-21" fill="#243544"></path>
                    <path d="M49.4545455,359.05914 L32.969697,359.05914 L32.969697,346.823562 C32.969697,345.539674 34.0500473,344.502688 35.3876239,344.502688 L47.0366186,344.502688 C48.3741951,344.502688 49.4545455,345.539674 49.4545455,346.823562 L49.4545455,359.05914 Z" id="Fill-23" fill="#1B2834"></path>
                    <path d="M49.6470901,361 L27.9308787,361 C26.9645836,361 26.1818182,360.348136 26.1818182,359.545276 C26.1818182,358.738732 26.9645836,358.08871 27.9308787,358.08871 L49.6470901,358.08871 C50.6133852,358.08871 51.3939394,358.738732 51.3939394,359.545276 C51.3939394,360.348136 50.6133852,361 49.6470901,361" id="Fill-24" fill="#1B2834"></path>
                </g>
                <polygon id="Fill-5" fill="#FFFFFF" points="539.331313 246 539.484848 246.719192 546.058586 277.482828 503 292.8"></polygon>
                <polygon id="Fill-4" fill="#FFFFFF" points="57.7656566 261.89697 70.0351515 246.89697 0 228"></polygon>
                <polygon id="Fill-1" fill="#E6CA85" points="308 209.983838 339.882828 214.133333 313.490909 202"></polygon>
                <polygon id="Fill-2" fill="#E6CA85" points="84 323.889293 84.0808081 327.105455 110.880404 299"></polygon>
                <polygon id="Fill-3" fill="#90A3AA" points="239 261 257.957576 309.226263 276.914747 305.214141"></polygon>
                <g id="tête" transform="translate(448.976562, 53.075195) rotate(12.000000) translate(-448.976562, -53.075195) translate(419.976562, 21.575195)">
                    <path d="M19.6993058,13.1336255 C10.0767504,11.9086242 7.47700134,19.328681 6.09334424,26.2771891 C5.58401242,28.8245768 7.33100395,31.008052 7.20325623,32.0092386 C7.04896353,33.2137378 5.94402872,34.5070795 6.62258478,37.9309325 C7.21486966,40.9430348 8.09583119,44.2558347 9.24556066,48.3494235 C9.92411672,50.7464624 10.932826,52.294372 12.1854172,52.6804951 C15.0920926,53.5791711 19.5367178,52.7983823 25.5441786,47.5259219 C30.8664472,42.8292293 32.7892992,34.1141223 33,33.2940377 L30.7718807,20.2068549 C30.7718807,20.2068549 24.822487,13.7845676 19.6993058,13.1336255" id="Fill-7" fill="#FDF9ED"></path>
                    <path d="M22.1694485,14.1298208 C22.0994485,14.0968208 22.0454485,14.0688208 22.0314485,14.0518208 C21.9534485,13.9618208 22.0284485,13.9898208 22.1694485,14.1298208" id="Fill-9" fill="#DAAF98"></path>
                    <g id="Group-13" transform="translate(0.000000, 0.000000)"></g>
                    <path d="M55.7876021,36.422125 C53.7377509,35.8034671 58.0424384,34.5661512 56.6075426,32.0915195 C55.1726467,29.6168877 51.6878997,29.6168877 52.9178104,28.3795718 C54.1477211,27.142256 55.3776318,25.4925015 53.3277807,24.8738435 C51.2779295,24.2551856 50.6629741,21.5743345 51.8928848,20.7494573 C53.1227955,19.92458 53.942736,16.0064131 52.0978699,15.3877552 C50.2530039,14.7690972 47.5881973,14.1504393 48.2031527,13.5317813 C48.818108,12.9131234 47.9128937,11.0901447 46.008992,12.0008092 C44.1034503,12.9131234 46.973242,8.58251784 44.5134205,7.55142128 C42.0535991,6.52032471 40.8236884,8.58251784 39.7987628,7.55142128 C38.7738372,6.52032471 39.5937777,4.04569296 37.5439265,3.63325434 C35.4940753,3.22081571 36.3140158,5.69544746 33.6492092,4.45813159 C30.9844027,3.22081571 32.9030634,2.51472079 31.1893878,1.3648419 C29.3445217,0.127526023 29.5495068,3.0145964 27.4996557,2.60215777 C25.4498045,2.18971915 28.5934562,0.785778069 24.0149086,0.127526023 C22.5800128,-0.0786932897 19.7102211,3.0145964 18.2753253,3.0145964 C16.8404295,3.0145964 16.8404295,2.18971915 14.5855932,2.60215777 C13.1097003,2.87271751 13.1211795,4.43503502 12.9457122,5.07678953 C10.7941884,4.90851457 7.25040565,5.22361768 7.41111399,6.52032471 C8.02606935,11.4695882 4.3363372,8.99495646 2.49147113,11.0571496 C0.64660506,13.1193427 0.44161994,12.7069041 1.67153065,14.9753165 C2.90144137,17.243729 -0.97195744,17.7864982 0.236634821,19.3059221 C1.87651577,21.3681152 0.64660506,22.8116504 3.10642649,24.8738435 C5.56624792,26.9360367 8.02606935,24.4614049 8.23105446,24.4614049 C9.88405446,24.4614049 5.97621815,28.3795718 8.02606935,29.823107 C10.0759205,31.2666422 10.6515187,32.7101774 8.02606935,32.7101774 C6.18120327,32.7101774 5.56624792,36.2159057 7.82108423,37.6594409 C10.1743134,39.1656668 8.6410247,40.5465113 7.61609911,40.9589499 C6.59117351,41.3713885 5.56624792,44.2584589 7.00114375,44.4646782 C8.43603958,44.6708975 10.0759205,44.6708975 9.6659503,46.5268714 C9.25598006,48.3828452 10.2809057,50.4450383 12.1257717,50.238819 C13.9706378,50.0325997 15.4055336,47.1455293 16.2254741,49.8263804 C17.0454146,52.5072314 16.2254741,53.7445473 18.6852955,53.9507666 C20.8860158,54.1355391 20.7351467,50.8574769 21.7600723,53.1258894 C22.7849979,55.3943018 17.7194057,58.3638599 21.9650574,59.3124687 C22.9227479,59.5269368 25.2071021,58.1790874 26.0647598,58.2813722 C26.7535098,58.7927961 25.6383908,62.1368484 27.2946705,62.1995391 C32.8292687,62.4057584 32.6242836,56.4253984 33.8541943,57.4564949 C35.0841051,58.4875915 35.4940753,61.1684426 39.1838074,58.6938108 C41.9962033,56.8064917 38.9788223,53.538328 41.4386437,55.1880825 C43.8984652,56.837837 46.973242,57.8689336 47.1782271,56.2191791 C47.3832122,54.5694245 46.8223729,51.603166 48.6131229,52.0947928 C53.1227955,53.3321087 55.223483,49.2968092 53.5327658,47.3517486 C50.6629741,44.0522396 54.7626765,43.4335817 56.6075426,42.4024851 C58.4524086,41.3713885 57.8374533,37.040783 55.7876021,36.422125" id="Fill-11" fill="#1B2834"></path>
                </g>
            </g>
        </g>
    </g>
</svg>