<?xml version="1.0" encoding="UTF-8"?>
<svg width="490px" height="558px" viewBox="0 0 490 558" version="1.1" xmlns="http://www.w3.org/2000/svg" xmlns:xlink="http://www.w3.org/1999/xlink">
    <!-- Generator: Sketch 50.2 (55047) - http://www.bohemiancoding.com/sketch -->
    <title>Artboard</title>
    <desc>Created with Sketch.</desc>
    <defs>
        <polygon id="path-1" points="0.33922666 0.415725333 59.3676192 0.415725333 59.3676192 101.886863 0.33922666 101.886863"></polygon>
        <polygon id="path-3" points="0.207272787 0.259036026 36.2745424 0.259036026 36.2745424 63.4851094 0.207272787 63.4851094"></polygon>
    </defs>
    <g id="Artboard" stroke="none" stroke-width="1" fill="none" fill-rule="evenodd">
        <g id="Group" transform="translate(46.000000, 59.000000)">
            <g id="plante" transform="translate(52.000000, 448.000000) scale(-1, 1) rotate(-270.000000) translate(-52.000000, -448.000000) translate(5.000000, 396.000000)">
                <g id="Group-3" transform="translate(29.899469, 0.000000)">
                    <mask id="mask-2" fill="white">
                        <use xlink:href="#path-1"></use>
                    </mask>
                    <g id="Clip-2"></g>
                    <path d="M15.7548137,6.36666494 C13.4401707,3.05434526 9.88694152,-0.469207835 6.00080729,0.615048777 C2.43300652,1.61054241 1.01283574,5.88801901 0.611556237,9.57786224 C-1.27266402,26.9237209 6.89079592,43.8010458 16.7501662,58.180648 C27.7875944,74.2804542 41.2461505,88.709494 56.5317612,100.827326 L59.3676192,101.886863 C50.3029617,80.7073431 41.5667257,60.2941057 32.5031891,39.1134618 C27.6699007,27.8192157 22.7872931,16.4339595 15.7548137,6.36666494 Z" id="Fill-1" fill="#91B8A5" mask="url(#mask-2)"></path>
                </g>
                <path d="M84.5784444,96.3143865 C61.4659497,73.5362362 45.5089287,42.1610337 38.1825513,10.8161182 C37.9205737,9.69661685 36.222779,10.31582 36.4915028,11.4308343 C40.3806894,27.4987071 46.3803134,42.9642029 54.4543951,57.4055457 C62.6229237,72.0185155 72.997461,84.3464911 84.5154798,96.3895434 C84.5582058,96.4344132 84.6234191,96.3592563 84.5784444,96.3143865" id="Fill-4" fill="#7FA794"></path>
                <path d="M32.196998,24.9252631 C35.0373975,28.7144244 38.6722596,31.749004 42.9742021,33.5483913 C43.6289913,33.8223626 44.0927072,32.8147057 43.4412702,32.5093903 C39.3583356,30.6008789 35.8396818,27.9482337 33.0350388,24.306506 C32.6238401,23.7748161 31.7880341,24.3796424 32.196998,24.9252631" id="Fill-6" fill="#7FA794"></path>
                <path d="M38.6729407,39.6126796 C41.3739037,43.5130823 45.4565699,48.4141003 49.9468215,50.365411 C50.2420087,50.4952026 50.4395571,50.1302331 50.2340614,49.9227885 C48.5446823,48.217749 46.3671089,46.9508946 44.5596549,45.3445854 C42.5160512,43.5297223 40.6609131,41.5251637 38.8614064,39.4806694 C38.7660383,39.3719551 38.5877906,39.489544 38.6729407,39.6126796" id="Fill-8" fill="#7FA794"></path>
                <path d="M49.6238715,58.6929492 C51.7888449,61.3912528 54.744485,63.4125034 57.8157519,64.9570647 C58.2474251,65.1750427 58.5689777,64.4869808 58.1328996,64.27781 C55.0131796,62.7915963 52.4363547,60.7417223 49.8694407,58.4650631 C49.7284862,58.3406615 49.5027387,58.5421261 49.6238715,58.6929492" id="Fill-10" fill="#7FA794"></path>
                <path d="M46.7565111,21.670215 C46.6281947,27.0847086 46.6047719,31.8597826 45.2431928,37.1297118 C44.9987807,38.0749407 46.3532311,38.3184761 46.6078271,37.4010481 C47.9592223,32.5192188 48.7219917,26.4953305 47.5620526,21.4789451 C47.4378098,20.9429447 46.7677133,21.2009366 46.7565111,21.670215" id="Fill-12" fill="#7FA794"></path>
                <path d="M53.242671,35.3314854 C54.5040569,40.8183254 54.8516433,46.3162791 53.8522065,51.8886946 C53.715187,52.6544294 54.8113434,52.8733696 54.932243,52.105412 C55.8389901,46.3573998 55.5437935,40.6349491 53.5973099,35.1892299 C53.5066352,34.9358372 53.1842362,35.0769814 53.242671,35.3314854" id="Fill-14" fill="#7FA794"></path>
                <path d="M62.0009311,51.7293403 C63.7426691,58.4450477 65.0775939,64.2513715 64.3929031,71.2608277 C64.2806405,72.4088118 66.030159,72.7374504 66.1435331,71.5838389 C66.7915441,64.940162 66.0946266,57.2194058 62.7645393,51.323044 C62.5044457,50.8615994 61.885334,51.2836524 62.0009311,51.7293403" id="Fill-16" fill="#7FA794"></path>
                <g id="Group-20" transform="translate(0.000000, 48.201667)" fill="#91B8A5">
                    <path d="M78.943242,46.3152961 C65.049127,35.3234828 51.1561373,24.3305516 37.2620223,13.3387382 C32.3586804,9.45868287 27.3844387,5.5372671 21.6483052,3.02434161 C15.9121717,0.513651809 9.23070714,-0.468937832 3.35727555,1.70863284 C2.53123631,2.01492358 1.70744786,2.39499238 1.09298271,3.02322376 C-0.817936401,4.98057809 0.109388302,8.23240205 1.34957255,10.6637245 C11.1776389,29.9354485 32.2191315,40.6768636 52.583137,48.2625898 C64.7283897,52.7865264 77.88087,56.6889387 90.5134183,53.7601732 C90.5134183,53.7601732 83.4144326,49.8532895 78.943242,46.3152961" id="Fill-18"></path>
                </g>
                <path d="M5.99163918,55.6268408 C15.7564445,64.8636152 27.1631696,71.9109486 38.7759792,78.5515748 C51.645567,85.911847 64.5770927,93.1636638 77.3712287,100.654986 C78.3734979,101.242452 79.3453613,99.6856671 78.3284521,99.1241851 C65.866529,92.241794 53.5194726,85.1515303 41.1420104,78.1177537 C29.0776165,71.2624765 17.0312409,64.3620095 6.74840878,54.9184923 C6.26304019,54.472244 5.50289215,55.1647761 5.99163918,55.6268408" id="Fill-21" fill="#7FA794"></path>
                <path d="M8.92298911,66.1944458 C13.3005738,67.5994582 17.7175962,69.1200108 22.2247619,70.0879324 C23.2929602,70.3179228 23.8248057,68.7973702 22.7419592,68.4943497 C18.2843723,67.2506576 13.6329773,66.5356164 9.07285237,65.7344651 C8.76523831,65.679965 8.6086143,66.0941657 8.92298911,66.1944458" id="Fill-23" fill="#7FA794"></path>
                <path d="M25.2855921,79.1306336 C28.2677032,79.5022528 31.2498142,79.8759365 34.2330557,80.2475558 C37.1733404,80.6140136 40.2255389,81.2302821 43.197476,81.0258916 C43.7706111,80.9866651 44.0125261,80.2475558 43.3839993,80.064843 C40.6607598,79.2772167 37.6910837,79.2214738 34.8615825,78.9757922 C31.687296,78.6991424 28.511879,78.4235248 25.3364621,78.1479072 C24.6378477,78.0870029 24.6084562,79.045987 25.2855921,79.1306336" id="Fill-25" fill="#7FA794"></path>
                <path d="M46.3455332,90.9846222 C48.9908689,90.75144 51.5846944,90.4263395 54.2529235,90.5559927 C56.4438246,90.6624244 58.6484617,91.4355057 60.803878,91.2671501 C61.3945285,91.2207072 61.3521757,90.5753439 60.9973275,90.3353887 C59.1784446,89.1065861 55.7638897,89.0688512 53.5214784,89.1094888 C50.9551251,89.1539966 48.4276906,89.4965132 46.1223223,90.4621392 C45.7651848,90.6121112 45.9952638,91.0146166 46.3455332,90.9846222" id="Fill-27" fill="#7FA794"></path>
                <path d="M18.9989437,56.1542931 C20.1164725,58.8006762 21.1058341,61.4920084 21.8298669,64.2743627 C22.3830099,66.3993353 22.5201714,68.7198368 23.4847989,70.6897346 C23.616339,70.958306 23.9985924,70.8414381 24.0266992,70.5706193 C24.2830338,68.0647024 23.210476,65.3969685 22.4695791,63.0214043 C21.6983268,60.5469519 20.8011557,58.1286859 19.7791902,55.7463793 C19.5554596,55.2249688 18.7808344,55.6351301 18.9989437,56.1542931" id="Fill-29" fill="#7FA794"></path>
                <path d="M32.829945,66.5955805 C34.8000354,70.0972034 36.519921,74.2043786 39.0023872,77.3345661 C39.1699156,77.5461717 39.4549315,77.2974225 39.3613767,77.0711846 C37.81881,73.3647094 35.0915783,69.9159879 32.9942098,66.5066611 C32.9311147,66.404235 32.7690256,66.486401 32.829945,66.5955805" id="Fill-31" fill="#7FA794"></path>
                <path d="M47.4538549,75.1592827 C48.4764243,77.2417001 49.5924428,79.3027073 50.5323043,81.4268181 C51.355086,83.2849925 51.9028911,85.3843126 53.3658527,86.8007621 C53.6236433,87.0497958 54.008181,86.839075 53.9609194,86.4762295 C53.6891651,84.4084612 52.3422092,82.7407243 51.3754944,80.9648099 C50.2659207,78.9285934 49.2777234,76.8067363 48.2325973,74.7333337 C47.968362,74.2093488 47.1949902,74.6319172 47.4538549,75.1592827" id="Fill-33" fill="#7FA794"></path>
                <g id="Group-37" transform="translate(73.654790, 13.145909)" fill="#91B8A5">
                    <path d="M14.4552185,3.22928985 C12.5063241,0.719653627 8.84902749,-0.773776431 6.00622808,0.675861317 C3.41413046,1.99749077 2.41812971,5.1168507 1.83504954,7.94426189 C-3.41947833,33.4583354 5.92795468,62.8598186 14.1693504,87.5878763 L16.6809058,88.7264763 C19.0597368,63.229246 21.4294925,37.4277153 17.5226286,12.1157601 C17.0393753,8.98629429 16.4041129,5.7378032 14.4552185,3.22928985" id="Fill-35"></path>
                </g>
                <path d="M88.2379166,92.5243018 C85.2602862,69.7601993 84.4013335,46.8962887 83.5488798,23.9673346 C83.5207174,23.2047556 82.3606439,23.1587766 82.4072201,23.9112626 C83.8153393,46.7718089 84.1760344,69.9822444 87.8772215,92.603924 C87.9172987,92.8495193 88.2693285,92.7654113 88.2379166,92.5243018" id="Fill-38" fill="#7FA794"></path>
                <path d="M77.3708967,31.5277962 C78.2191489,33.1935242 79.0674011,34.8592522 79.9156533,36.5249802 C80.6585743,37.981232 81.2569451,39.5943109 82.4099854,40.7705142 C82.701327,41.0684857 83.2044514,40.8052402 83.1271339,40.3963695 C82.8212252,38.7866512 81.8340255,37.3572841 81.0664525,35.9245564 C80.184584,34.2767515 79.3015949,32.6278264 78.4197264,30.9811416 C78.0600316,30.3101456 77.0246484,30.850079 77.3708967,31.5277962" id="Fill-40" fill="#7FA794"></path>
                <path d="M78.055971,44.2189027 C79.431306,47.5936615 80.5794212,51.6361939 82.648432,54.6433508 C82.816662,54.8891438 83.1618612,54.7662473 83.1334588,54.4693381 C82.7915367,50.82921 80.4789202,46.9759164 78.5508294,43.962234 C78.3563817,43.6577118 77.920513,43.887191 78.055971,44.2189027" id="Fill-42" fill="#7FA794"></path>
                <path d="M79.4909813,60.3560902 C79.6798504,62.3678786 80.6999694,64.4092361 81.3808027,66.3235563 C81.9881241,68.0341788 82.4461597,69.8565065 83.3588383,71.434616 C83.5137787,71.7018324 83.8971716,71.5452261 83.8621121,71.2593922 C83.6099097,69.2355571 82.7379454,67.2128172 82.1193145,65.2612619 C81.5708026,63.5298316 81.207767,61.649461 80.2441956,60.0921593 C79.9987789,59.6946203 79.450267,59.9246015 79.4909813,60.3560902" id="Fill-44" fill="#7FA794"></path>
                <path d="M89.2331438,39.5244838 C87.6594442,41.35486 86.4247626,43.3357239 85.4470785,45.5607122 C84.7099878,47.2350271 83.5376418,49.6907633 83.9499314,51.5478928 C84.0286711,51.9023749 84.4683008,51.9525375 84.6629628,51.6760861 C85.7139185,50.1857006 85.8998316,47.8224865 86.5680251,46.0890912 C87.3969787,43.9332157 88.485117,41.8642887 89.6607439,39.8845395 C89.8171296,39.62035 89.4496778,39.273671 89.2331438,39.5244838" id="Fill-46" fill="#7FA794"></path>
                <path d="M90.0448959,57.8368636 C89.3184373,60.1131246 88.7135748,62.3950735 88.1378122,64.7213873 C87.6264851,66.7815117 86.8407874,68.9394664 86.7815483,71.0814952 C86.7701162,71.5126311 87.3677038,71.7890586 87.5662068,71.3499597 C88.4880505,69.3159993 88.7395569,66.8713791 89.203077,64.6690595 C89.6780291,62.4155497 90.0978993,60.1938915 90.4252734,57.9096675 C90.4595697,57.6639542 90.1145279,57.6173141 90.0448959,57.8368636" id="Fill-48" fill="#7FA794"></path>
            </g>
            <path d="M198.861585,215.278162 L255.544445,193.537358 L274.388454,159.827896 L279.945708,196.510629 C276.037111,202.838404 272.726091,206.583401 270.012648,207.74562 C265.942483,209.488949 230.343101,222.010522 206.687234,222.010522 C190.916656,222.010522 188.308107,219.766402 198.861585,215.278162 Z" id="Path-22" fill="#DBC9AF"></path>
            <g id="plante" transform="translate(230.720404, 248.085481) rotate(146.000000) translate(-230.720404, -248.085481) translate(201.720404, 215.085481)">
                <g id="Group-3" transform="translate(18.269043, 0.000000)">
                    <mask id="mask-4" fill="white">
                        <use xlink:href="#path-3"></use>
                    </mask>
                    <g id="Clip-2"></g>
                    <path d="M9.62643716,3.96703173 C8.21215416,1.90314469 6.04107565,-0.292360661 3.66658696,0.3832333 C1.48660497,1.00351957 0.618858456,3.66879025 0.37367041,5.96791001 C-0.777617592,16.7760132 4.21038391,27.2921758 10.2346131,36.2520219 C16.9786541,46.2837171 25.202042,55.2743675 34.5417889,62.8249176 L36.2745424,63.4851094 C30.7358951,50.288274 25.3979185,37.568905 19.8599561,24.3713695 C16.9067414,17.3339908 13.9233919,10.2399042 9.62643716,3.96703173 Z" id="Fill-1" fill="#91B8A5" mask="url(#mask-4)"></path>
                </g>
                <path d="M51.6787502,60.0129316 C37.5566551,45.8199992 27.8066661,26.2702938 23.3301351,6.73946005 C23.1700627,6.04190531 22.1326836,6.42772717 22.2968781,7.1224861 C24.6732318,17.1342838 28.3390957,26.7707439 33.2724857,35.7690602 C38.2635843,44.8743163 44.6025885,52.5558058 51.6402779,60.0597614 C51.6663841,60.0877195 51.7062305,60.0408897 51.6787502,60.0129316" id="Fill-4" fill="#7FA794"></path>
                <path d="M19.6728686,15.5307858 C21.408397,17.8917901 23.6293545,19.7826189 26.2579086,20.9038067 C26.657995,21.0745165 26.9413326,20.4466514 26.5432944,20.2564112 C24.0485577,19.0672288 21.8986052,17.4143812 20.1849245,15.1452419 C19.9336757,14.813949 19.4229852,15.1908128 19.6728686,15.5307858" id="Fill-6" fill="#7FA794"></path>
                <path d="M23.6297707,24.6824292 C25.2801012,27.1127474 27.774674,30.1665431 30.5182879,31.3823934 C30.6986519,31.4632657 30.819357,31.2358554 30.6937959,31.1065979 C29.6615589,30.0441977 28.3310276,29.2548282 27.226645,28.2539463 C25.9779712,27.1231156 24.8444528,25.8740869 23.7449262,24.6001744 C23.6866547,24.5324352 23.5777426,24.6057042 23.6297707,24.6824292" id="Fill-8" fill="#7FA794"></path>
                <path d="M30.3209604,36.5712338 C31.6437929,38.252531 33.4497352,39.5119604 35.3263272,40.4743676 C35.5900863,40.6101884 35.7865599,40.181461 35.5201094,40.0511279 C33.6139118,39.1250769 32.0394315,37.8478123 30.471007,36.4292393 C30.3848816,36.3517254 30.2469464,36.4772568 30.3209604,36.5712338" id="Fill-10" fill="#7FA794"></path>
                <path d="M28.5689584,13.5025843 C28.4905551,16.8763237 28.4762434,19.8516444 27.6442973,23.1353065 C27.4949577,23.7242731 28.322548,23.8760186 28.4781101,23.3043746 C29.3038337,20.2625352 29.7698978,16.5090857 29.0611569,13.3834052 C28.9852426,13.0494265 28.5758031,13.2101797 28.5689584,13.5025843" id="Fill-12" fill="#7FA794"></path>
                <path d="M32.5321034,22.0148421 C33.3028299,25.4336601 33.5152106,28.8594029 32.9045391,32.3315425 C32.820818,32.8086674 33.4905867,32.9450877 33.5644583,32.4665778 C34.1184949,28.885025 33.9381252,25.3193994 32.7487933,21.9262036 C32.6933896,21.7683161 32.4963988,21.8562622 32.5321034,22.0148421" id="Fill-14" fill="#7FA794"></path>
                <path d="M37.8835371,32.2322498 C38.9477662,36.4167678 39.7634261,40.0346542 39.3450693,44.4022054 C39.2764751,45.1175076 40.3454582,45.3222804 40.4147316,44.6034718 C40.8106764,40.4638355 40.384849,35.6530775 38.3501136,31.9790889 C38.1911923,31.6915654 37.8129054,31.9545442 37.8835371,32.2322498" id="Fill-16" fill="#7FA794"></path>
                <g id="Group-20" transform="translate(0.000000, 30.034177)" fill="#91B8A5">
                    <path d="M48.2355536,28.8587904 C39.7460323,22.0098557 31.2571987,15.1602245 22.7676775,8.31128985 C19.771659,5.89365004 16.7323196,3.45023878 13.2274525,1.88444959 C9.72258535,0.320053441 5.6401062,-0.292192423 2.05134779,1.06463914 C1.54662491,1.25548711 1.04327731,1.49230576 0.667829502,1.88375306 C-0.499771913,3.10336911 0.0668379609,5.12956163 0.824609904,6.64450447 C6.82971188,18.6526031 19.6863925,25.3455161 32.1291178,30.0721378 C39.5500568,32.8909762 47.5864277,35.3225465 55.305112,33.4976499 C55.305112,33.4976499 50.9675209,31.0632935 48.2355536,28.8587904" id="Fill-18"></path>
                </g>
                <path d="M3.6609851,34.6607595 C9.62743363,40.4161397 16.5971208,44.807292 23.6927288,48.9450274 C31.5562479,53.53117 39.457612,58.0497347 47.2750289,62.7175338 C47.8874311,63.0835805 48.4812547,62.1135568 47.8599074,61.7637006 C40.2454777,57.475323 32.7012335,53.0574211 25.1384108,48.674716 C17.7668777,44.4032328 10.4063541,40.1035921 4.12338314,34.2193917 C3.82681535,33.941337 3.36235303,34.3728497 3.6609851,34.6607595" id="Fill-21" fill="#7FA794"></path>
                <path d="M5.45208568,41.2453725 C8.12685829,42.1208275 10.8257279,43.0682749 13.5796766,43.6713813 C14.2323624,43.8146869 14.5573283,42.8672395 13.8956922,42.6784292 C11.172037,41.9034919 8.329962,41.4579539 5.54365447,40.9587612 C5.35569748,40.9248025 5.25999776,41.1828885 5.45208568,41.2453725" id="Fill-23" fill="#7FA794"></path>
                <path d="M15.4498916,49.3058355 C17.272008,49.5373893 19.0941245,49.7702294 20.9169316,50.0017832 C22.7134914,50.2301209 24.5784324,50.6141143 26.3943324,50.4867597 C26.7445269,50.4623179 26.8923407,50.0017832 26.508301,49.8879359 C24.8443592,49.3971706 23.0298407,49.3624375 21.3009713,49.2093548 C19.3614327,49.0369759 17.4212033,48.8652401 15.480974,48.6935044 C15.0541097,48.6555553 15.036151,49.2530927 15.4498916,49.3058355" id="Fill-25" fill="#7FA794"></path>
                <path d="M28.3178445,56.6919866 C29.9341859,56.5466921 31.5190538,56.3441239 33.1493834,56.42491 C34.4880582,56.491227 35.8351259,56.9729295 37.1521189,56.868028 C37.5130156,56.8390897 37.4871374,56.4369676 37.2703196,56.287453 C36.1589537,55.5217932 34.0726074,55.4982809 32.7024591,55.5236019 C31.1343771,55.5513345 29.5900751,55.7647546 28.1814591,56.3664305 C27.9632426,56.4598771 28.1038244,56.7106759 28.3178445,56.6919866" id="Fill-27" fill="#7FA794"></path>
                <path d="M11.6086513,34.989412 C12.2914788,36.6383578 12.8959942,38.3153112 13.3383895,40.0489799 C13.6763686,41.3730379 13.7601764,42.8189288 14.3495789,44.0463607 C14.4299519,44.2137059 14.6635147,44.1408862 14.6806884,43.9721406 C14.8373128,42.4107185 14.1819632,40.748469 13.7292637,39.2682688 C13.2580165,37.726452 12.709831,36.2196446 12.0853941,34.7352433 C11.9486912,34.4103554 11.4753831,34.6659245 11.6086513,34.989412" id="Fill-29" fill="#7FA794"></path>
                <path d="M20.059609,41.4953172 C21.263365,43.6771579 22.314242,46.2363148 23.8310676,48.1867163 C23.9334301,48.3185666 24.1075792,48.1635724 24.0504158,48.0226049 C23.1078835,45.7131219 21.4415023,43.5642436 20.1599774,41.439912 C20.1214253,41.3760909 20.0223863,41.4272881 20.059609,41.4953172" id="Fill-31" fill="#7FA794"></path>
                <path d="M28.9950463,46.83131 C29.6198522,48.1288521 30.3017569,49.4130537 30.876027,50.7365747 C31.3787595,51.8943923 31.7134769,53.2024664 32.6073693,54.0850478 C32.7648834,54.2402192 32.9998419,54.1089203 32.9709643,53.8828334 C32.8049182,52.5944191 31.9819072,51.555262 31.3912293,50.4487001 C30.7132625,49.1799454 30.1094585,47.8578287 29.4708701,46.5659036 C29.3094182,46.2394117 28.836876,46.5027116 28.9950463,46.83131" id="Fill-33" fill="#7FA794"></path>
                <g id="Group-37" transform="translate(45.004227, 8.191139)" fill="#91B8A5">
                    <path d="M8.83236423,2.01215164 C7.64155931,0.448411971 5.40689398,-0.482135574 3.66989915,0.421125238 C2.08608702,1.24462483 1.47751501,3.18827978 1.12124393,4.95002317 C-2.08935466,20.8476933 3.62207287,39.1675857 8.65769435,54.575494 L10.1922939,55.2849491 C11.6457968,39.3977738 13.0937546,23.3209907 10.7065997,7.54925936 C10.4113244,5.59930748 10.0231691,3.57519165 8.83236423,2.01215164" id="Fill-35"></path>
                </g>
                <path d="M53.9147449,57.6513519 C52.0953662,43.4671727 51.5705327,29.2208035 51.0496702,14.9339062 C51.0324625,14.4587477 50.3236395,14.4300984 50.3520983,14.898968 C51.2124811,29.1432409 51.4328715,43.6055276 53.6943545,57.7009641 C53.7188424,57.8539931 53.9339381,57.8015859 53.9147449,57.6513519" id="Fill-38" fill="#7FA794"></path>
                <path d="M47.274826,19.6447856 C47.7931214,20.682691 48.3114167,21.7205964 48.8297121,22.7585018 C49.2836484,23.6658837 49.6492623,24.6709838 50.3537879,25.4038692 C50.5318022,25.5895335 50.8392191,25.4255068 50.7919768,25.1707419 C50.6050619,24.1677358 50.0018674,23.2771055 49.5328683,22.3843812 C48.9940329,21.3576436 48.4545128,20.330208 47.9156773,19.3041684 C47.6958982,18.8860747 47.0632629,19.222504 47.274826,19.6447856" id="Fill-40" fill="#7FA794"></path>
                <path d="M47.6934171,27.55254 C48.5337683,29.6553324 49.2352846,32.1742108 50.4994825,34.0479527 C50.6022737,34.2011048 50.8131958,34.1245288 50.7958415,33.9395264 C50.5869217,31.6713838 49.1738769,29.2704191 47.9957834,27.3926112 C47.8769728,27.2028652 47.6106502,27.3458524 47.6934171,27.55254" id="Fill-42" fill="#7FA794"></path>
                <path d="M48.5702309,37.6075272 C48.6856328,38.8610608 49.3089414,40.1330188 49.7249412,41.3258205 C50.0960241,42.3916994 50.375891,43.5271811 50.9335518,44.5104919 C51.0282229,44.6769929 51.2624819,44.5794124 51.24106,44.401311 C51.0869604,43.1402712 50.5541766,41.8799137 50.1761835,40.6639111 C49.8410342,39.5850669 49.6192137,38.413419 49.0304565,37.4430734 C48.8805031,37.1953692 48.5453538,37.3386691 48.5702309,37.6075272" id="Fill-44" fill="#7FA794"></path>
                <path d="M54.5228442,24.6274749 C53.5612892,25.7679717 52.8068795,27.0022364 52.2094993,28.3886136 C51.7591253,29.4318695 51.0428036,30.9620243 51.294719,32.1191909 C51.3428301,32.3400666 51.6114508,32.3713226 51.7303923,32.1990673 C52.3725426,31.2704168 52.4861384,29.7979119 52.8944151,28.7178435 C53.4009187,27.3745301 54.0657882,26.0853937 54.7841146,24.8518236 C54.8796687,24.6872086 54.6551499,24.4711949 54.5228442,24.6274749" id="Fill-46" fill="#7FA794"></path>
                <path d="M55.0188375,36.0378118 C54.5749599,37.4561368 54.2053795,38.8780058 53.8535796,40.3275184 C53.5411507,41.6111698 53.0610772,42.9557788 53.0248811,44.2904644 C53.0178959,44.5591027 53.3830313,44.731343 53.5043197,44.4577431 C54.0675806,43.1903942 54.2212549,41.6671656 54.5044729,40.2949132 C54.7946761,38.8907644 55.0512234,37.5064622 55.251254,36.0831755 C55.2722096,35.930073 55.0613837,35.9010118 55.0188375,36.0378118" id="Fill-48" fill="#7FA794"></path>
            </g>
            <path d="M269.095766,164 L258.941423,183.936184 L257.779448,183.936184 L254.873065,191.139721 L257.563669,193.009929 C263.96498,197.660153 270.246629,200.800512 276.408615,202.431004 C278.38839,202.954863 282.015912,199.22271 282.638501,195.901252 C282.713491,195.501191 282.12863,195.360982 282.12863,194.972617 C282.12863,193.676046 285.419087,186.881468 292,174.588882 L269.095766,164 Z" id="Path-13" fill="#FFFFFF"></path>
            <g id="Group-55" transform="translate(157.500000, 357.500000) rotate(-270.000000) translate(-157.500000, -357.500000) translate(16.500000, 296.500000)">
                <polygon id="Fill-19" fill="#FFFFFF" points="0 122 282 122 282 0 0 0"></polygon>
                <polygon id="Fill-26" fill="#F5F7F9" points="24.8621399 106.185185 33.9029181 106.185185 33.9029181 15.8148148 24.8621399 15.8148148"></polygon>
                <polygon id="Fill-27" fill="#F5F7F9" points="40.6835017 106.185185 49.7242798 106.185185 49.7242798 15.8148148 40.6835017 15.8148148"></polygon>
                <polygon id="Fill-28" fill="#F5F7F9" points="56.5048634 106.185185 65.5456416 106.185185 65.5456416 15.8148148 56.5048634 15.8148148"></polygon>
                <polygon id="Fill-29" fill="#F5F7F9" points="72.3262252 106.185185 81.3670034 106.185185 81.3670034 15.8148148 72.3262252 15.8148148"></polygon>
                <polygon id="Fill-30" fill="#F5F7F9" points="88.147587 106.185185 97.1883651 106.185185 97.1883651 15.8148148 88.147587 15.8148148"></polygon>
                <polygon id="Fill-31" fill="#F5F7F9" points="103.968949 106.185185 113.009727 106.185185 113.009727 15.8148148 103.968949 15.8148148"></polygon>
                <polygon id="Fill-32" fill="#F5F7F9" points="119.790311 106.185185 128.831089 106.185185 128.831089 15.8148148 119.790311 15.8148148"></polygon>
                <polygon id="Fill-33" fill="#F5F7F9" points="135.611672 106.185185 144.65245 106.185185 144.65245 15.8148148 135.611672 15.8148148"></polygon>
                <polygon id="Fill-34" fill="#F5F7F9" points="151.433034 106.185185 160.473812 106.185185 160.473812 15.8148148 151.433034 15.8148148"></polygon>
                <polygon id="Fill-35" fill="#F5F7F9" points="167.254396 106.185185 176.295174 106.185185 176.295174 15.8148148 167.254396 15.8148148"></polygon>
                <polygon id="Fill-36" fill="#F5F7F9" points="183.075758 106.185185 192.116536 106.185185 192.116536 15.8148148 183.075758 15.8148148"></polygon>
                <polygon id="Fill-37" fill="#00A1DE" points="24.8621399 106.185185 33.9029181 106.185185 33.9029181 83.5925926 24.8621399 83.5925926"></polygon>
                <polygon id="Fill-38" fill="#00A1DE" points="40.6835017 106.185185 49.7242798 106.185185 49.7242798 61 40.6835017 61"></polygon>
                <polygon id="Fill-39" fill="#00A1DE" points="56.5048634 106.185185 65.5456416 106.185185 65.5456416 61 56.5048634 61"></polygon>
                <polygon id="Fill-40" fill="#00A1DE" points="72.324095 106.395349 81.3648731 106.395349 81.3648731 31.8397933 72.324095 31.8397933"></polygon>
                <polygon id="Fill-41" fill="#00A1DE" points="88.147587 106.185185 97.1883651 106.185185 97.1883651 47.4444444 88.147587 47.4444444"></polygon>
                <polygon id="Fill-42" fill="#00A1DE" points="103.968949 106.185185 113.009727 106.185185 113.009727 85.8518519 103.968949 85.8518519"></polygon>
                <polygon id="Fill-43" fill="#00A1DE" points="119.790311 106.185185 128.831089 106.185185 128.831089 47.4444444 119.790311 47.4444444"></polygon>
                <polygon id="Fill-44" fill="#00A1DE" points="135.611672 106.185185 144.65245 106.185185 144.65245 79.0740741 135.611672 79.0740741"></polygon>
                <polygon id="Fill-45" fill="#00A1DE" points="151.433034 106.185185 160.473812 106.185185 160.473812 61 151.433034 61"></polygon>
                <polygon id="Fill-46" fill="#00A1DE" points="167.254396 106.185185 176.295174 106.185185 176.295174 45.1851852 167.254396 45.1851852"></polygon>
                <polygon id="Fill-47" fill="#00A1DE" points="183.075758 106.185185 192.116536 106.185185 192.116536 36.1481481 183.075758 36.1481481"></polygon>
                <polygon id="Fill-50" fill="#00A1DE" points="203.417508 31.6296296 262.182566 31.6296296 262.182566 22.5925926 203.417508 22.5925926"></polygon>
                <polygon id="Fill-51" fill="#E6CA85" points="203.417508 51.962963 262.182566 51.962963 262.182566 47.4444444 203.417508 47.4444444"></polygon>
                <polygon id="Fill-52" fill="#E6CA85" points="203.417508 61 262.182566 61 262.182566 56.4814815 203.417508 56.4814815"></polygon>
                <polygon id="Fill-53" fill="#E6CA85" points="203.417508 72.2962963 262.182566 72.2962963 262.182566 67.7777778 203.417508 67.7777778"></polygon>
                <polygon id="Fill-54" fill="#E6CA85" points="203.417508 83.5925926 232.800037 83.5925926 232.800037 79.0740741 203.417508 79.0740741"></polygon>
            </g>
            <g id="Fill-29-+-Fill-31-+-Fill-32-+-Fill-33-+-Fill-34-+-Fill-35-+-Fill-36-+-Fill-37-+-Fill-38-+-Fill-39-+-Fill-40-+-Fill-41-+-Fill-42-+-Fill-43-+-Fill-44-+-Fill-45-+-Fill-46-+-Fill-47-+-Fill-48-+-Fill-49-+-Fill-50-+-Fill-51-+-Fill-52-+-Fill-53-+-Fill-54-+-Fill-55-+-Fill-56-+-Fill-57-Mask" transform="translate(267.000000, 123.000000)">
                <polygon id="Fill-29" fill="#E6CA85" points="11.3002915 350.77623 25.9398192 350.77623 25.9398192 337.705058 11.3002915 337.705058"></polygon>
                <polygon id="Fill-31" fill="#E6CA85" points="64.9766764 350.77623 79.6162041 350.77623 79.6162041 337.705058 64.9766764 337.705058"></polygon>
                <polygon id="Fill-32" fill="#141D25" points="24.6713615 133.379309 11.3652682 245.190899 8.47784544 346.004429 30.0840029 346.004429 39.4606181 246.473611 56.9675948 174.468649 60.4928341 129.687002"></polygon>
                <polygon id="Fill-33" fill="#141D25" points="56.5014577 170.583622 61.0526501 259.383025 61.0526501 345.526194 81.9158134 345.526194 90.1819767 251.797432 98.4617467 132.045276 57.7727405 131.043752"></polygon>
                <path d="M24.6826618,137.019018 C55.614817,140.474266 87.794969,140.474266 95.9721654,137.019018 L95.9721654,86.4383056 C95.7179089,83.3223379 95.8845882,82.3262499 95.9721654,79.2017686 L100.37484,19.8650034 L19.7755102,19.8650034 L29.0162412,79.2017686 C29.2168213,81.6082719 29.1094686,84.0232887 29.0162412,86.4383056 L24.6826618,137.019018 Z" id="Fill-34" fill="#FFFFFF"></path>
                <polygon id="Fill-26" fill="#352909" points="23.3607392 141.480033 97.4799773 141.66282 97.4799773 136.167565 24.6524119 135.977117"></polygon>
                <polygon id="Fill-28" fill="#E6CA85" points="53.6763848 141.82564 66.3637872 141.82564 66.3637872 136.204948 53.6763848 136.204948"></polygon>
                <path d="M64.7563207,46.7139745 C64.7563207,47.4376282 64.1715306,48.0222268 63.4539621,48.0222268 C62.7335685,48.0222268 62.1516035,47.4376282 62.1516035,46.7139745 C62.1516035,45.9903208 62.7335685,45.4057221 63.4539621,45.4057221 C64.1715306,45.4057221 64.7563207,45.9903208 64.7563207,46.7139745" id="Fill-32" fill="#191C3C"></path>
                <path d="M64.7591458,63.7411203 C64.7591458,64.4619361 64.1743557,65.0493726 63.4567872,65.0493726 C62.7363936,65.0493726 62.1516035,64.4619361 62.1516035,63.7411203 C62.1516035,63.0174666 62.7363936,62.4328679 63.4567872,62.4328679 C64.1743557,62.4328679 64.7591458,63.0174666 64.7591458,63.7411203" id="Fill-33" fill="#191C3C"></path>
                <path d="M64.7563207,80.768266 C64.7563207,81.4890819 64.1715306,82.0765184 63.4539621,82.0765184 C62.7335685,82.0765184 62.1516035,81.4890819 62.1516035,80.768266 C62.1516035,80.0446123 62.7335685,79.4600137 63.4539621,79.4600137 C64.1715306,79.4600137 64.7563207,80.0446123 64.7563207,80.768266" id="Fill-34" fill="#191C3C"></path>
                <path d="M64.7591458,97.7982497 C64.7591458,98.5219034 64.1743557,99.1065021 63.4567872,99.1065021 C62.7363936,99.1065021 62.1516035,98.5219034 62.1516035,97.7982497 C62.1516035,97.074596 62.7363936,96.4871595 63.4567872,96.4871595 C64.1743557,96.4871595 64.7591458,97.074596 64.7591458,97.7982497" id="Fill-35" fill="#191C3C"></path>
                <path d="M64.7563207,114.822558 C64.7563207,115.546211 64.1715306,116.13081 63.4539621,116.13081 C62.7335685,116.13081 62.1516035,115.546211 62.1516035,114.822558 C62.1516035,114.098904 62.7335685,113.514305 63.4539621,113.514305 C64.1715306,113.514305 64.7563207,114.098904 64.7563207,114.822558" id="Fill-36" fill="#191C3C"></path>
                <path d="M0,44.9403134 L12.6676268,22.9440789 C14.5632507,20.2424385 15.1056647,19.4251355 17.0069388,18.4460746 L52.8458134,0 L52.8458134,23.2448919 L24.4877318,54.6259215 L15.037863,67.9893931 C14.845758,62.1774607 0.220355685,51.0984645 0,44.9403134" id="Fill-42" fill="#FFFFFF"></path>
                <path d="M76.2769679,0 L108.239843,15.3102419 C111.344598,16.7944415 113.754385,19.4364869 114.955041,22.6716446 L135.46507,77.8963541 C136.188289,79.8402866 136.018784,82.005572 135.007408,83.8161251 L98.8760494,146.979762 L91.7870759,136.313389 C93.4546391,136.117641 94.7042662,135.048913 95.5359572,133.107206 C99.8214149,123.102163 106.516682,106.028555 115.621758,81.8863819 C116.66986,79.5309601 116.336501,76.7867518 114.757286,74.74917 L88.7863907,41.2567742 L77.2177172,20.7248743 L76.2769679,0 Z" id="Fill-43" fill="#DBC9AF"></path>
                <path d="M126.385286,49.971835 L114.955041,22.6716446 C113.75156,19.4336491 111.344598,16.7944415 108.239843,15.3074041 L76.2769679,0 L77.2177172,20.7248743 L86.475481,41.9009679 L105.174638,64.8847769 C109.030863,59.4616309 126.385286,57.7191864 126.385286,49.971835" id="Fill-44" fill="#FFFFFF"></path>
                <path d="M94.1871263,135.649768 L87.1819023,137.034469 L84.8653425,139.832597 C83.4556311,141.535311 83.6477361,144.058167 85.3004037,145.519664 L82.6420101,149.325231 C81.7153862,150.380914 81.6871355,151.955925 82.5713833,153.0485 L86.4982346,157.892723 C87.4079081,159.013677 89.0040743,159.283273 90.2301559,158.517052 L96.1289081,153.394719 C97.1883104,152.73066 97.9256544,151.65795 98.1629606,150.431995 L98.8466282,146.910214 L94.1871263,135.649768 Z" id="Fill-45" fill="#DBC9AF"></path>
                <path d="M27.1800262,349.056489 C27.1800262,349.056489 27.9399708,357.618305 30.2198047,364.664706 C30.5192624,365.581334 31.2566064,366.296474 31.2566064,367.261345 L31.2566064,374.710722 L0,374.710722 L0,370.754748 C0,368.932843 0.590440233,367.179047 1.66961808,365.714713 C4.32801166,362.099282 12.2353907,354.621527 10.9951837,349.056489 L27.1800262,349.056489 Z" id="Fill-48" fill="#212F3B"></path>
                <path d="M25.425656,349.056489 L25.4991079,349.056489 C25.4991079,349.056489 25.4765073,349.184192 25.4623819,349.257977 C25.4539067,349.195544 25.4341312,349.118921 25.425656,349.056489" id="Fill-49" fill="#191C3C"></path>
                <path d="M31.2566064,368.921492 L31.2566064,374.293557 L0,374.293557 L0,370.334745 C0,369.857985 0.0452011662,369.386901 0.124303207,368.921492 L31.2566064,368.921492 Z" id="Fill-50" fill="#141D25"></path>
                <path d="M80.5569534,349.056489 C80.5569534,349.056489 78.6698047,357.306141 85.1589971,364.664706 C85.7946385,365.388359 86.1986239,366.296474 86.1986239,367.261345 L86.1986239,374.710722 L56.5014577,374.710722 L56.5014577,370.754748 C56.5014577,368.932843 57.091898,367.179047 58.1710758,365.711875 C60.8322945,362.099282 65.6123178,354.621527 64.3721108,349.056489 L80.5569534,349.056489 Z" id="Fill-53" fill="#212F3B"></path>
                <path d="M79.1020408,349.056489 L79.1754927,349.056489 C79.1754927,349.056489 79.1528921,349.184192 79.1387668,349.257977 C79.1302915,349.195544 79.110516,349.118921 79.1020408,349.056489" id="Fill-54" fill="#191C3C"></path>
                <path d="M86.1986239,368.921492 L86.1986239,374.293557 L56.5014577,374.293557 L56.5014577,370.334745 C56.5014577,369.857985 56.549484,369.386901 56.6257609,368.921492 L86.1986239,368.921492 Z" id="Fill-55" fill="#141D25"></path>
            </g>
            <g id="Group-19" transform="translate(198.000000, 219.500000) scale(1, -1) rotate(-293.000000) translate(-198.000000, -219.500000) translate(187.000000, 206.000000)" fill="#DBC9AF">
                <path d="M16.7007115,11.2017659 L5.44099102,7.44744381 C3.53934933,6.81923055 2.51846801,4.77504452 3.14901236,2.88043309 C3.78456102,0.990807468 5.83633232,-0.0262997243 7.73296968,0.601913542 L18.9976945,4.35124986 C20.8943319,4.98444894 21.9202175,7.02863497 21.2846689,8.91826059 C20.6541245,10.812872 18.5973489,11.8299792 16.7007115,11.2017659" id="Fill-19"></path>
                <path d="M15.4616418,16.9663705 L2.48543949,12.6486508 C0.588802127,12.0154517 -0.43708352,9.9762515 0.198465149,8.08164006 C0.834013818,6.19201444 2.88578511,5.17490725 4.78242248,5.80312052 L17.7586248,10.1258261 C19.6552622,10.7540394 20.6761435,12.7982254 20.0455992,14.687851 C19.4100505,16.5824624 17.3582792,17.5995696 15.4616418,16.9663705" id="Fill-20"></path>
                <path d="M12.8253659,22.3221379 L2.48644036,18.8819224 C0.589802991,18.2487233 -0.436082656,16.1995515 0.199466013,14.3149117 C0.835014682,12.4252861 2.88678598,11.4031931 4.78342334,12.0363921 L15.1223489,15.4766076 C17.0189863,16.1048209 18.0398676,18.1490069 17.4093233,20.0436184 C16.7737746,21.933244 14.7220033,22.9503512 12.8253659,22.3221379" id="Fill-21"></path>
                <path d="M9.37738931,25.9109308 L2.90179894,23.752071 C1.00516157,23.1238577 -0.0207240767,21.0796717 0.614824592,19.1850602 C1.24536894,17.2954346 3.30214455,16.2783274 5.19878192,16.9065407 L11.6743723,19.0654006 C13.5710097,19.6985997 14.591891,21.7427857 13.9613466,23.6324113 C13.325798,25.5220369 11.2740267,26.5441299 9.37738931,25.9109308" id="Fill-22"></path>
            </g>
            <polygon id="Fill-4" fill="#DBC9AF" points="343 121.608634 330.041104 144.527583 317.082207 123.713421 318 105 343 105"></polygon>
            <path d="M353.786841,70.5165693 C353.52888,69.4376126 353.012958,68.434323 352.499871,67.4478483 C351.453854,65.4300592 350.407837,63.4094676 349.358985,61.3916784 C347.485225,57.7736704 345.588787,58.2613028 342.161593,57.1851486 C339.08307,56.2154888 336.336212,54.1472549 333.011068,54.0071307 C330.950216,53.9202537 328.931885,54.6376898 327.103481,55.5877322 C326.346606,55.9800801 325.598236,56.4200702 324.767659,56.6274541 C323.370135,56.9777647 321.896073,56.6330591 320.453192,56.6778988 C317.043006,56.7815908 313.856764,59.3094322 313.014848,62.5771296 C312.875946,63.1236141 312.790904,63.6981235 312.493257,64.1801509 C312.238131,64.5921162 311.849772,64.9003896 311.498265,65.2338853 C307.10726,69.3871679 309.695373,76.3429354 310.395553,81.4462605 C310.789581,84.2991901 310.452248,87.2698241 312.839094,89.4221325 L311.662679,89.1334766 C314.54277,91.9639863 318.471713,93.5670077 322.46302,94.3152712 C326.454326,95.0635347 330.547684,95.0242999 334.609859,94.9794601 C339.499776,94.9290154 344.392529,94.8757682 349.279612,94.8253234 C350.209405,94.8141135 351.212901,94.7804837 351.944263,94.2143817 C352.77484,93.5670077 352.995949,92.4291988 353.140521,91.3922794 C353.917238,85.8769891 353.401317,80.3813162 353.874717,74.7903588 C353.996611,73.363894 354.11567,71.9122068 353.786841,70.5165693" id="Fill-6" fill="#513E0E"></path>
            <path d="M314,114.391569 L317.511345,120.513356 C319.810736,124.529561 324.063641,127 328.667958,127 C332.771444,127 336.584394,125.022534 339,121.744398 L339,105 L314,105 L314,114.391569 Z" id="Fill-8" fill="#513E0E"></path>
            <path d="M314,80.4976947 L314,100.15661 C314,104.58715 315.148725,108.937707 317.330739,112.77408 L321.06691,119.344192 C323.409407,123.463366 327.736833,126 332.421828,126 C337.00265,126 341.251242,123.574772 343.630341,119.601283 L344.384896,118.338679 C346.747102,114.388042 348,109.854666 348,105.235592 L348,86.3679463 L348,69 L314.481451,69 L314,80.4976947 Z" id="Fill-10" fill="#DBC9AF"></path>
            <path d="M315.29505,103 L311.581748,100.870025 C311.581748,100.870025 307.66976,94.6495633 309.476739,90.3925352 C309.476739,90.3925352 310.829959,86.789985 313.388727,88.4261798 L317,92.3559689 L315.29505,103 Z" id="Fill-12" fill="#DBC9AF"></path>
            <path d="M347.707115,103 L351.416602,100.870025 C351.416602,100.870025 355.330083,94.6495633 353.523654,90.3925352 C353.523654,90.3925352 352.168162,86.789985 349.612857,88.4261798 L346,92.3559689 L347.707115,103 Z" id="Fill-14" fill="#DBC9AF"></path>
            <path d="M311.588192,81.8218148 C311.936132,84.832245 312.411367,87.9876534 312.323675,91.0208253 C312.289729,92.2346626 311.783378,95.7738369 314.37171,94.8471133 C315.126994,94.5770558 315.432502,93.6645458 315.48342,92.8572161 C315.678606,89.8894266 313.231713,87.3594144 314.631958,84.6190417 C315.655976,82.6177737 318.057609,81.3726666 318.487583,79.072914 C318.79592,77.4298274 317.9388,75.8094826 317.732299,74.1493397 C317.576716,72.8758055 317.836964,71.5084619 318.648823,70.5135133 C319.460683,69.5214074 320.872243,68.9926633 322.080132,69.4105417 C323.256903,69.819892 323.992386,70.9598188 324.883451,71.8325309 C326.937144,73.8451697 330.198726,74.5018358 332.863435,73.4415049 C334.49564,72.7905242 335.83931,71.5909005 337.324419,70.6499634 C338.806699,69.711869 340.617117,69.0068768 342.297411,69.5100366 C344.721674,70.2349277 345.79661,73.0406827 346.30579,75.5280542 C346.840429,78.1234487 347.471247,81.2191602 347.174225,83.8770943 C346.933779,86.0347114 345.691945,88.0388222 345.182765,90.2021247 C345.061128,90.719498 344.947977,91.2453994 344.981922,91.7769862 C345.035669,92.7378223 345.553335,93.5991635 346.054029,94.4178641 C346.12192,94.5287298 346.195468,94.6481236 346.317105,94.6964497 C346.51512,94.7732029 346.727278,94.6367528 346.88569,94.4946172 C348.325538,93.2040268 348.755512,91.1487472 349.103452,89.2384459 C349.561714,86.7198046 350.418834,85.028392 349.759729,82.4528965 C348.7838,77.2507367 350.019976,71.8325309 349.162857,66.6076294 C349.077993,66.0760425 348.959184,65.5273995 348.628217,65.1038356 C348.240675,64.6063613 347.618343,64.3590455 347.0243,64.1543704 C339.655332,61.6016166 331.652718,61.8858876 323.865091,62.2014284 C321.118347,62.3122941 318.23865,62.4601151 315.893593,63.9042119 C313.129877,65.6069953 311.61648,68.8562132 311.175191,72.0855321 C310.73673,75.3120083 311.214794,78.5868105 311.588192,81.8218148" id="Fill-16" fill="#513E0E"></path>
            <polygon id="Fill-29-Copy" fill="#E3E3E3" points="315.78027 122 310.577006 128.222601 318.061602 157.863113 328.143206 145.236134"></polygon>
            <polygon id="Fill-30-Copy" fill="#E3E3E3" points="345.22018 122.373965 349.981613 126.44812 341.398112 157.510727 330 146.336182"></polygon>
            <polygon id="Fill-29" fill="#FFFFFF" points="316.78027 120 311.577006 126.222601 318.161349 156 330 144.336182"></polygon>
            <polygon id="Fill-30" fill="#FFFFFF" points="344.22018 120.373965 348.981613 124.44812 340.838651 156 329 144.336182"></polygon>
            <path d="M331,155 C331,155.553145 330.551463,156 330.001083,156 C329.448537,156 329,155.553145 329,155 C329,154.446855 329.448537,154 330.001083,154 C330.551463,154 331,154.446855 331,155" id="Fill-31" fill="#191C3C"></path>
            <path d="M321.674753,107.592071 C321.175343,108.571361 321.001895,109.688871 320.478561,110.653458 C319.949246,111.618044 318.854731,112.444413 317.787129,112.132687 C316.570004,111.776848 316.214137,110.285856 316.034708,109.050714 C315.535298,105.568791 316.513185,102.310369 315.272136,98.8049194 C314.961126,97.9344386 314.572364,97.075721 314.458726,96.1611279 C314.354059,95.3200552 314.48863,94.455456 314.312192,93.6261466 C314.135754,92.7968371 313.492801,91.9557644 312.631543,91.9616461 C311.862989,91.9675277 311.246951,92.6615597 311.076493,93.3997039 C310.900055,94.1349073 311.064531,94.9024597 311.211065,95.6435447 C311.952704,99.3342658 312.36838,102.986756 312.039428,106.668655 C311.710475,110.359376 313.151886,113.900116 314.345087,117.337927 C314.763755,118.546601 315.224288,119.749394 315.909108,120.831614 C317.652558,123.584215 320.726771,125.313414 323.917612,126.139782 C327.105464,126.96321 330.445829,126.983796 333.744328,126.9985 C335.894483,127.007322 338.113419,127.004381 340.090126,126.172131 C345.879694,123.737137 347.715848,113.017872 348.337868,107.744993 C348.624954,105.315881 348.107601,103.39847 347.922192,101.092872 C347.712858,98.4196728 348.610002,95.3406409 348.968859,92.688027 C349.019698,92.3292478 349.040631,91.9087114 348.768497,91.6675647 C348.442535,91.3881874 347.772668,91.4234772 347.736782,91 C346.764876,91.8587176 345.846799,92.8762391 345.562703,94.1290257 C345.434113,94.6936619 345.440094,95.275943 345.449065,95.8552833 C345.48196,98.2196975 345.613541,100.342965 344.970588,102.619155 C344.246892,105.189426 343.508244,107.750874 343.107519,110.394666 C342.919119,111.632748 342.542319,113.150208 341.30127,113.441349 C340.317402,113.670732 339.330544,112.897298 338.947762,111.976824 C338.564981,111.056349 338.6218,110.027064 338.606848,109.033069 C338.591895,108.039074 338.472276,106.97744 337.832314,106.206947 C336.962084,105.16884 335.44292,104.98945 334.079262,104.889463 C329.883619,104.577737 324.147879,102.727965 321.674753,107.592071" id="Fill-37" fill="#513E0E"></path>
            <path d="M322,110.236053 L324.482731,110.236053 C325.40451,110.236053 326.294596,109.905461 326.989232,109.306751 L328.5,108 L330.148111,109.361415 C330.832182,109.926286 331.695855,110.236053 332.588582,110.236053 L335,110.236053 C335,110.236053 335,117.183697 327.860829,116.996275 C322.98781,116.868724 323.629622,114.049578 322,110.236053" id="Fill-38" fill="#DBC9AF"></path>
            <path d="M369.578753,184.543711 L379.344888,197.271331 C379.238892,197.271331 379.185895,197.360078 379.185895,197.53757 C379.134588,197.792363 379.134588,207.712938 381.376678,206.442447 C389.426663,201.880885 404.078606,203.963673 403.990045,201.401448 C403.952002,200.300787 403.182514,195.133338 402.926387,194.046389 C402.675635,192.982253 401.367562,192.158323 400.907785,191.107329 C398.885114,186.483749 395.859073,179.114639 391.829664,169 L369.578753,184.543711 Z" id="Path-6" fill="#FFFFFF"></path>
            <rect id="Rectangle-16" fill="#FFFFFF" opacity="0" x="0" y="0" width="404" height="498"></rect>
        </g>
    </g>
</svg>