<?xml version="1.0" encoding="UTF-8"?>
<svg width="503px" height="498px" viewBox="0 0 503 498" version="1.1" xmlns="http://www.w3.org/2000/svg" xmlns:xlink="http://www.w3.org/1999/xlink">
    <!-- Generator: Sketch 50.2 (55047) - http://www.bohemiancoding.com/sketch -->
    <title>homme ecologuy</title>
    <desc>Created with Sketch.</desc>
    <defs>
        <polygon id="path-1" points="0.595520399 0.728743436 104.221255 0.728743436 104.221255 178.602017 0.595520399 178.602017"></polygon>
        <polygon id="path-3" points="0.412387813 0.504642516 72.171458 0.504642516 72.171458 123.678879 0.412387813 123.678879"></polygon>
    </defs>
    <g id="PAGES-WEBBFRONT" stroke="none" stroke-width="1" fill="none" fill-rule="evenodd">
        <g id="01-Home-BLEU-2" transform="translate(-805.000000, -2532.000000)">
            <g id="homme-ecologuy" transform="translate(791.000000, 2532.000000)">
                <g id="plante" transform="translate(426.511719, 428.361674) rotate(-270.000000) translate(-426.511719, -428.361674) translate(344.011719, 337.361674)">
                    <g id="Group-3" transform="translate(52.489223, 0.000000)">
                        <mask id="mask-2" fill="white">
                            <use xlink:href="#path-1"></use>
                        </mask>
                        <g id="Clip-2"></g>
                        <path d="M27.6579468,11.1604103 C23.5945364,5.35409772 17.3567589,-0.822495295 10.5345586,1.07814637 C4.27120029,2.82319146 1.77805703,10.3213706 1.07360139,16.7894609 C-2.23419169,47.1957884 12.0969547,76.7808024 29.4053116,101.987447 C48.7817771,130.209514 72.4085894,155.50282 99.2428394,176.744706 L104.221255,178.602017 C88.308035,141.475493 72.9713668,105.692221 57.0601147,68.5637277 C48.575163,48.7655412 40.0036302,28.8078189 27.6579468,11.1604103 Z" id="Fill-1" fill="#91B8A5" mask="url(#mask-2)"></path>
                    </g>
                    <path d="M148.479453,168.833774 C107.904924,128.904941 79.8919972,73.9059521 67.0303688,18.9600549 C66.570461,16.9976312 63.5899425,18.0830599 64.0616934,20.0376182 C70.8892521,48.2037074 81.4217335,75.3138633 95.5959743,100.628736 C109.936019,126.244461 128.148763,147.854718 148.368917,168.96552 C148.443923,169.044174 148.558407,168.912428 148.479453,168.833774" id="Fill-4" fill="#7FA794"></path>
                    <path d="M56.522589,43.6926028 C61.5089772,50.3347924 67.8900633,55.654242 75.4422249,58.8084681 C76.5917227,59.2887244 77.4057869,57.5223578 76.2621738,56.9871569 C69.094486,53.6416423 62.9174063,48.9917026 57.9937893,42.607956 C57.2719203,41.6759331 55.8046432,42.7361601 56.522589,43.6926028" id="Fill-6" fill="#7FA794"></path>
                    <path d="M67.8912591,69.4388288 C72.6328633,76.2760183 79.80008,84.8672309 87.6828226,88.2877702 C88.2010307,88.5152876 88.5478315,87.8755165 88.1870789,87.5118776 C85.2213341,84.5230379 81.3985527,82.3023125 78.2255246,79.4865416 C74.63793,76.3051872 71.3811914,72.7913074 68.222115,69.2074222 C68.054694,69.0168521 67.741776,69.222979 67.8912591,69.4388288" id="Fill-8" fill="#7FA794"></path>
                    <path d="M87.1158762,102.885483 C90.916538,107.615459 96.1052339,111.158599 101.496915,113.866129 C102.254728,114.248233 102.819221,113.042098 102.053676,112.675434 C96.5769336,110.070183 92.0532568,106.476868 87.5469787,102.486011 C87.2995298,102.267942 86.9032247,102.621098 87.1158762,102.885483" id="Fill-10" fill="#7FA794"></path>
                    <path d="M82.0821574,37.9866841 C81.856895,47.4779909 81.8157757,55.8484307 79.4254915,65.0863241 C78.9964203,66.7432579 81.3741899,67.170162 81.8211391,65.5619616 C84.1935453,57.0043857 85.532605,46.444844 83.4963046,37.6513987 C83.2781934,36.7118198 82.1018231,37.1640652 82.0821574,37.9866841" id="Fill-12" fill="#7FA794"></path>
                    <path d="M93.4687641,61.934133 C95.6831567,71.552259 96.2933528,81.1898667 94.538818,90.9580019 C94.298277,92.3002925 96.2226054,92.6840824 96.4348475,91.3378954 C98.0266633,81.261949 97.5084388,71.2308106 94.0913409,61.684767 C93.9321593,61.2405837 93.3661804,61.4880016 93.4687641,61.934133" id="Fill-14" fill="#7FA794"></path>
                    <path d="M108.844096,90.6786627 C111.901758,102.450925 114.24525,112.629088 113.043259,124.916276 C112.84618,126.928628 115.917501,127.504714 116.116532,125.482497 C117.25413,113.8365 116.030675,100.302443 110.184628,89.9664477 C109.728028,89.1575609 108.641163,89.8973964 108.844096,90.6786627" id="Fill-16" fill="#7FA794"></path>
                    <g id="Group-20" transform="translate(0.000000, 84.494847)" fill="#91B8A5">
                        <path d="M138.586722,81.1881436 C114.195276,61.9201048 89.805805,42.6501065 65.4143585,23.3820678 C56.8064262,16.5805461 48.0740276,9.70652192 38.00411,5.30150299 C27.9341924,0.900403113 16.204724,-0.822021993 5.89377637,2.99513854 C4.44364502,3.53204921 2.99746497,4.19828873 1.91875691,5.29954346 C-1.43590663,8.73067697 0.192033743,14.4309439 2.36920643,18.6929173 C19.6226085,52.4751799 56.5614449,71.3042844 92.3109365,84.6016414 C113.632214,92.5318511 136.721703,99.3725634 158.898439,94.2386 C158.898439,94.2386 146.436003,87.3900497 138.586722,81.1881436" id="Fill-18"></path>
                    </g>
                    <path d="M10.5184638,97.5107646 C27.6608098,113.702317 47.6855845,126.055902 68.0721456,137.696551 C90.6650102,150.5987 113.366608,163.310732 135.827016,176.442604 C137.586523,177.4724 139.292652,174.743442 137.507444,173.759195 C115.630244,161.694745 93.9546958,149.265907 72.225769,136.936087 C51.0464412,124.919166 29.8987449,112.823031 11.8469907,96.269069 C10.9949147,95.4868205 9.66045689,96.7007909 10.5184638,97.5107646" id="Fill-21" fill="#7FA794"></path>
                    <path d="M15.6645177,116.03519 C23.3494708,118.498099 31.1036578,121.163543 39.0160934,122.860256 C40.8913407,123.263416 41.8250081,120.597972 39.9240454,120.066794 C32.0986466,117.88667 23.933013,116.633243 15.9276062,115.228869 C15.3875825,115.133333 15.1126253,115.859404 15.6645177,116.03519" id="Fill-23" fill="#7FA794"></path>
                    <path d="M44.389453,138.711609 C49.6246192,139.363037 54.8597855,140.018084 60.0969363,140.669512 C65.2586753,141.311892 70.6168818,142.392176 75.8341874,142.033891 C76.8403395,141.965129 77.265027,140.669512 76.1616334,140.349226 C71.3809224,138.968561 66.1675859,138.870847 61.2003299,138.440181 C55.6277951,137.955229 50.0532757,137.472086 44.4787564,136.988944 C43.2523225,136.882182 43.2007249,138.563228 44.389453,138.711609" id="Fill-25" fill="#7FA794"></path>
                    <path d="M81.3606761,159.490993 C86.0046252,159.082238 90.5581469,158.512354 95.242286,158.739629 C99.0884646,158.926198 102.958757,160.281367 106.742641,159.986249 C107.779542,159.904837 107.705191,158.773551 107.082246,158.352923 C103.889155,156.1989 97.8948229,156.132753 93.958217,156.203988 C89.4529232,156.282008 85.0159523,156.882421 80.968824,158.575109 C80.3418608,158.838002 80.7457698,159.543572 81.3606761,159.490993" id="Fill-27" fill="#7FA794"></path>
                    <path d="M33.3530935,98.4353593 C35.3149417,103.074322 37.0517893,107.792078 38.3228459,112.669391 C39.2939015,116.39435 39.5346918,120.46206 41.2281181,123.915182 C41.4590399,124.385972 42.1300946,124.181109 42.1794369,123.706379 C42.6294383,119.313646 40.7465377,114.637256 39.4458757,110.473024 C38.0919241,106.135446 36.5169192,101.89636 34.7228346,97.720309 C34.3300703,96.8063053 32.9701976,97.5252953 33.3530935,98.4353593" id="Fill-29" fill="#7FA794"></path>
                    <path d="M57.6337423,116.738357 C61.0922824,122.876507 64.1115822,130.076157 68.4696102,135.563202 C68.7637102,135.934135 69.2640623,135.498092 69.0998246,135.101509 C66.3918125,128.604264 61.6040929,122.558847 57.9221131,116.582486 C57.8113482,116.402939 57.5267968,116.546971 57.6337423,116.738357" id="Fill-31" fill="#7FA794"></path>
                    <path d="M83.3063609,131.750051 C85.1015055,135.400413 87.0607023,139.013245 88.7106515,142.736693 C90.1550641,145.99397 91.1167487,149.673961 93.6850124,152.156919 C94.1375699,152.593461 94.8126348,152.224079 94.7296659,151.588031 C94.2525949,147.963348 91.8879821,145.039898 90.1908915,141.926818 C88.2430087,138.357444 86.508205,134.637946 84.6734616,131.003386 C84.2095902,130.08487 82.8519177,130.825609 83.3063609,131.750051" id="Fill-33" fill="#7FA794"></path>
                    <g id="Group-37" transform="translate(129.302721, 23.044049)" fill="#91B8A5">
                        <path d="M25.3764768,5.66076589 C21.9551468,1.26151287 15.5346764,-1.35638714 10.544075,1.18474738 C5.9935865,3.50149047 4.24508371,8.96955529 3.22147273,13.9258502 C-6.00297482,58.650605 10.4066642,110.189773 24.8746286,153.536686 L29.2837234,155.532589 C33.4598172,110.837359 37.6199793,65.6087077 30.7613875,21.2382551 C29.9130251,15.7524752 28.7978069,10.0580506 25.3764768,5.66076589" id="Fill-35"></path>
                    </g>
                    <path d="M154.903743,162.189966 C149.676442,122.285758 148.16853,82.2065914 146.672028,42.0134073 C146.622588,40.6766488 144.586052,40.5960501 144.667817,41.9151163 C147.139804,81.9883852 147.773013,122.67499 154.270534,162.329539 C154.34089,162.760054 154.958887,162.612618 154.903743,162.189966" id="Fill-38" fill="#7FA794"></path>
                    <path d="M135.826433,55.2664769 C137.31556,58.1864056 138.804686,61.1063344 140.293813,64.0262631 C141.598028,66.5789917 142.648482,69.4066295 144.672672,71.4684487 C145.184129,71.9907762 146.067376,71.5293214 145.931643,70.8125938 C145.394613,67.9908469 143.661561,65.4852457 142.314068,62.9737535 C140.765927,60.0852429 139.215819,57.1947688 137.667678,54.3082219 C137.036225,53.1320031 135.218586,54.0784763 135.826433,55.2664769" id="Fill-40" fill="#7FA794"></path>
                    <path d="M137.029097,77.5132824 C139.44353,83.4290471 141.459073,90.5153822 145.091271,95.7867613 C145.386602,96.2176227 145.992608,96.002192 145.942747,95.4817267 C145.342494,89.1007842 141.282641,82.3461743 137.897833,77.0633564 C137.556475,76.5295458 136.791297,76.9318102 137.029097,77.5132824" id="Fill-42" fill="#7FA794"></path>
                    <path d="M139.548292,105.800876 C139.879856,109.32743 141.670699,112.905816 142.865917,116.261513 C143.932084,119.26014 144.736177,122.454579 146.338406,125.220917 C146.610407,125.689333 147.283462,125.414811 147.221915,124.91376 C146.779167,121.366089 145.248414,117.820338 144.162392,114.39937 C143.199467,111.364269 142.562149,108.068084 140.870577,105.33822 C140.439742,104.641356 139.476817,105.044501 139.548292,105.800876" id="Fill-44" fill="#7FA794"></path>
                    <path d="M156.650887,69.2842265 C153.888221,72.4927744 151.720708,75.9651188 150.004361,79.8653999 C148.71038,82.800381 146.652299,87.1051502 147.376083,90.3605953 C147.514313,90.9819827 148.286093,91.0699149 148.627827,90.5853108 C150.472804,87.9727478 150.799179,83.8301647 151.972209,80.791619 C153.427456,77.0124889 155.337709,73.3857746 157.401549,69.9153842 C157.676088,69.4522747 157.031018,68.8445655 156.650887,69.2842265" id="Fill-46" fill="#7FA794"></path>
                </g>
                <g id="plante" transform="translate(75.200644, 363.187285) rotate(-457.000000) translate(-75.200644, -363.187285) translate(18.200644, 300.187285)">
                    <g id="Group-3" transform="translate(36.347900, 0.000000)">
                        <mask id="mask-4" fill="white">
                            <use xlink:href="#path-3"></use>
                        </mask>
                        <g id="Clip-2"></g>
                        <path d="M19.1526608,7.72839555 C16.3388178,3.7076222 12.0192623,-0.569564094 7.29500386,0.746598144 C2.95773403,1.95501238 1.23127445,7.1473747 0.743450821,11.626418 C-1.54714,32.682286 8.3769367,53.1694083 20.3626814,70.6245837 C33.7805563,90.1678881 50.1417247,107.683075 68.7239894,122.392722 L72.171458,123.678879 C61.1518221,97.9693886 50.5314385,73.1900772 39.5131652,47.4792229 C33.6374796,33.7693133 27.7018379,19.9489278 19.1526608,7.72839555 Z" id="Fill-1" fill="#91B8A5" mask="url(#mask-4)"></path>
                    </g>
                    <path d="M102.819512,116.914536 C74.7223364,89.2644935 55.3238581,51.178623 46.4173978,13.1295176 C46.0989194,11.7705724 44.0349607,12.5222134 44.3616402,13.875712 C49.0896093,33.3802529 56.3831747,52.1535777 66.1985969,69.6836991 C76.1288354,87.4221559 88.7408534,102.386894 102.742968,117.005768 C102.794909,117.060234 102.874187,116.969003 102.819512,116.914536" id="Fill-4" fill="#7FA794"></path>
                    <path d="M39.1409378,30.2563892 C42.5939274,34.8559932 47.0127217,38.5396222 52.242466,40.7238705 C53.0384738,41.0564399 53.6021995,39.8332608 52.8102668,39.4626432 C47.846764,37.1459309 43.5692407,33.9259262 40.1597192,29.5052896 C39.6598371,28.8598795 38.6437725,29.5940687 39.1409378,30.2563892" id="Fill-6" fill="#7FA794"></path>
                    <path d="M47.0135498,48.0852156 C50.2970305,52.8198539 55.260207,58.7691234 60.718873,61.1377891 C61.0777234,61.295341 61.3178771,60.8523103 61.068062,60.6004965 C59.0143338,58.5307755 56.3671224,56.9929607 54.169854,55.043087 C51.6855054,52.8400528 49.4302689,50.4067504 47.2426619,47.9249705 C47.1267256,47.7930039 46.9100352,47.9357433 47.0135498,48.0852156" id="Fill-8" fill="#7FA794"></path>
                    <path d="M60.3262723,71.2464582 C62.9581663,74.5218869 66.5512506,76.9754516 70.2848989,78.8503706 C70.8096712,79.1149707 71.2005731,78.2797431 70.6704459,78.0258339 C66.8778946,76.2217422 63.7453249,73.733432 60.6248035,70.9698308 C60.4534493,70.8188217 60.1790147,71.0633763 60.3262723,71.2464582" id="Fill-10" fill="#7FA794"></path>
                    <path d="M56.840507,26.3051369 C56.6845166,32.8777065 56.6560422,38.6740946 55.0008108,45.0711797 C54.7036862,46.2185783 56.3502515,46.5142022 56.6597563,45.4005506 C58.3026075,39.4745739 59.2298837,32.1622697 57.8197801,26.0729574 C57.6687417,25.4223149 56.8541252,25.7354872 56.840507,26.3051369" id="Fill-12" fill="#7FA794"></path>
                    <path d="M64.7255398,42.8883406 C66.2589693,49.5487303 66.6815197,56.2226108 65.466534,62.9868794 C65.2999634,63.9163929 66.6325284,64.182161 66.7795024,63.2499493 C67.881808,56.2725266 67.5229463,49.3261327 65.1566637,42.7156588 C65.0464332,42.4080694 64.6545023,42.5794021 64.7255398,42.8883406" id="Fill-14" fill="#7FA794"></path>
                    <path d="M75.3726974,62.7934417 C77.4900767,70.9455344 79.1129054,77.9937405 78.2805469,86.5024104 C78.1440726,87.8959305 80.2709105,88.2948598 80.4087361,86.8945087 C81.1965039,78.8298526 80.3492819,69.4577467 76.3009932,62.3002449 C75.9848051,61.7401044 75.2321693,62.252428 75.3726974,62.7934417" id="Fill-16" fill="#7FA794"></path>
                    <g id="Group-20" transform="translate(0.000000, 58.511254)" fill="#91B8A5">
                        <path d="M95.9689634,56.2214176 C79.0782989,42.8786263 62.1890025,29.5344781 45.298338,16.1916868 C39.3374903,11.481748 33.2904518,6.72160241 26.317204,3.67120124 C19.3439562,0.623513942 11.2214975,-0.569236341 4.08134055,2.07408283 C3.07714909,2.4458844 2.07569385,2.907244 1.32870674,3.6698443 C-0.99434108,6.04584628 0.132980122,9.99318481 1.64063542,12.9445294 C13.5883248,36.3381754 39.1678449,49.3770121 63.9237638,58.5852071 C78.6883881,64.0767434 94.6774692,68.813821 110.034484,65.2586382 C110.034484,65.2586382 101.404458,60.5161328 95.9689634,56.2214176" id="Fill-18"></path>
                    </g>
                    <path d="M7.28385847,67.5245569 C19.1546434,78.7369336 33.0214615,87.2915821 47.1388106,95.352535 C62.7839876,104.287055 78.5044608,113.089923 94.0579134,122.183522 C95.2763424,122.896638 96.4578079,121.006881 95.2215816,120.325307 C80.0719903,111.970879 65.0620393,103.364118 50.0151246,94.8259263 C35.348798,86.5044118 20.7043756,78.1280423 8.20384087,66.6647036 C7.61379263,66.1230098 6.68970316,66.9636637 7.28385847,67.5245569" id="Fill-21" fill="#7FA794"></path>
                    <path d="M10.8474138,80.3524083 C16.169114,82.0579309 21.5387574,83.9037061 27.0179854,85.0786511 C28.3165625,85.3578329 28.9631114,83.5120577 27.6467268,83.1442258 C22.2277704,81.6345273 16.5732071,80.7665499 11.0295982,79.7940447 C10.6556409,79.7278879 10.4652377,80.2306797 10.8474138,80.3524083" id="Fill-23" fill="#7FA794"></path>
                    <path d="M30.7389461,96.0554454 C34.3642103,96.5065481 37.9894745,96.9601571 41.6161129,97.4112598 C45.1905299,97.8560973 48.9009974,98.6041761 52.5138934,98.3560696 C53.2106367,98.3084532 53.5047256,97.4112598 52.7406442,97.1894676 C49.4300826,96.2333803 45.8199352,96.1657149 42.3801944,95.8674859 C38.5213082,95.5316649 34.6610477,95.197097 30.8007872,94.8625291 C29.9515025,94.7885984 29.915772,95.9526942 30.7389461,96.0554454" id="Fill-25" fill="#7FA794"></path>
                    <path d="M56.3408934,110.444818 C59.5567497,110.161762 62.7099866,109.767127 65.9536737,109.924511 C68.6170874,110.053707 71.2971996,110.992138 73.9174754,110.787774 C74.6355117,110.731398 74.5840246,109.948001 74.1526462,109.656723 C71.9414841,108.165099 67.7905107,108.119293 65.0644776,108.168623 C61.9446378,108.22265 58.8721105,108.638425 56.0695425,109.810584 C55.635381,109.992632 55.9150812,110.481228 56.3408934,110.444818" id="Fill-27" fill="#7FA794"></path>
                    <path d="M23.0964537,68.164823 C24.4550004,71.3772263 25.657738,74.6441926 26.5379232,78.0216492 C27.2103629,80.6011204 27.377106,83.417941 28.5497752,85.8091694 C28.7096846,86.135184 29.1743786,85.9933199 29.2085473,85.6645772 C29.5201657,82.6226837 28.2162888,79.384363 27.3156024,76.5007025 C26.3780138,73.4970032 25.2873495,70.5615077 24.0449763,67.6696628 C23.7729936,67.0367307 22.8313047,67.5346191 23.0964537,68.164823" id="Fill-29" fill="#7FA794"></path>
                    <path d="M39.9103927,80.8393394 C42.3053733,85.089905 44.3961874,90.075541 47.4140481,93.8752269 C47.6177074,94.1320917 47.9641928,93.830139 47.8504609,93.5555123 C45.9752083,89.0562797 42.6597934,84.8699303 40.1100846,80.7314015 C40.0333818,80.6070681 39.8363348,80.7068081 39.9103927,80.8393394" id="Fill-31" fill="#7FA794"></path>
                    <path d="M57.6882473,91.2346843 C58.9313546,93.7624984 60.2880653,96.264323 61.4306272,98.8427481 C62.4308585,101.098357 63.0968089,103.646689 64.8752881,105.366095 C65.1886765,105.668393 65.6561475,105.412603 65.598693,104.97215 C65.2683294,102.462118 63.630875,100.437678 62.4556684,98.2819235 C61.1067925,95.8101919 59.9054703,93.2345026 58.6349414,90.7176314 C58.3137183,90.0815743 57.3735531,90.5945236 57.6882473,91.2346843" id="Fill-33" fill="#7FA794"></path>
                    <g id="Group-37" transform="translate(89.539949, 15.957615)" fill="#91B8A5">
                        <path d="M17.5727814,3.91998473 C15.2035681,0.873576345 10.7575009,-0.939275174 7.30159376,0.820417541 C4.15045738,2.42472298 2.93964874,6.21126548 2.23081543,9.64341595 C-4.15695863,40.614553 7.2064391,76.3045561 17.22526,106.321561 L20.2784836,107.70369 C23.170358,76.7529983 26.0512,45.4329215 21.3017411,14.7071328 C20.7142644,10.9083229 19.9419947,6.96503006 17.5727814,3.91998473" id="Fill-35"></path>
                    </g>
                    <path d="M107.268224,112.313811 C103.648407,84.680821 102.604204,56.9266755 101.567901,29.0935747 C101.533665,28.167892 100.123398,28.1120788 100.180019,29.0255098 C101.891828,56.7755714 102.330314,84.950358 106.829738,112.410463 C106.878459,112.708587 107.306411,112.60649 107.268224,112.313811" id="Fill-38" fill="#7FA794"></path>
                    <path d="M94.0575097,38.2711014 C95.0887048,40.2931027 96.1198999,42.315104 97.151095,44.3371053 C98.0542421,46.1048267 98.7816638,48.0629181 100.183381,49.4906931 C100.537556,49.8523961 101.14919,49.5328465 101.055197,49.0365247 C100.683313,47.0825126 99.4832034,45.3474261 98.5500876,43.6082602 C97.4780261,41.6080155 96.4046024,39.6064109 95.3325409,37.607526 C94.8952706,36.7930144 93.636586,37.4484311 94.0575097,38.2711014" id="Fill-40" fill="#7FA794"></path>
                    <path d="M94.8903343,53.6766383 C96.5622884,57.7732054 97.9580181,62.6803727 100.473253,66.3307137 C100.677765,66.6290779 101.097414,66.4798958 101.062886,66.1194824 C100.647221,61.7007875 97.835842,57.0233343 95.491919,53.3650721 C95.2555347,52.9954173 94.7256621,53.2739786 94.8903343,53.6766383" id="Fill-42" fill="#7FA794"></path>
                    <path d="M96.6348339,73.2653192 C96.8644364,75.7073979 98.1045649,78.18537 98.9322338,80.5091335 C99.6705364,82.5856315 100.227357,84.7977268 101.336873,86.7133694 C101.52523,87.0377391 101.991309,86.8476372 101.948688,86.5006679 C101.642093,84.043966 100.582072,81.5885934 99.8300208,79.2196308 C99.1632112,77.1178745 98.7218794,74.8353219 97.5504942,72.9449376 C97.2521484,72.4623711 96.5853388,72.7415418 96.6348339,73.2653192" id="Fill-44" fill="#7FA794"></path>
                    <path d="M108.478093,47.9781561 C106.564993,50.2000213 105.064027,52.6045612 103.875485,55.30544 C102.979426,57.3378648 101.554239,60.3188447 102.055448,62.5731854 C102.151169,63.0034857 102.685614,63.0643773 102.922259,62.7287971 C104.199874,60.9196414 104.425884,58.0509725 105.238187,55.946831 C106.245921,53.3298473 107.568739,50.8184089 108.997913,48.4152222 C109.188027,48.0945267 108.741327,47.6736984 108.478093,47.9781561" id="Fill-46" fill="#7FA794"></path>
                    <path d="M109.464916,70.2072691 C108.581781,72.9703871 107.846468,75.7404093 107.14653,78.5642855 C106.524925,81.0650384 105.569776,83.684546 105.49776,86.2847214 C105.483863,86.8080706 106.210332,87.1436217 106.451647,86.6106064 C107.572305,84.1416135 107.878054,81.174127 108.441541,78.5007655 C109.018927,75.765265 109.52935,73.0684287 109.927329,70.2956447 C109.969022,69.9973771 109.549565,69.9407615 109.464916,70.2072691" id="Fill-48" fill="#7FA794"></path>
                </g>
                <g transform="translate(28.000000, -160.000000)" id="Group-55">
                    <g>
                        <path d="M126.287084,448.214942 L122.318043,477.715096 C119.142809,501.352387 119.822357,525.349363 124.344659,548.764849 L140.196771,630.874911 C143.702757,649.056981 141.640059,667.8685 134.273277,684.86361 L81.4369147,797.654792 L124.194317,817.305575 L197.435161,685.529027 C199.924832,681.06294 201.494408,676.141252 202.047668,671.0637 L225.513123,454.959033 L126.287084,448.214942 Z" id="Fill-11" fill="#1B2834"></path>
                        <path d="M290.912103,466.199186 C290.912103,466.199186 313.463475,534.809075 326.242586,614.569196 C339.153999,695.180571 342.353287,787.12202 352.552521,819.139968 L307.52194,819.139968 C307.52194,819.139968 276.996403,722.972222 274.37443,650.39381 C273.917389,637.690939 269.599553,625.491627 262.136552,615.19265 C235.700329,578.684635 175.809898,492.420213 178.155241,463.195817 L290.912103,466.199186 Z" id="Fill-13" fill="#1B2834"></path>
                        <path d="M218.371855,275.863542 L149.966025,276.175269 L160.862848,97.7595819 L184.616961,97.7595819 L201.533497,97.7595819 C206.494799,97.7595819 211.859019,95.9251891 216.597814,96.4587216 C212.863306,98.5388992 210.578101,102.747212 209.688073,107.045446 C208.689799,111.883208 208.888251,120.785409 209.134813,126.162697 C209.387388,131.545981 225.510116,155.878663 225.510116,160.842314 C225.510116,166.711172 218.371855,269.994684 218.371855,275.863542" id="Fill-15" fill="#5361F0"></path>
                        <path d="M158.208402,141.271261 C154.979045,194.08499 149.96362,276.177067 149.96362,276.177067 L218.369449,275.86534 C218.369449,269.996482 225.513724,166.706976 225.513724,160.838118 C225.513724,158.787914 222.747423,153.410625 219.494011,147.445851 C195.715844,158.512156 170.752978,148.219173 158.208402,141.271261" id="Fill-17" fill="#FFFFFF"></path>
                        <polygon id="Fill-19" fill="#FFFFFF" points="0 478.935627 469.820259 478.935627 469.820259 274.364855 0 274.364855"></polygon>
                        <path d="M160.865855,109.260506 L154.124498,112.755444 L149.926936,119.841236 C145.146045,127.910166 137.971702,134.306562 129.396167,138.155191 L122.227837,141.380365 C106.291534,148.538094 94.5527929,162.619757 90.4153678,179.55492 L77.431791,232.692365 C68.4954338,269.278311 66.8176117,307.255039 72.5065712,344.482424 L85.9471892,432.479328 L122.528522,432.479328 L124.84981,301.476102 C124.976098,294.570153 125.667673,287.688182 126.936564,280.896133 L127.796523,276.286172 L213.233149,275.866539 C213.233149,275.866539 204.777888,169.112069 186.237653,155.126322 L193.844982,149.317411 L176.910405,142.147693 C171.672473,139.929636 167.883842,135.247738 166.801376,129.678617 C166.380418,127.532497 165.959459,125.488288 165.436267,123.809759 L160.865855,109.260506 Z" id="Fill-23" fill="#141D25"></path>
                        <path d="M209.136617,126.164496 L216.593604,129.74336 L243.817621,147.056192 C253.445553,153.17683 261.558034,161.353666 267.51761,171.065158 C282.407529,195.349881 309.084299,243.475718 307.448573,274.366653 L213.23796,275.86534 C213.23796,275.86534 207.338521,203.994308 216.68381,173.019445 C218.999084,165.352163 219.017125,157.21729 216.58759,149.585976 L209.136617,126.164496 Z" id="Fill-24" fill="#141D25"></path>
                        <g id="Group-19" transform="translate(249.316809, 280.456167) scale(1, -1) rotate(-293.000000) translate(-249.316809, -280.456167) translate(231.316809, 257.956167)" fill="#FDF9ED">
                            <path d="M27.7936348,19.1708663 L9.05499848,12.7456644 C5.89025101,11.670531 4.19128131,8.17208111 5.24064495,4.92961536 C6.29833687,1.69568241 9.71293283,-0.0450097332 12.869352,1.03012365 L31.6163167,7.44679272 C34.7727359,8.5304589 36.4800338,12.0289088 35.4223419,15.2628417 C34.3729783,18.5053075 30.950054,20.2459996 27.7936348,19.1708663" id="Fill-19"></path>
                            <path d="M25.731552,29.036495 L4.13631465,21.6470862 C0.979895455,20.56342 -0.727402525,17.0735029 0.330289394,13.8310371 C1.38798131,10.5971042 4.80257727,8.85641204 7.95899646,9.93154542 L29.5542338,17.329487 C32.710653,18.4046204 34.4096227,21.9030703 33.3602591,25.1370032 C32.3025672,28.379469 28.8879712,30.1201611 25.731552,29.036495" id="Fill-20"></path>
                            <path d="M21.3442126,38.2024337 L4.1379803,32.3147985 C0.981561111,31.2311323 -0.725736869,27.7241496 0.331955051,24.4987495 C1.38964697,21.2648165 4.80424293,19.5155916 7.96066212,20.5992578 L25.1668944,26.4868929 C28.3233136,27.5620263 30.0222833,31.0604762 28.9729197,34.302942 C27.9152278,37.5368749 24.5006318,39.2775671 21.3442126,38.2024337" id="Fill-21"></path>
                            <path d="M15.6060258,44.3443464 L4.82922778,40.649642 C1.67280859,39.5745087 -0.0344893939,36.0760588 1.02320253,32.833593 C2.07256616,29.5996601 5.4954904,27.8589679 8.6519096,28.9341013 L19.4287076,32.6288057 C22.5851268,33.7124719 24.2840965,37.2109218 23.2347328,40.4448547 C22.1770409,43.6787877 18.7624449,45.4280126 15.6060258,44.3443464" id="Fill-22"></path>
                        </g>
                        <polygon id="Fill-26" fill="#F5F7F9" points="41.1457307 452.70261 56.179979 452.70261 56.179979 300.591877 41.1457307 300.591877"></polygon>
                        <polygon id="Fill-27" fill="#F5F7F9" points="67.9487885 452.70261 82.9830368 452.70261 82.9830368 300.591877 67.9487885 300.591877"></polygon>
                        <polygon id="Fill-28" fill="#E6E7E8" points="94.7458327 452.70261 109.780081 452.70261 109.780081 300.591877 94.7458327 300.591877"></polygon>
                        <polygon id="Fill-29" fill="#F5F7F9" points="121.548891 452.70261 136.583139 452.70261 136.583139 300.591877 121.548891 300.591877"></polygon>
                        <polygon id="Fill-30" fill="#F5F7F9" points="148.345935 452.70261 163.380183 452.70261 163.380183 300.591877 148.345935 300.591877"></polygon>
                        <polygon id="Fill-31" fill="#F5F7F9" points="175.148992 452.70261 190.183241 452.70261 190.183241 300.591877 175.148992 300.591877"></polygon>
                        <polygon id="Fill-32" fill="#F5F7F9" points="201.946037 452.70261 216.980285 452.70261 216.980285 300.591877 201.946037 300.591877"></polygon>
                        <polygon id="Fill-33" fill="#F5F7F9" points="228.749094 452.70261 243.783343 452.70261 243.783343 300.591877 228.749094 300.591877"></polygon>
                        <polygon id="Fill-34" fill="#F5F7F9" points="255.552152 452.70261 270.586401 452.70261 270.586401 300.591877 255.552152 300.591877"></polygon>
                        <polygon id="Fill-35" fill="#F5F7F9" points="282.35521 452.70261 297.389458 452.70261 297.389458 300.591877 282.35521 300.591877"></polygon>
                        <polygon id="Fill-36" fill="#F5F7F9" points="309.152254 452.70261 324.186503 452.70261 324.186503 300.591877 309.152254 300.591877"></polygon>
                        <polygon id="Fill-37" fill="#BEE9F9" points="41.1457307 452.70261 56.179979 452.70261 56.179979 414.67193 41.1457307 414.67193"></polygon>
                        <polygon id="Fill-38" fill="#BEE9F9" points="67.9487885 452.70261 82.9830368 452.70261 82.9830368 376.647244 67.9487885 376.647244"></polygon>
                        <polygon id="Fill-39" fill="#E03C00" points="94.7458327 452.70261 109.780081 452.70261 109.780081 376.647244 94.7458327 376.647244"></polygon>
                        <polygon id="Fill-40" fill="#BEE9F9" points="121.548891 452.70261 136.583139 452.70261 136.583139 328.33557 121.548891 328.33557"></polygon>
                        <polygon id="Fill-41" fill="#BEE9F9" points="148.345935 452.70261 163.380183 452.70261 163.380183 353.795265 148.345935 353.795265"></polygon>
                        <polygon id="Fill-42" fill="#BEE9F9" points="175.148992 452.70261 190.183241 452.70261 190.183241 418.238805 175.148992 418.238805"></polygon>
                        <polygon id="Fill-43" fill="#BEE9F9" points="201.946037 452.70261 216.980285 452.70261 216.980285 353.795265 201.946037 353.795265"></polygon>
                        <polygon id="Fill-44" fill="#BEE9F9" points="228.749094 452.70261 243.783343 452.70261 243.783343 406.998652 228.749094 406.998652"></polygon>
                        <polygon id="Fill-45" fill="#BEE9F9" points="255.552152 452.70261 270.586401 452.70261 270.586401 376.647244 255.552152 376.647244"></polygon>
                        <polygon id="Fill-46" fill="#BEE9F9" points="282.35521 452.70261 297.389458 452.70261 297.389458 347.800517 282.35521 347.800517"></polygon>
                        <polygon id="Fill-47" fill="#BEE9F9" points="309.152254 452.70261 324.186503 452.70261 324.186503 333.562991 309.152254 333.562991"></polygon>
                        <path d="M160.865855,109.260506 L154.124498,112.755444 L142.572182,132.238374 L122.227837,141.380365 C106.291534,148.538094 94.5527929,162.619757 90.4153678,179.55492 L77.431791,232.692365 C68.4954338,269.278311 66.8176117,307.255039 72.5065712,344.482424 L85.9471892,432.479328 L122.528522,432.479328 L124.84981,301.476102 C124.976098,294.570153 131.699414,255.382486 131.699414,255.382486 L160.865855,109.260506 Z" id="Fill-48" fill="#141D25"></path>
                        <path d="M94.9621695,432.478729 L91.4561828,480.934276 C92.5266212,486.131722 94.4776217,490.262104 99.631362,491.580948 L100.978431,491.922649 L128.809831,493.876937 C133.590722,494.212643 132.173161,491.922649 134.759052,487.906168 L136.815737,484.722957 C138.619847,481.923409 139.582038,478.662267 139.582038,475.335182 L139.582038,469.352423 C139.582038,462.4165 136.629312,455.804293 131.457531,451.152368 L120.023816,435.476103 L120.023816,432.478729 L94.9621695,432.478729 Z" id="Fill-49" fill="#FDF9ED"></path>
                        <g id="Group-19" transform="translate(116.672193, 476.738485) scale(-1, 1) rotate(-293.000000) translate(-116.672193, -476.738485) translate(90.172193, 447.238485)" fill="#FDF9ED">
                            <path d="M42.2861344,25.1351358 L17.8218036,16.7109822 C13.6900499,15.3013629 11.4719506,10.7145063 12.8419531,6.46327347 C14.2228287,2.22322805 18.6807734,-0.0590127614 22.801654,1.35060656 L47.2768579,9.76357267 C51.3977385,11.1843795 53.6267108,15.771236 52.2458353,20.0112814 C50.8758328,24.2625143 46.407015,26.5447551 42.2861344,25.1351358" id="Fill-19"></path>
                            <path d="M39.5939707,38.0700712 L11.4001886,28.3817352 C7.27930795,26.9609284 5.05033559,22.3852593 6.43121115,18.1340265 C7.81208671,13.893981 12.2700314,11.6117402 16.3909121,13.0213596 L44.5846942,22.720883 C48.7055748,24.1305023 50.9236741,28.7173588 49.5536716,32.9574043 C48.172796,37.2086371 43.7148513,39.4908779 39.5939707,38.0700712" id="Fill-20"></path>
                            <path d="M33.8660554,50.0876353 L11.4023632,42.3682913 C7.28148256,40.9474846 5.0525102,36.3494406 6.43338576,32.1205826 C7.81426132,27.8805372 12.272206,25.5871089 16.3930867,27.0079157 L38.8567789,34.7272596 C42.9776595,36.1368789 45.1957588,40.7237355 43.8257563,44.9749683 C42.4448807,49.2150138 37.986936,51.4972546 33.8660554,50.0876353" id="Fill-21"></path>
                            <path d="M12.3048252,53.2961973 C8.18394454,51.886578 -0.949848114,39.5217287 0.431027448,35.2704958 C1.80102997,31.0304504 13.174668,36.5262024 17.2955486,37.9358217 L31.3652571,42.7799897 C35.4861377,44.2007965 37.7042371,48.787653 36.3342345,53.0276984 C34.953359,57.2677438 30.4954142,59.5611721 26.3745336,58.1403653 L12.3048252,53.2961973 Z" id="Fill-22"></path>
                        </g>
                        <polygon id="Fill-50" fill="#E9CD7F" points="342.029148 323.821525 439.751762 323.821525 439.751762 308.834655 342.029148 308.834655"></polygon>
                        <polygon id="Fill-51" fill="#E7EBEF" points="342.029148 358.291326 439.751762 358.291326 439.751762 350.797891 342.029148 350.797891"></polygon>
                        <polygon id="Fill-52" fill="#E7EBEF" points="342.029148 376.653238 439.751762 376.653238 439.751762 369.159804 342.029148 369.159804"></polygon>
                        <polygon id="Fill-53" fill="#E7EBEF" points="342.029148 395.009157 439.751762 395.009157 439.751762 387.515722 342.029148 387.515722"></polygon>
                        <polygon id="Fill-54" fill="#E7EBEF" points="342.029148 413.371069 390.890455 413.371069 390.890455 405.877634 342.029148 405.877634"></polygon>
                    </g>
                </g>
            </g>
        </g>
    </g>
</svg>