<?xml version="1.0" encoding="UTF-8"?>
<svg width="30px" height="30px" viewBox="0 0 30 30" version="1.1" xmlns="http://www.w3.org/2000/svg" xmlns:xlink="http://www.w3.org/1999/xlink">
    <!-- Generator: Sketch 50.2 (55047) - http://www.bohemiancoding.com/sketch -->
    <title>Artboard Copy 2</title>
    <desc>Created with Sketch.</desc>
    <defs></defs>
    <g id="Artboard-Copy-2" stroke="none" stroke-width="1" fill="none" fill-rule="evenodd">
        <path d="M17.6146674,15.0000516 L25.458476,7.15623386 C26.180508,6.43420101 26.180508,5.26355748 25.458476,4.54162793 C24.736444,3.81959508 23.5659051,3.81959508 22.8438731,4.54162793 L14.9999613,12.385549 L7.15604939,4.54152464 C6.43401739,3.81949179 5.26347853,3.81949179 4.54144653,4.54152464 C3.81951782,5.26355748 3.81951782,6.43420101 4.54144653,7.15613057 L12.3853584,14.9999484 L4.54144653,22.8438694 C3.81951782,23.5659023 3.81951782,24.7365458 4.54144653,25.4584754 C5.26347853,26.1805082 6.43401739,26.1805082 7.15604939,25.4584754 L14.9999613,17.6145543 L22.8438731,25.4584754 C23.5658018,26.1805082 24.736444,26.1805082 25.458476,25.4584754 C26.180508,24.7364425 26.180508,23.5659023 25.458476,22.8438694 L17.6146674,15.0000516 Z" id="Shape" fill="#FFFFFF" fill-rule="nonzero"></path>
    </g>
</svg>