<?xml version="1.0" encoding="UTF-8"?>
<svg width="30px" height="30px" viewBox="0 0 30 30" version="1.1" xmlns="http://www.w3.org/2000/svg" xmlns:xlink="http://www.w3.org/1999/xlink">
    <!-- Generator: Sketch 50.2 (55047) - http://www.bohemiancoding.com/sketch -->
    <title>Artboard Copy</title>
    <desc>Created with Sketch.</desc>
    <defs></defs>
    <g id="Artboard-Copy" stroke="none" stroke-width="1" fill="none" fill-rule="evenodd">
        <path d="M25.3875,8.50760825 C24.8200937,9.38101024 24.0995972,10.1472616 23.2697503,10.7615086 C23.2770405,10.9471532 23.2806854,11.1365357 23.2806854,11.3259181 C23.2806854,17.0809019 19.0099511,23.7155172 11.1974842,23.7155172 C8.80028397,23.7155172 6.56710908,22.9941197 4.6875,21.7606418 C5.01919572,21.8005118 5.35818145,21.8204468 5.7008122,21.8204468 C7.68977153,21.8204468 9.52199552,21.123968 10.9751387,19.9552789 C9.11618462,19.9216386 7.54883122,18.6619961 7.00815504,16.9326354 C7.2669506,16.9837188 7.53425119,17.0098834 7.80762678,17.0098834 C8.19521262,17.0098834 8.57064842,16.9588 8.92664417,16.8566332 C6.98263999,16.4579333 5.5185618,14.697424 5.5185618,12.5868065 L5.5185618,12.5332312 C6.09204305,12.8571749 6.74814447,13.0552789 7.44312599,13.0764598 C6.30345351,12.2952572 5.55379688,10.9621045 5.55379688,9.45202862 C5.55379688,8.65462884 5.76277733,7.9058206 6.12849313,7.26042515 C8.22437268,9.8980741 11.3530045,11.6299267 14.8825872,11.8118336 C14.809687,11.4928737 14.7732369,11.1614544 14.7732369,10.8200676 C14.7732369,8.4154089 16.674716,6.46551724 19.0184561,6.46551724 C20.2407488,6.46551724 21.3451862,6.9937946 22.1179279,7.83978593 C23.0875,7.64541973 23.9951069,7.28285202 24.8164488,6.78447716 C24.499333,7.80116188 23.8262216,8.65462884 22.9489897,9.19287368 C23.8079965,9.08821497 24.6269083,8.85397878 25.3875,8.50760825 Z" id="Rectangle-2-Copy-Copy" fill="#FFFFFF" fill-rule="nonzero"></path>
    </g>
</svg>