<?xml version="1.0" encoding="UTF-8"?>
<svg width="30px" height="30px" viewBox="0 0 30 30" version="1.1" xmlns="http://www.w3.org/2000/svg" xmlns:xlink="http://www.w3.org/1999/xlink">
    <!-- Generator: Sketch 50.2 (55047) - http://www.bohemiancoding.com/sketch -->
    <title>Artboard</title>
    <desc>Created with Sketch.</desc>
    <defs></defs>
    <g id="Artboard" stroke="none" stroke-width="1" fill="none" fill-rule="evenodd">
        <path d="M25.1636364,23.925 L20.5665526,23.925 L20.5665526,17.2984712 C20.5665526,15.5639864 19.8474558,14.3799017 18.2661764,14.3799017 C17.0566749,14.3799017 16.3840503,15.1789476 16.0709741,15.9490251 C15.9535705,16.2254322 15.9719148,16.610471 15.9719148,16.9955097 L15.9719148,23.925 L11.4176345,23.925 C11.4176345,23.925 11.4763363,12.18675 11.4176345,11.1197461 L15.9719148,11.1197461 L15.9719148,13.1294311 C16.2409647,12.250722 17.6962798,10.9966303 20.0186693,10.9966303 C22.8999487,10.9966303 25.1636364,12.8385397 25.1636364,16.8048009 L25.1636364,23.925 Z M6.81199008,9.51803323 L6.78263918,9.51803323 C5.3150945,9.51803323 4.36363636,8.53914164 4.36363636,7.29832714 C4.36363636,6.03337229 5.34322244,5.075 6.84011802,5.075 C8.33579064,5.075 9.25545199,6.03095825 9.28480289,7.29470609 C9.28480289,8.53552059 8.33579064,9.51803323 6.81199008,9.51803323 Z M4.88828359,11.1197461 L8.94237578,11.1197461 L8.94237578,23.925 L4.88828359,23.925 L4.88828359,11.1197461 Z" id="Rectangle-2-Copy-2-Copy" fill="#818181" fill-rule="nonzero"></path>
    </g>
</svg>