<?xml version="1.0" encoding="UTF-8"?>
<svg width="453px" height="391px" viewBox="0 0 453 391" version="1.1" xmlns="http://www.w3.org/2000/svg" xmlns:xlink="http://www.w3.org/1999/xlink">
    <!-- Generator: Sketch 50 (54983) - http://www.bohemiancoding.com/sketch -->
    <title>Artboard</title>
    <desc>Created with Sketch.</desc>
    <defs></defs>
    <g id="Artboard" stroke="none" stroke-width="1" fill="none" fill-rule="evenodd">
        <g id="iconSecurite-2" transform="translate(101.000000, 77.000000)">
            <path d="M126.500536,249 C125.620191,249 124.736629,248.861718 123.886308,248.589441 C95.2820657,239.431725 70.9294285,221.862373 51.502863,196.373414 C36.2110238,176.304262 23.9633982,151.326626 15.1084787,122.136204 C0.171565407,72.8980698 0,29.0357925 0,27.1931009 C0,22.775572 3.35517599,19.0826852 7.75261184,18.6549749 C8.41528322,18.5928015 75.03842,35.3378192 121.460802,1.63768049 C124.468558,-0.548036882 128.535731,-0.54374906 131.543487,1.63768049 C177.953002,35.3378192 244.585789,18.5928015 245.251677,18.6592627 C249.644824,19.085901 253,22.7798599 253,27.1931009 C253,29.0357925 252.828435,72.8980698 237.891521,122.136204 C229.037674,151.326626 216.790049,176.304262 201.497137,196.373414 C182.074861,221.862373 157.722223,239.431725 129.117981,248.589441 C128.26766,248.861718 127.384098,249 126.500536,249 Z" id="Stroke-1" stroke="#304658" stroke-width="5"></path>
            <path d="M127,249 C127.887058,249 128.774116,248.861718 129.627802,248.589441 C158.345226,239.431735 182.794222,221.862402 202.293349,196.373471 C217.646772,176.30434 229.942859,151.326731 238.83174,122.136341 C253.828832,72.898259 254,29.0360289 254,27.1933392 C254,22.780103 250.631548,19.0861481 246.221019,18.6595103 C245.552496,18.5930491 178.656054,35.3380488 132.062905,1.63794632 C130.552538,0.546696745 128.776269,0.0010719544 127,0 L127,249 Z" id="Fill-3" fill="#44B9E4" fill-rule="nonzero" opacity="0.100000001"></path>
            <path d="M192,122.5 C192,158.674805 162.674564,188 126.499462,188 C90.3254359,188 61,158.674805 61,122.5 C61,86.325195 90.3254359,57 126.499462,57 C162.674564,57 192,86.325195 192,122.5" id="Fill-5" fill="#00A0DB" fill-rule="nonzero"></path>
            <path d="M195,122.5 C195,160.331665 164.331413,191 126.499462,191 C88.6684132,191 58,160.331491 58,122.5 C58,84.6685092 88.6684132,54 126.499462,54 C164.331413,54 195,84.6683353 195,122.5 Z" id="Stroke-7" stroke="#FEFEFE" stroke-width="6"></path>
            <path d="M125.987251,57 C105.313656,57 86.9069913,66.6614167 75,81.7023887 C86.0815851,72.930446 100.078253,67.6779583 115.309293,67.6779583 C151.214995,67.6779583 180.322042,96.7850048 180.322042,132.690707 C180.322042,147.921747 175.069554,161.918415 166.296543,173 C181.337516,161.091941 191,142.686344 191,122.012749 C191,86.1070465 161.892953,57 125.987251,57" id="Fill-9" fill="#FEFEFE" fill-rule="nonzero" opacity="0.267665578"></path>
            <path d="M141.118771,114.909374 L141.118771,107.61166 C141.118771,99.5391587 134.574718,93 126.5,93 C118.418782,93 111.872563,99.5391587 111.872563,107.61166 L111.872563,114.909374 C109.183879,114.909374 107,117.091979 107,119.778845 L107,144.131611 C107,146.817395 109.183879,149 111.872563,149 L141.118771,149 C143.815038,149 146,146.817395 146,144.131611 L146,119.778845 C146,117.091979 143.815038,114.909374 141.118771,114.909374 Z M116.746209,107.61166 C116.746209,102.230353 121.115049,97.868389 126.5,97.868389 C131.884951,97.868389 136.246209,102.230353 136.246209,107.61166 L136.246209,114.909374 L116.746209,114.909374 L116.746209,107.61166 Z M111.872563,144.131611 L111.872563,119.784255 L141.118771,119.784255 L141.118771,144.131611 L111.872563,144.131611 Z M124.059386,133.717435 L124.059386,136.826322 C124.059386,138.170296 125.154575,139.256729 126.5,139.256729 C127.845425,139.256729 128.933031,138.170296 128.933031,136.826322 L128.933031,133.717435 C130.385701,132.873394 131.372563,131.316245 131.372563,129.521033 C131.372563,126.827675 129.188684,124.652644 126.5,124.652644 C123.803733,124.652644 121.626354,126.827675 121.626354,129.521033 C121.626354,131.316245 122.6078,132.873394 124.059386,133.717435 Z" id="Fill-11" fill="#FEFEFE" fill-rule="nonzero"></path>
        </g>
    </g>
</svg>