<?xml version="1.0" encoding="utf-8"?>
<!-- Generator: Adobe Illustrator 18.0.0, SVG Export Plug-In . SVG Version: 6.00 Build 0)  -->
<!DOCTYPE svg PUBLIC "-//W3C//DTD SVG 1.1//EN" "http://www.w3.org/Graphics/SVG/1.1/DTD/svg11.dtd">
<svg version="1.1" id="Calque_1" xmlns="http://www.w3.org/2000/svg" xmlns:xlink="http://www.w3.org/1999/xlink" x="0px" y="0px"
	 viewBox="-20 138 646 545" enable-background="new -20 138 646 545" xml:space="preserve">
<title>01-Home BLEU 2</title>
<desc>Created with Sketch.</desc>
<g id="_x30_1-Home-BLEU-2" transform="translate(-106.000000, -2007.000000)">
	<g id="frais-sans-surprise-1" transform="translate(138.000000, 2120.000000)">
		<polygon id="Shape" opacity="0.2" fill="#304658" enable-background="new    " points="6.8,298.4 10.5,283.3 14.3,268.3 25.4,279 
			36.6,289.7 21.7,294.1 		"/>
		<circle id="Oval" fill="#FFFFFF" stroke="#304658" stroke-width="4" cx="98.2" cy="384" r="91.1"/>
		<path id="Shape_1_" opacity="0.2" fill="#304658" enable-background="new    " d="M98.2,292.9c-27.1,0-52.7,12-70,32.8
			c38.7-32.1,96.2-26.7,128.3,12c28,33.8,28,82.6,0,116.3c38.7-32.2,43.9-89.7,11.7-128.3C150.8,304.9,125.2,292.9,98.2,292.9z"/>
		<polygon id="Shape_2_" opacity="0.2" fill="#304658" enable-background="new    " points="249.6,421.5 253.9,404.6 258,387.5 
			299.2,406.7 340.4,425.8 295.1,423.6 		"/>
		<polygon id="Shape_3_" opacity="0.2" fill="#304658" enable-background="new    " points="90.5,221.9 107,215.4 123.5,208.8 
			125.1,237.1 126.9,265.3 108.6,243.6 		"/>
		<g id="Group" transform="translate(44.000000, 190.000000)">
			<path id="Shape_4_" fill="#E9CD7F" d="M41.5,192.1v5.4H17.9v-5.4h8.6v-24.8c0-0.9,0-2,0.1-3.1l-6.1,5.2c-0.4,0.2-0.7,0.5-1.1,0.5
				c-0.4,0.1-0.7,0.1-0.9,0c-0.4-0.1-0.6-0.1-0.8-0.4c-0.2-0.1-0.4-0.4-0.5-0.5l-2.4-3.2l12.9-11.1h6V192h7.6V192.1z"/>
			<path id="Shape_5_" fill="#E9CD7F" d="M67,165.3c0,1.6-0.2,3.1-0.8,4.4s-1.3,2.4-2.1,3.3c-0.9,0.9-2,1.6-3.2,2.1
				s-2.5,0.7-3.8,0.7c-1.4,0-2.7-0.2-3.9-0.7c-1.2-0.5-2.2-1.2-3.1-2.1c-0.8-0.9-1.5-2-2-3.3c-0.5-1.3-0.7-2.7-0.7-4.4
				s0.2-3.2,0.7-4.5s1.2-2.5,2-3.4c0.8-0.9,1.9-1.6,3.1-2.1c1.2-0.5,2.5-0.7,3.9-0.7s2.7,0.2,3.9,0.7s2.2,1.2,3.2,2.1
				c0.9,0.9,1.5,2,2.1,3.4C66.8,162.2,67,163.6,67,165.3z M81.2,156.1c0.2-0.2,0.6-0.6,0.9-0.8c0.4-0.2,0.8-0.4,1.4-0.4h5.3
				l-31.7,41.4c-0.2,0.4-0.6,0.6-0.9,0.8c-0.4,0.2-0.8,0.4-1.3,0.4h-5.4L81.2,156.1z M61.5,165.3c0-1.2-0.1-2.1-0.4-2.8
				c-0.2-0.8-0.6-1.4-0.9-1.9c-0.4-0.5-0.8-0.8-1.4-1.1c-0.6-0.2-1.1-0.4-1.6-0.4c-0.6,0-1.2,0.1-1.6,0.4s-0.9,0.6-1.3,1.1
				c-0.4,0.5-0.7,1.1-0.8,1.9c-0.1,0.8-0.4,1.8-0.4,2.8s0.1,2,0.4,2.7c0.2,0.7,0.5,1.3,0.8,1.8c0.4,0.5,0.8,0.8,1.3,0.9
				c0.5,0.2,1.1,0.2,1.6,0.2c0.6,0,1.2-0.1,1.6-0.2c0.5-0.2,0.9-0.5,1.4-0.9c0.5-0.5,0.7-1.1,0.9-1.8
				C61.3,167.3,61.5,166.4,61.5,165.3z M91.1,187.5c0,1.6-0.2,3.1-0.8,4.4c-0.6,1.3-1.3,2.4-2.1,3.3c-0.9,0.9-2,1.6-3.2,2.1
				c-1.2,0.5-2.5,0.7-3.8,0.7c-1.4,0-2.7-0.2-3.9-0.7c-1.2-0.5-2.2-1.2-3.1-2.1s-1.5-2-2-3.3s-0.7-2.7-0.7-4.4s0.2-3.2,0.7-4.5
				c0.5-1.3,1.2-2.5,2-3.4c0.8-0.9,1.9-1.6,3.1-2.1c1.2-0.5,2.5-0.7,3.9-0.7s2.7,0.2,3.9,0.7s2.2,1.2,3.1,2.1c0.8,0.9,1.5,2,2.1,3.4
				C90.9,184.4,91.1,185.9,91.1,187.5z M85.5,187.5c0-1.2-0.1-2.1-0.4-2.8c-0.2-0.8-0.5-1.4-0.9-1.9c-0.5-0.5-0.8-0.8-1.3-1.1
				c-0.5-0.2-1.1-0.4-1.6-0.4c-0.6,0-1.2,0.1-1.6,0.4s-0.9,0.6-1.3,1.1c-0.4,0.5-0.7,1.1-0.8,1.9c-0.2,0.7-0.4,1.8-0.4,2.8
				c0,1.1,0.1,2,0.4,2.7c0.2,0.7,0.5,1.3,0.8,1.8c0.4,0.5,0.8,0.8,1.3,0.9c0.5,0.2,1.1,0.2,1.6,0.2c0.6,0,1.2-0.1,1.6-0.2
				c0.5-0.2,0.9-0.5,1.3-0.9c0.4-0.5,0.7-1.1,0.9-1.8C85.4,189.5,85.5,188.7,85.5,187.5z"/>
		</g>
		<g id="Group_1_" transform="translate(46.000000, 235.000000)">
			<path id="Shape_6_" fill="#304658" d="M40.9,162.3V187h-4v-16c0-0.6,0-1.3,0.1-2.1l-7.4,14c-0.4,0.7-0.9,1.1-1.6,1.1h-0.7
				c-0.7,0-1.3-0.4-1.6-1.1l-7.5-14c0,0.4,0.1,0.7,0.1,1.1s0,0.7,0,1.1v15.9h-4v-24.7h3.4c0.2,0,0.4,0,0.5,0c0.1,0,0.2,0,0.4,0.1
				c0.1,0.1,0.2,0.1,0.4,0.2c0.1,0.1,0.2,0.2,0.2,0.4l7.4,13.7c0.2,0.4,0.4,0.7,0.6,1.2c0.1,0.4,0.4,0.8,0.5,1.2
				c0.1-0.5,0.4-0.8,0.5-1.2c0.1-0.4,0.4-0.8,0.6-1.2l7.3-13.7c0.1-0.1,0.2-0.4,0.2-0.4c0.1-0.1,0.2-0.1,0.4-0.2s0.2-0.1,0.4-0.1
				s0.4,0,0.5,0h3.6V162.3z"/>
			<path id="Shape_7_" fill="#304658" d="M67.5,187h-3.5c-0.4,0-0.7-0.1-0.9-0.4s-0.5-0.5-0.6-0.7l-1.9-5.1H50.3l-1.9,5.1
				c-0.1,0.2-0.2,0.5-0.5,0.7c-0.2,0.2-0.6,0.4-0.9,0.4h-3.5l9.7-24.7h4.7L67.5,187z M59.3,177.6l-3.1-8.2c-0.1-0.4-0.4-0.8-0.5-1.3
				c-0.1-0.5-0.4-1.1-0.5-1.6c-0.1,0.6-0.4,1.2-0.5,1.6c-0.1,0.5-0.4,0.9-0.5,1.3l-2.9,8.1h7.9V177.6z"/>
			<path id="Shape_8_" fill="#304658" d="M90.1,187h-4.6c-0.4,0-0.6-0.1-0.7-0.2c-0.2-0.1-0.4-0.4-0.5-0.6l-5.8-9.4
				c-0.1,0.2-0.2,0.6-0.4,0.7l-5.5,8.7c-0.1,0.2-0.2,0.4-0.5,0.6c-0.2,0.1-0.4,0.2-0.7,0.2h-4.2l8.2-12.7l-7.9-12h4.6
				c0.4,0,0.6,0,0.7,0.1c0.1,0.1,0.2,0.2,0.4,0.5l5.6,9.1c0.1-0.2,0.2-0.6,0.4-0.8l5.2-8.1c0.1-0.2,0.2-0.4,0.4-0.5s0.4-0.1,0.6-0.1
				h4.4l-7.9,11.8L90.1,187z"/>
		</g>
		<polygon id="Shape_9_" opacity="0.2" fill="#304658" enable-background="new    " points="156.3,224.1 149.7,220.1 143.2,216.1 
			154.5,204.8 165.8,193.7 161.1,208.8 		"/>
		<polygon id="Shape_10_" opacity="0.2" fill="#304658" enable-background="new    " points="218.6,468.1 200.6,457.1 182.4,446.1 
			201,436 219.5,425.8 219,446.9 		"/>
		<polygon id="Shape_11_" opacity="0.2" fill="#304658" enable-background="new    " points="377.2,394.6 365.2,367.6 353.2,340.7 
			397.3,337.1 441.6,333.6 409.3,364.1 		"/>
		<polygon id="Shape_12_" opacity="0.2" fill="#304658" enable-background="new    " points="216,316.7 206.8,292.9 197.6,269.1 
			222.8,273 248,276.9 232,296.8 		"/>
		<polygon id="Shape_13_" fill="#E9CD7F" points="447.5,170.1 463.5,146.8 540.3,182.1 451.7,175.4 		"/>
		<polygon id="Shape_14_" fill="#E9CD7F" points="376.6,271.5 298.2,344 298.5,353.4 		"/>
		<polygon id="Shape_15_" fill="#90A3AA" points="455,249.6 344.5,120.8 399.8,261.3 		"/>
		<polygon id="Shape_16_" fill="#36475A" points="437.6,209.9 222.8,158 403,254.5 		"/>
		<polygon id="Shape_17_" fill="#36475A" points="449.9,166.8 450.4,169 469.5,258.5 344.1,303.1 		"/>
		<polygon id="Shape_18_" opacity="0.2" fill="#304658" enable-background="new    " points="288.5,249.7 287.8,243.5 286.9,237.1 
			298.2,238.9 309.7,240.7 299.1,245.2 		"/>
		<polygon id="Shape_19_" opacity="0.2" fill="#304658" enable-background="new    " points="260.9,333.6 265.5,338 270.1,342.4 
			260.1,348.2 250.1,353.8 255.5,343.7 		"/>
	</g>
</g>
</svg>
