<?xml version="1.0" encoding="utf-8"?>
<!-- Generator: Adobe Illustrator 18.0.0, SVG Export Plug-In . SVG Version: 6.00 Build 0)  -->
<!DOCTYPE svg PUBLIC "-//W3C//DTD SVG 1.1//EN" "http://www.w3.org/Graphics/SVG/1.1/DTD/svg11.dtd">
<svg version="1.1" id="Calque_1" xmlns="http://www.w3.org/2000/svg" xmlns:xlink="http://www.w3.org/1999/xlink" x="0px" y="0px"
	 viewBox="0 -13 612 551" enable-background="new 0 -13 612 551" xml:space="preserve">
<title>01-Home BLEU 2</title>
<desc>Created with Sketch.</desc>
<g id="PAGES-WEBBFRONT">
	<g id="_x30_1-Home-BLEU-2" transform="translate(-138.000000, -3030.000000)">
		<g id="iconSecurite-2" transform="translate(239.000000, 3183.000000)">
			<path id="Stroke-1" fill="none" stroke="#304658" stroke-width="5" d="M204,227.9c-0.9,0-1.7-0.1-2.5-0.4
				c-27.2-8.8-50.3-25.3-68.8-49.6c-14.6-19.1-26.1-42.8-34.6-70.5C84,60.5,83.8,18.9,83.8,17.1c0-4.2,3.2-7.7,7.4-8
				c0.6-0.1,63.9,15.8,108-16.2c2.8-2.1,6.8-2.1,9.6,0C252.9,24.9,316.1,9,316.8,9c4.2,0.4,7.3,3.9,7.3,8c0,1.7-0.2,43.4-14.3,90.2
				c-8.4,27.7-20,51.5-34.6,70.5c-18.4,24.2-41.6,40.9-68.8,49.6C205.6,227.8,204.8,227.9,204,227.9z"/>
			<path id="Fill-3" opacity="0.1" fill="#44B9E4" enable-background="new    " d="M204.4,227.9c0.9,0,1.7-0.1,2.5-0.4
				c27.3-8.8,50.6-25.3,69.1-49.6c14.6-19.1,26.2-42.8,34.7-70.5c14.2-46.7,14.5-88.5,14.5-90.2c0-4.2-3.2-7.7-7.4-8
				C317,9,253.5,25,209.2-7c-1.4-1.2-3.1-1.7-4.7-1.7V227.9z"/>
			<path id="Fill-5" fill="#00A0DB" d="M266.2,107.6c0,34.4-27.8,62.2-62.2,62.2s-62.2-27.8-62.2-62.2s27.8-62.2,62.2-62.2
				S266.2,73.3,266.2,107.6"/>
			<path id="Stroke-7" fill="none" stroke="#FEFEFE" stroke-width="6" d="M269,107.6c0,35.9-29.2,65.1-65.1,65.1
				s-65.1-29.2-65.1-65.1s29.2-65.1,65.1-65.1S269,71.8,269,107.6z"/>
			<path id="Fill-9" opacity="0.2677" fill="#FEFEFE" enable-background="new    " d="M203.5,45.5c-19.7,0-37.2,9.2-48.5,23.5
				c10.5-8.4,23.9-13.3,38.3-13.3c34.1,0,61.8,27.7,61.8,61.8c0,14.5-5.1,27.7-13.3,38.3c14.2-11.3,23.5-28.8,23.5-48.5
				C265.2,73.1,237.6,45.5,203.5,45.5"/>
			<path id="Fill-11" fill="#FEFEFE" d="M217.9,100.5v-7c0-7.7-6.2-13.8-13.8-13.8c-7.7,0-13.8,6.2-13.8,13.8v6.9
				c-2.6,0-4.7,2.1-4.7,4.7v23.2c0,2.6,2.1,4.7,4.7,4.7h27.7c2.6,0,4.7-2.1,4.7-4.7v-23.2C222.5,102.6,220.4,100.5,217.9,100.5z
				 M194.6,93.5c0-5.1,4.2-9.2,9.3-9.2c5.1,0,9.2,4.2,9.2,9.2v6.9h-18.5L194.6,93.5L194.6,93.5z M190.1,128.2v-23.1h27.7v23.1H190.1
				z M201.7,118.3v3c0,1.2,1,2.3,2.3,2.3c1.2,0,2.3-1,2.3-2.3v-3c1.4-0.7,2.3-2.3,2.3-4c0-2.6-2.1-4.7-4.7-4.7s-4.7,2.1-4.7,4.7
				C199.3,116,200.3,117.5,201.7,118.3z"/>
		</g>
	</g>
</g>
</svg>
