<svg id="Calque_1" data-name="Calque 1" xmlns="http://www.w3.org/2000/svg" viewBox="0 0 980.2 255.02"><defs><style>.cls-1{fill:#fff;}.cls-2{fill:#90a3aa;}.cls-3{fill:#e7cb86;}</style></defs><title>logo-birdee-long-blanc</title><path class="cls-1" d="M62.09,221.21a16.58,16.58,0,0,1-2.62,9.17,19.48,19.48,0,0,1-7.61,6.67,36.31,36.31,0,0,1-9.72,3.34,62.93,62.93,0,0,1-12.11,1q-5,0-10.36-.18T13.75,241q.15-9.78.2-18.47T14,206q0-15-.13-23.71t-.13-9.09q.71-.05,5.62-.25t9.54-.2a63.14,63.14,0,0,1,9.67.69,34.62,34.62,0,0,1,7.48,1.91,16.67,16.67,0,0,1,7.28,5.27A13.42,13.42,0,0,1,56,189a14.24,14.24,0,0,1-3.32,9.3,17,17,0,0,1-7.58,5.53v.51A23.22,23.22,0,0,1,51.88,206a17.4,17.4,0,0,1,5.79,3.85,15.22,15.22,0,0,1,3.3,4.84A16.8,16.8,0,0,1,62.09,221.21Zm-8.66.25a11.36,11.36,0,0,0-.92-4.66,13.65,13.65,0,0,0-2.75-3.95,12.52,12.52,0,0,0-4.76-2.8A19.7,19.7,0,0,0,38.4,209q-2.85,0-4.61.05l-2.32.05L30.66,203a28.07,28.07,0,0,0,6.65-.89,16.26,16.26,0,0,0,5.12-2.37,12.32,12.32,0,0,0,3.51-3.9,10.4,10.4,0,0,0,1.38-5.32,9.4,9.4,0,0,0-1.53-5.37,10.67,10.67,0,0,0-4.17-3.59,20.49,20.49,0,0,0-5.49-1.6,43,43,0,0,0-7-.53q-2.39,0-4.4.08t-2.57.08Q22.05,187,22,195.34t0,12.12q0,8.76.08,17.6t.08,9.45l2.72.13q1.7.08,3.28.08A89.91,89.91,0,0,0,39,234.1a22.91,22.91,0,0,0,8.47-2.55,11.6,11.6,0,0,0,4.4-4.13A11.23,11.23,0,0,0,53.43,221.47Z"/><path class="cls-1" d="M135.4,195.74a82.31,82.31,0,0,0-8.58,2.8q-5.78,2.14-13.32,5.71,0,.56-.05,5.12t-.05,8.48q0,6,.13,14.26t.13,9.17h-8q0-.86.1-5.71t.1-16.56q0-4.74-.05-13.24t-.15-16h7.9v7.74l.05.05a113.93,113.93,0,0,1,11.36-5.65,66.8,66.8,0,0,1,9-3.26Z"/><path class="cls-1" d="M178.3,242l-1.94,0-2.6,0a104.73,104.73,0,0,1-15.08-.84A37.79,37.79,0,0,1,148,237.93a24.62,24.62,0,0,1-10.29-8.65,21.53,21.53,0,0,1-3.51-12,24.44,24.44,0,0,1,3.92-13.72,26,26,0,0,1,11.31-9.34,40.91,40.91,0,0,1,9.93-3.08,60,60,0,0,1,11-1l-.15-23.48h8q0,1-.1,14.25t-.1,26.83q0,10.74.08,19.42T178.3,242Zm-7.9-35.77v-9.41a51,51,0,0,0-9.6.86,33.78,33.78,0,0,0-7.72,2.34,18.12,18.12,0,0,0-7.9,6.69,18.42,18.42,0,0,0-2.8,10.2,15,15,0,0,0,2.7,9,19.32,19.32,0,0,0,6.72,5.9,29.92,29.92,0,0,0,7.92,2.82,44.22,44.22,0,0,0,9.25.94h1.32q0-.46.05-7.61T170.41,206.28Z"/><path class="cls-1" d="M283.61,213.62H246.78a22.42,22.42,0,0,0,2.29,9.91,18.63,18.63,0,0,0,6.88,7.46,22.55,22.55,0,0,0,6.72,2.83,37.82,37.82,0,0,0,9.07.94q2.9,0,5.32-.15l3-.2-.92,6.78q-.41.05-2.7.18t-5.4.13a42.94,42.94,0,0,1-14.19-2.11,26.88,26.88,0,0,1-9.91-5.83,26.33,26.33,0,0,1-5.63-7.95A24.55,24.55,0,0,1,239,214.85a30.08,30.08,0,0,1,1.73-10.49,28.38,28.38,0,0,1,5.2-8.71,20.07,20.07,0,0,1,7.46-5.35,23.51,23.51,0,0,1,9.25-1.88,23.08,23.08,0,0,1,8.41,1.43,17,17,0,0,1,6.37,4.33,21.78,21.78,0,0,1,4.58,8A37.5,37.5,0,0,1,283.61,213.62Zm-7.9-5.71q-.82-6.32-4.3-9.91a12.24,12.24,0,0,0-9.19-3.59,13.27,13.27,0,0,0-9.53,3.64,19.44,19.44,0,0,0-5.3,9.86Z"/><path class="cls-2" d="M86.15,182.51c0-6.82,0-9.15,0-11.53h-8c.07,3.63.21,10.31.24,18.91Z"/><path class="cls-2" d="M85.89,215q0-5,.08-11.39c0-1.75,0,3,0-2.58l-7.78,8.09c0,2.46.07,3.56.07,7.06q0,6-.08,15.23t-.13,10h8q0-.2-.13-7.39T85.89,215Z"/><polygon class="cls-3" points="204.7 47.75 218.29 27.99 283.61 58.02 208.23 52.28 204.7 47.75"/><polygon class="cls-3" points="144.43 133.91 77.9 195.51 78.1 203.47 144.43 133.91"/><polygon class="cls-2" points="211.04 115.33 117.2 5.9 164.12 125.26 211.04 115.33"/><polygon class="cls-1" points="196.26 81.65 13.75 37.47 166.84 119.53 196.26 81.65"/><polygon class="cls-1" points="206.75 45.02 207.13 46.8 223.4 122.94 116.83 160.85 206.75 45.02"/><path class="cls-1" d="M230.25,213.65H194.1a22,22,0,0,0,2.25,9.73,18.29,18.29,0,0,0,6.75,7.33,22.15,22.15,0,0,0,6.6,2.78,37.11,37.11,0,0,0,8.9.93q2.85,0,5.23-.15l2.93-.2-.9,6.65q-.4.05-2.65.17t-5.3.13A42.17,42.17,0,0,1,204,238.93a26.4,26.4,0,0,1-9.73-5.73,25.84,25.84,0,0,1-5.53-7.8,24.1,24.1,0,0,1-2.28-10.55,29.53,29.53,0,0,1,1.7-10.3,27.84,27.84,0,0,1,5.1-8.55,19.69,19.69,0,0,1,7.33-5.25,23.09,23.09,0,0,1,9.08-1.85,22.66,22.66,0,0,1,8.25,1.4,16.71,16.71,0,0,1,6.25,4.25,21.37,21.37,0,0,1,4.5,7.88A36.8,36.8,0,0,1,230.25,213.65ZM222.5,208a16.56,16.56,0,0,0-4.23-9.73,12,12,0,0,0-9-3.53,13,13,0,0,0-9.35,3.58,19.09,19.09,0,0,0-5.2,9.68Z"/><path class="cls-1" d="M402.44,239.78,396.22,241l-7.88-42.85-.05-.06q-1.49,3.1-6.61,14.37t-10,22.62h-5.27q-4.55-10.5-10-22.7t-6.45-14.23h-.08q-.23,1-3.1,14.61t-5.47,28.17l-5.86-1.07q3.82-16.46,7.14-32.61t3.63-17.52l6.07-.88,5.4,12.29q5,11.42,11.82,26.31h.23q5.19-11.68,11-24.89t6-13.71l5.77.46q.11.84,3.17,16.74T402.44,239.78Z"/><path class="cls-1" d="M460,215a29.71,29.71,0,0,1-2.12,11.36,25.29,25.29,0,0,1-5.51,8.53A23.16,23.16,0,0,1,435.29,242a24.53,24.53,0,0,1-8.93-1.62,22.7,22.7,0,0,1-7.55-4.83,25.75,25.75,0,0,1-6-8.76,29.86,29.86,0,0,1-2.27-11.89,30.57,30.57,0,0,1,1.79-10.71,25.89,25.89,0,0,1,5.38-8.69,23,23,0,0,1,7.9-5.55,25.07,25.07,0,0,1,19.19-.12,23,23,0,0,1,7.59,5.14,25.32,25.32,0,0,1,5.67,9A31.31,31.31,0,0,1,460,215Zm-6.49.61a29.56,29.56,0,0,0-1.66-9.75,19.93,19.93,0,0,0-5.06-8,17,17,0,0,0-5.14-3.44,16,16,0,0,0-6.36-1.22,16.38,16.38,0,0,0-6.4,1.24,16.67,16.67,0,0,0-5.37,3.65,21,21,0,0,0-4.76,7.56,27.76,27.76,0,0,0,0,19.24,20.5,20.5,0,0,0,4.91,7.37,17,17,0,0,0,5.16,3.38,16,16,0,0,0,6.38,1.28,16.31,16.31,0,0,0,6.36-1.24,17.33,17.33,0,0,0,5.37-3.57,21.15,21.15,0,0,0,4.7-7A23.63,23.63,0,0,0,453.52,215.61Z"/><path class="cls-1" d="M517.85,189.42q-.08,6-.13,13.71t-.06,11.11q0,10.84.08,17.24t.08,6.82l-5.08,2.48q-11.53-15.57-21.55-28.11L479.6,198.17l-.08,0q0,10.23.13,25.14t.17,17.2h-6q0-1,.11-6.8t.08-16.26q0-4.16,0-11.05t-.15-14.6l5.8-2.75,11.7,14.84q11,14,20.75,25.94l.08,0q0-5.88-.15-19.78t-.15-20.62Z"/><path class="cls-1" d="M568.14,240.47l-5.08,0q-4.73,0-11.72,0-4.85,0-8.88,0t-6.82,0q.08-2.21.13-9.58t.06-15.23q0-4.31,0-11.42t-.15-14.7q2.71,0,6.78,0t8.38,0q7.29,0,11.87,0l5,0v5.31l-4.79-.06q-4.41-.06-11-.06l-5.61,0-4.35,0q0,4.31-.08,8.61t-.08,8.11l4.07,0,4.18,0q6.72,0,12-.06l5.63-.06v5.27l-6.3-.06q-6-.06-11-.06l-4.37,0-4.26,0q0,7.22,0,11.45t.08,7.1q2.25,0,5.46.06l6.91,0q5.69,0,9.56,0l4.33,0Z"/><path class="cls-1" d="M618.88,191.9l-7.56,9.51q-7.25,9.13-11.68,14.74-.08,6.91,0,14.51t.13,9.89h-6.3q.08-2.29.15-10t0-13.92q-4.66-6.15-11.53-14.87t-7.41-9.37l5-3.82,6,8q5.51,7.37,11.09,14.62h.08q5.39-6.91,11.29-14.56t6.21-8.08Z"/><path class="cls-1" d="M695,240.47l-5.08,0q-4.73,0-11.72,0-4.85,0-8.88,0t-6.82,0q.08-2.21.13-9.58t.06-15.23q0-4.31,0-11.42t-.15-14.7q2.71,0,6.78,0t8.38,0q7.29,0,11.87,0l5,0v5.31l-4.79-.06q-4.41-.06-11-.06l-5.61,0-4.35,0q0,4.31-.08,8.61t-.08,8.11l4.07,0,4.18,0q6.72,0,12-.06l5.63-.06v5.27l-6.3-.06q-6-.06-11-.06l-4.37,0-4.26,0q0,7.22,0,11.45t.08,7.1q2.25,0,5.46.06l6.91,0q5.69,0,9.56,0l4.33,0Z"/><path class="cls-1" d="M747.09,237.26l-5,4.24q-.46-.65-5-6.61t-12.2-16h-.08q-6.6,8.28-11.88,15.16t-5.63,7.37l-4.64-3.86q.27-.31,4.6-5.56t14-17.31v-.08q-4.62-6-10.76-13.88t-6.72-8.53l5-3.74q.5.69,5.22,6.87t11.14,14.51h.08q5.38-6.91,10.79-13.9l5.8-7.48,4.56,3.36q-.38.5-7.12,8.93t-10.74,13.32v.08L741,229.7Q746.74,236.8,747.09,237.26Z"/><path class="cls-1" d="M789.73,206.91a15.73,15.73,0,0,1-3.6,10.08,17.81,17.81,0,0,1-9.63,6.11,36.11,36.11,0,0,1-5.66,1q-3.07.31-6.84.31l.08,16.15h-6.3q0-2.29.11-8.49t.08-19.19q0-4.12,0-10.12t-.15-13.32q1.64,0,3.22,0h2.58a64.15,64.15,0,0,1,11.23.84,21.45,21.45,0,0,1,7.8,2.86,14.61,14.61,0,0,1,5.3,5.67A17.31,17.31,0,0,1,789.73,206.91Zm-6.49,0A11.14,11.14,0,0,0,776,195.83a16.16,16.16,0,0,0-5-1.24q-2.67-.25-5.5-.25h-1.41q0,.42-.08,5.73t-.08,8.4q0,2.83,0,6.68t0,4.39h1.53a46.09,46.09,0,0,0,5.44-.34,17.21,17.21,0,0,0,4.94-1.26,12.35,12.35,0,0,0,5.48-4.24A11.59,11.59,0,0,0,783.24,206.91Z"/><path class="cls-1" d="M834.44,240.47l-5.08,0q-4.73,0-11.72,0-4.85,0-8.88,0t-6.82,0q.08-2.21.13-9.58t.06-15.23q0-4.31,0-11.42t-.15-14.7q2.71,0,6.78,0t8.38,0q7.29,0,11.87,0l5,0v5.31l-4.79-.06q-4.41-.06-11-.06l-5.61,0-4.35,0q0,4.31-.08,8.61t-.08,8.11l4.07,0,4.18,0q6.72,0,12-.06l5.63-.06v5.27l-6.3-.06q-6-.06-11-.06l-4.37,0-4.26,0q0,7.22,0,11.45t.08,7.1q2.25,0,5.46.06l6.91,0q5.69,0,9.56,0l4.33,0Z"/><path class="cls-1" d="M888.61,237.49l-4.78,3.93q-.84-.88-6-6.63t-15.76-17.94l0-.34a19.43,19.43,0,0,0,3.86-1.66,19.89,19.89,0,0,0,4-2.77,12.48,12.48,0,0,0,2.46-3.21,10.64,10.64,0,0,0,1.05-5.12,8.37,8.37,0,0,0-1.55-5.06,8.91,8.91,0,0,0-4.26-3.11,16.21,16.21,0,0,0-4.66-1q-2.44-.17-4.51-.17l-2.1,0-1.07,0q-.08,7.26-.1,12.8t0,7.83q0,5.24.06,14.21t.09,11.27h-6.3q0-2.29.11-8.88t.08-16.4V208.2q0-5.15-.19-18.78l3.81-.08q3.43-.08,6.33-.08a53.23,53.23,0,0,1,6.44.38,22.64,22.64,0,0,1,6.1,1.64,13.77,13.77,0,0,1,6,4.71,12.27,12.27,0,0,1,2.21,7.31,12.78,12.78,0,0,1-3.33,9,29.05,29.05,0,0,1-6.31,5.36v.19q5.23,6.11,11.48,12.61T888.61,237.49Z"/><path class="cls-1" d="M934,194.8l-5.12,0q-4.5,0-13.63,0-.08,7.83-.11,11.88t0,11q0,6.73.06,13.66t.09,9.23H909q.08-2.29.13-9.36t.06-13.83V206.78q0-3.92-.11-12.06-8.13,0-13.19,0l-5.56.06v-5.27q3.93,0,9.56,0t12,0q9.24,0,15.44,0l6.7,0Z"/><path class="cls-1" d="M968.91,226.15a12.71,12.71,0,0,1-1.85,6.89,14.29,14.29,0,0,1-5,4.79,23.37,23.37,0,0,1-6.57,2.54,36.54,36.54,0,0,1-8.22.86q-2.45,0-5.06-.15l-3-.19-.31-5.5q.54.08,3,.29t5.77.21a33.13,33.13,0,0,0,5.23-.53,18.62,18.62,0,0,0,4.93-1.37,9.57,9.57,0,0,0,3.45-2.67,6.32,6.32,0,0,0,1.2-4,7.54,7.54,0,0,0-1.2-4.33,12.19,12.19,0,0,0-4-3.42q-1.8-1.07-4.66-2.41a50.78,50.78,0,0,1-5.15-2.75,15.72,15.72,0,0,1-5.55-5.17A12,12,0,0,1,940.2,203a11.82,11.82,0,0,1,1.51-6.09,15.05,15.05,0,0,1,3.92-4.41,17,17,0,0,1,6-2.75,31.33,31.33,0,0,1,7.86-.92q2.37,0,4.8.13t2.77.17l.53,5.54-2.79-.27q-2.44-.23-6-.23a21.5,21.5,0,0,0-4.41.48,13.46,13.46,0,0,0-4,1.47,7.9,7.9,0,0,0-2.6,2.44,6.35,6.35,0,0,0-1.07,3.67,6.54,6.54,0,0,0,1.13,3.61,12.66,12.66,0,0,0,4.22,3.57q1.57,1,4.14,2.19t5.06,2.69a17.16,17.16,0,0,1,5.75,5.17A11.83,11.83,0,0,1,968.91,226.15Z"/></svg>