<?xml version="1.0" encoding="UTF-8"?>
<svg width="34px" height="34px" viewBox="0 0 34 34" version="1.1" xmlns="http://www.w3.org/2000/svg" xmlns:xlink="http://www.w3.org/1999/xlink">
    <!-- Generator: Sketch 50.2 (55047) - http://www.bohemiancoding.com/sketch -->
    <title>play-button</title>
    <desc>Created with Sketch.</desc>
    <defs>
        <linearGradient x1="56.5685299%" y1="50%" x2="88.4077708%" y2="78.9657956%" id="linearGradient-1">
            <stop stop-color="#2B668C" offset="0%"></stop>
            <stop stop-color="#303E47" offset="100%"></stop>
        </linearGradient>
    </defs>
    <g id="PAGES-WEBBFRONT" stroke="none" stroke-width="1" fill="none" fill-rule="evenodd">
        <g id="01-Home-BLEU-2" transform="translate(-152.000000, -402.000000)" fill="#FFFFFF" fill-rule="nonzero">
            <g id="1LAME">
                <g id="HEADER---TITLE" transform="translate(138.000000, 222.000000)">
                    <g id="play-button" transform="translate(14.000000, 180.000000)">
                        <path d="M25.7632917,16.5352235 L13.846625,8.09758843 C13.6803333,7.98058656 13.4658333,7.96764885 13.2881667,8.06496291 C13.1110417,8.16227697 13,8.35353003 13,8.56222087 L13,25.437491 C13,25.6461818 13.1110417,25.8374349 13.2887083,25.934749 C13.3677917,25.9786247 13.455,26 13.5416667,26 C13.648375,26 13.7550833,25.966812 13.846625,25.9021234 L25.7632917,17.4644884 C25.9111667,17.3598617 26,17.1860464 26,16.9998559 C26,16.8136655 25.9111667,16.6398502 25.7632917,16.5352235 Z M14.0833333,24.3726615 L14.0833333,9.62705042 L24.496875,16.9998559 L14.0833333,24.3726615 Z" id="Shape"></path>
                        <path d="M17,0 C7.6262,0 0,7.6262 0,17 C0,26.3738 7.6262,34 17,34 C26.3738,34 34,26.3738 34,17 C34,7.6262 26.3738,0 17,0 Z M17,32.8666667 C8.25123333,32.8666667 1.13333333,25.7487667 1.13333333,17 C1.13333333,8.25123333 8.25123333,1.13333333 17,1.13333333 C25.7487667,1.13333333 32.8666667,8.25123333 32.8666667,17 C32.8666667,25.7487667 25.7487667,32.8666667 17,32.8666667 Z" id="Shape"></path>
                    </g>
                </g>
            </g>
        </g>
    </g>
</svg>