<?xml version="1.0" encoding="UTF-8"?>
<svg width="526px" height="445px" viewBox="0 0 526 445" version="1.1" xmlns="http://www.w3.org/2000/svg" xmlns:xlink="http://www.w3.org/1999/xlink">
    <!-- Generator: Sketch 50.2 (55047) - http://www.bohemiancoding.com/sketch -->
    <title>Artboard</title>
    <desc>Created with Sketch.</desc>
    <defs>
        <radialGradient cx="46.4528754%" cy="39.4930136%" fx="46.4528754%" fy="39.4930136%" r="47.3485115%" gradientTransform="translate(0.464529,0.394930),scale(0.787072,1.000000),rotate(0.000002),translate(-0.464529,-0.394930)" id="radialGradient-1">
            <stop stop-color="#466784" offset="0%"></stop>
            <stop stop-color="#314659" stop-opacity="0" offset="100%"></stop>
        </radialGradient>
        <ellipse id="path-2" cx="263" cy="207" rx="263" ry="207"></ellipse>
        <polygon id="path-4" points="0 0.420629705 149.070173 0.420629705 149.070173 393.482535 0 393.482535"></polygon>
        <polygon id="path-6" points="0.8172 0.09977254 101.4612 0.09977254 101.4612 193.084042 0.8172 193.084042"></polygon>
    </defs>
    <g id="Artboard" stroke="none" stroke-width="1" fill="none" fill-rule="evenodd">
        <g id="WebPreviewHome-Lame1">
            <g id="Rectangle-3" transform="translate(0.000000, 85.000000)">
                <g id="Mask" fill="url(#radialGradient-1)" fill-rule="nonzero">
                    <ellipse id="path-2" cx="263" cy="207" rx="263" ry="207"></ellipse>
                </g>
                <g id="Clipped">
                    <mask id="mask-3" fill="white">
                        <use xlink:href="#path-2"></use>
                    </mask>
                    <g id="path-2"></g>
                    <rect id="Rectangle-path" stroke="#979797" fill="#D8D8D8" fill-rule="nonzero" opacity="0" mask="url(#mask-3)" x="-4.5" y="-80.5" width="488" height="446"></rect>
                </g>
            </g>
            <g id="Group-10" transform="translate(229.500000, 283.500000) scale(-1, 1) translate(-229.500000, -283.500000) translate(141.000000, 65.000000)">
                <path d="M132.75,18.1925122 L146.748,4.17745532 C146.748,4.17745532 152.748,-2.83307677 159.252,1.92471365 C165.75,6.67649675 165.936,7.9620613 165.936,7.9620613 C165.936,7.9620613 171.3,13.9453432 165.75,20.4452539 C160.23,26.9091206 141.498,50.4818095 141.498,50.4818095 L132.75,18.1925122 Z" id="Fill-1" fill="#FDF9ED" fill-rule="nonzero"></path>
                <g id="Group-5" transform="translate(0.000000, 42.219303)">
                    <g id="Fill-3-Clipped">
                        <mask id="mask-5" fill="white">
                            <use xlink:href="#path-4"></use>
                        </mask>
                        <g id="path-4"></g>
                        <path d="M52.878,73.342712 C46.308,74.2798526 49.122,58.7028948 50.25,54.1914041 C59.082,18.8323708 53.628,8.01320349 46.872,2.75680626 C40.122,-2.49959098 36,2.75680626 36,2.75680626 L33.378,14.3929679 C30.75,26.0351369 16.878,52.3171231 10.338,64.3317453 C3.792,76.3463676 15,105.632009 15.372,119.148459 C15.75,132.664909 18.2392578,157.404721 19.1125488,163.023617 C19.9858398,168.642514 19.5,175.719308 19.5,175.719308 L0,393.484337 L96,393.484337 L103.5,191.236193 C103.5,191.236193 137.226,173.953159 149.052,124.903463 C150.51,110.437858 63.75,69.5881426 63.75,69.5881426 C63.75,69.5881426 58.128,72.5917981 52.878,73.342712 Z" id="Fill-3" fill="#FDF9ED" fill-rule="nonzero" mask="url(#mask-5)"></path>
                    </g>
                </g>
                <g id="Group-11" transform="translate(48.000000, 0.168125)">
                    <g id="Fill-9-Clipped">
                        <mask id="mask-7" fill="white">
                            <use xlink:href="#path-6"></use>
                        </mask>
                        <g id="path-6"></g>
                        <path d="M89.4612,193.084042 L12.8172,193.084042 C6.2112,193.084042 0.8172,187.683469 0.8172,181.06942 L0.8172,12.1137941 C0.8172,5.50575183 6.2112,0.09917181 12.8172,0.09917181 L89.4612,0.09917181 C96.0672,0.09917181 101.4612,5.50575183 101.4612,12.1137941 L101.4612,181.06942 C101.4612,187.683469 96.0672,193.084042 89.4612,193.084042" id="Fill-9" fill="#000000" fill-rule="nonzero" mask="url(#mask-7)"></path>
                    </g>
                </g>
                <g id="Fill-1-+-Fill-2-+-Fill-3-+-Fill-4-+-Fill-5-Mask" transform="translate(57.000000, 14.000000)" fill="#283744" fill-rule="nonzero">
                    <g id="Mask">
                        <polygon id="path-8" points="0.696 155.54191 83.586 155.54191 83.586 0.691451259 0.696 0.691451259"></polygon>
                    </g>
                </g>
                <g id="dashboard-img" transform="translate(72.000000, 65.000000)" fill-rule="nonzero">
                    <g id="Group-2" transform="translate(10.712060, 9.216083)" fill="#FFFFFF">
                        <path d="M2.65251298,12.6878339 C9.163023,7.39099471 13.4325919,3.92811851 15.4598311,2.30032137 C16.6880077,1.31414166 17.5191795,1.23851513 18.4360808,1.89491088 C19.3128959,2.52260953 20.1080175,3.56921911 21.9213736,6.33870146 C22.1421093,6.67582423 22.5891545,6.76671162 22.9198769,6.54170411 C23.2505994,6.3166966 23.3397613,5.86099997 23.1190256,5.5238772 C21.1884747,2.57540684 20.3495736,1.47117101 19.2636273,0.693758504 C17.7944273,-0.35801957 16.2708997,-0.219397087 14.5688235,1.14730632 C12.5383181,2.7777261 8.2672691,6.24180272 1.75428805,11.5406523 C1.44351682,11.7934904 1.39266146,12.2552616 1.64069943,12.572047 C1.88873739,12.8888325 2.34174175,12.940672 2.65251298,12.6878339 Z" id="Path-2"></path>
                        <path d="M3.48562077,12.2936382 C11.1566428,8.96003321 16.1845228,6.78407256 18.5676283,5.76645434 C20.0114018,5.14994359 20.8374878,5.2933794 21.560012,6.15253646 C22.2509481,6.97413186 22.7557015,8.171474 23.8092269,11.2646033 C23.9374702,11.6411228 24.3482114,11.8429159 24.7266432,11.7153207 C25.105075,11.5877254 25.3078929,11.1790596 25.1796497,10.8025401 C24.0580363,7.50950591 23.5254911,6.24623819 22.6697583,5.22868217 C21.512019,3.85200878 19.9978138,3.58909273 17.9969512,4.44348807 C15.6100061,5.46274584 10.5803831,7.6394608 2.90644961,10.9743311 C2.54028276,11.1334566 2.37309776,11.5577903 2.53303146,11.9221069 C2.69296516,12.2864236 3.11945392,12.4527638 3.48562077,12.2936382 Z" id="Path-2"></path>
                        <g id="porfolio" transform="translate(0.000000, 10.000000)">
                            <path d="M4.37608592,2.3187011 C2.76485557,2.3187011 1.45869531,3.6145525 1.45869531,5.2130664 L1.45869531,16.7905275 C1.45869531,18.3890413 2.76485557,19.6848928 4.37608592,19.6848928 L24.7978202,19.6848928 C26.4090505,19.6848928 27.7152108,18.3890413 27.7152108,16.7905275 L27.7152108,5.2130664 C27.7152108,3.6145525 26.4090505,2.3187011 24.7978202,2.3187011 L4.37608592,2.3187011 Z M4.37608592,0.8715184 L24.7978202,0.8715184 C27.2146657,0.8715184 29.1739061,2.8152956 29.1739061,5.2130664 L29.1739061,16.7905275 C29.1739061,19.1882982 27.2146657,21.1320755 24.7978202,21.1320755 L4.37608592,21.1320755 C1.9592404,21.1320755 0,19.1882982 0,16.7905275 L0,5.2130664 C0,2.8152956 1.9592404,0.8715184 4.37608592,0.8715184 Z M22.6097772,13.8961622 C24.2210076,13.8961622 25.5271678,12.6003108 25.5271678,11.0017969 C25.5271678,9.4032831 24.2210076,8.1074317 22.6097772,8.1074317 C20.9985469,8.1074317 19.6923866,9.4032831 19.6923866,11.0017969 C19.6923866,12.6003108 20.9985469,13.8961622 22.6097772,13.8961622 Z M22.6097772,12.4489796 C21.8041621,12.4489796 21.1510819,11.8010539 21.1510819,11.0017969 C21.1510819,10.20254 21.8041621,9.5546143 22.6097772,9.5546143 C23.4153924,9.5546143 24.0684725,10.20254 24.0684725,11.0017969 C24.0684725,11.8010539 23.4153924,12.4489796 22.6097772,12.4489796 Z" id="path-10"></path>
                        </g>
                    </g>
                    <path d="M52.3674351,37.1211023 C52.7853683,37.0033944 53.2196517,37.2465606 53.3374341,37.6642292 C53.4552166,38.0818978 53.2118964,38.5159062 52.7939632,38.6336141 C45.2720155,40.7521171 39.2251032,46.4651896 36.673194,53.8376343 C36.5312432,54.247729 36.0835113,54.4651755 35.6731567,54.3233145 C35.2628022,54.1814536 35.045218,53.7340051 35.1871688,53.3239104 C37.9071508,45.4659047 44.3493946,39.3793263 52.3674351,37.1211023 Z" id="Oval-5" fill="#899EA6" transform="translate(44.255434, 45.729072) rotate(180.000000) translate(-44.255434, -45.729072) "></path>
                    <path d="M17.7543269,0.553267927 C18.1722601,0.43556002 18.6065434,0.678726199 18.7243259,1.09639479 C18.8421084,1.51406338 18.5987882,1.94807178 18.180855,2.06577969 C10.6589073,4.18428271 4.61199492,9.89735522 2.06008575,17.2697999 C1.91813495,17.6798946 1.47040302,17.8973411 1.0600485,17.7554802 C0.64969398,17.6136192 0.432109781,17.1661708 0.574060587,16.756076 C3.29404258,8.89807031 9.73628637,2.81149196 17.7543269,0.553267927 Z" id="Oval-5-Copy" fill="#E3C57F"></path>
                </g>
                <path d="M127.125,74.6372076 L150.375,51.3588769 C150.375,51.3588769 156.333,45.6579387 162.375,51.3588769 C167.775,56.4590841 167.625,56.6152742 167.625,56.6152742 C167.625,56.6152742 175.875,64.5028737 167.625,72.3844659 C159.375,80.2660581 144.375,91.1573132 144.375,91.1573132 C144.375,91.1573132 137.247,98.58235 131.997,94.1609687 C125.871,88.9946812 124.875,88.1536576 124.875,88.1536576 C124.875,88.1536576 118.077,83.5340353 127.125,74.6372076" id="Fill-14" fill="#FDF9ED" fill-rule="nonzero"></path>
                <path d="M124.002,119.565887 C124.518,119.025229 156.252,87.775197 156.252,87.775197 C156.252,87.775197 163.248,82.5187998 168.498,87.775197 C173.748,93.0315942 174,94.533422 174,94.533422 C174,94.533422 180,100.540733 172.752,107.052658 C165.498,113.558576 139.998,137.840128 139.998,137.840128 C139.998,137.840128 134.748,140.591476 130.5,136.5846 C126.252,132.583731 124.002,130.330989 124.002,130.330989 C124.002,130.330989 118.992,124.816277 124.002,119.565887" id="Fill-15" fill="#FDF9ED" fill-rule="nonzero"></path>
                <path d="M126.75,157.360885 L155.25,131.078899 C155.25,131.078899 162.252,125.822502 166.752,131.078899 L171.252,136.335297 C171.252,136.335297 174.252,143.844435 168.75,148.349919 C163.248,152.855402 142.002,174.133298 142.002,174.133298 C142.002,174.133298 132.75,178.140175 129.498,175.887433 C126.252,173.634691 119.502,167.87368 126.75,157.360885" id="Fill-16" fill="#FDF9ED" fill-rule="nonzero"></path>
                <path d="M49.4646,96.4137104 C58.2906,61.0486698 55.0612793,51.716352 46.8125,44.9731052 C38.5637207,38.2298584 35.2146,44.9731052 35.2146,44.9731052 L32.5866,56.6152742 C29.9646,68.2574431 16.0926,94.5394293 9.5466,106.548044 C3.0066,118.568674 15.2343047,148.140777 15.6123047,161.657227" id="Fill-17" fill="#FDF9ED" fill-rule="nonzero"></path>
            </g>
            <path d="M212.063346,12.429073 L212.063346,15.9892954 L219.819508,15.9892954 L219.819508,12.429073 L212.063346,12.429073 Z M211.417383,12.429073 L208.798187,12.429073 L208.793066,12.4213025 C208.849795,13.7856051 208.983797,14.9618671 209.196765,15.9892954 L211.417383,15.9892954 L211.417383,12.429073 Z M220.465471,12.429073 L220.465471,15.9892954 L222.640498,15.9892954 C222.853375,14.9623029 222.987355,13.7866029 223.044125,12.4230383 L223.039076,12.429073 L220.465471,12.429073 Z M215.68965,16.7013398 L209.363108,16.7013398 C209.746836,18.1676776 210.316319,19.3076256 211.077611,20.2615622 L215.68965,20.2615622 L215.68965,16.7013398 Z M216.335612,16.7013398 L216.335612,20.2615622 L220.759651,20.2615622 C221.520944,19.3076256 222.090427,18.1676776 222.474154,16.7013398 L216.335612,16.7013398 Z M215.68965,8.1585732 C214.153572,8.22681345 213.074671,8.9746596 212.029748,9.69890343 C211.066325,10.3666585 210.073081,11.0551227 208.763069,11.1737819 C208.764518,11.3579373 208.76716,11.5389942 208.770997,11.7170285 L215.68965,11.7170285 L215.68965,8.1585732 Z M216.335612,8.17045472 L216.335612,11.7170285 L223.066266,11.7170285 C223.070103,11.5389942 223.072745,11.3579373 223.074194,11.1737819 C221.764182,11.0550892 220.770864,10.366692 219.807514,9.69890343 C218.805679,9.00450935 217.772707,8.28853419 216.335612,8.17045472 Z M211.713637,20.9736067 C212.802562,22.068098 214.200158,22.9242305 215.918631,23.8250709 C217.637105,22.9242305 219.034701,22.068098 220.123626,20.9736067 L211.713637,20.9736067 Z M204.75,0 L227.25,0 C229.321068,-3.80448985e-16 231,1.67893219 231,3.75 L231,26.25 C231,28.3210678 229.321068,30 227.25,30 L204.75,30 C202.678932,30 201,28.3210678 201,26.25 L201,3.75 C201,1.67893219 202.678932,3.80448985e-16 204.75,0 Z M204.75,1.125 C203.300253,1.125 202.125,2.30025253 202.125,3.75 L202.125,26.25 C202.125,27.6997475 203.300253,28.875 204.75,28.875 L227.25,28.875 C228.699747,28.875 229.875,27.6997475 229.875,26.25 L229.875,3.75 C229.875,2.30025253 228.699747,1.125 227.25,1.125 L204.75,1.125 Z M223.697742,10.2940233 C223.923784,10.2940233 224.107181,10.4585415 224.107143,10.661468 C224.107143,14.9516525 223.511773,17.8083309 222.176749,19.9240227 C220.850976,22.0249025 218.877593,23.3314031 216.123332,24.7584677 C216.059999,24.7912612 215.989334,24.8076923 215.918631,24.8076923 C215.847929,24.8076923 215.777264,24.7912956 215.713931,24.7584677 C212.959708,23.3314031 210.986287,22.024868 209.66059,19.9240227 C208.32549,17.8083309 207.73012,14.9516525 207.73012,10.661468 C207.73012,10.4585415 207.913517,10.2940233 208.139559,10.2940233 C209.417429,10.2940233 210.387271,9.62286059 211.414111,8.91239404 C212.593911,8.09610673 213.931008,7.17089844 215.91867,7.17089844 C217.906332,7.17089844 219.243428,8.09610673 220.423151,8.91239404 C221.450069,9.62286059 222.419872,10.2940233 223.697742,10.2940233 Z" id="Mask" fill="#CC69CB" fill-rule="nonzero"></path>
            <polygon id="Fill-4" fill="#FFFFFF" fill-rule="nonzero" points="39.7660453 333 48 322.822099 1 310"></polygon>
            <polygon id="Fill-2" fill="#E6CA85" fill-rule="nonzero" points="114 324.825793 114.054112 327 132 308"></polygon>
            <polygon id="Fill-3" fill="#90A3AA" fill-rule="nonzero" points="68 302 81.0001385 334 94 331.337802"></polygon>
            <polygon id="Fill-1" fill="#E6CA85" fill-rule="nonzero" points="146.604548 293.264069 146 294.283375 168 296 150.289306 288"></polygon>
            <polygon id="Fill-5" fill="#FFFFFF" fill-rule="nonzero" points="194.469175 298 194.572581 298.491755 199 319.52672 170 330"></polygon>
            <g id="Group-12" transform="translate(265.000000, 6.000000)" fill-rule="nonzero">
                <polygon id="Fill-1" fill="#E6CA85" points="74.028777 16.4125413 75.4146519 18.2526022 105 20.5841584 79.362688 8.38613861"></polygon>
                <polygon id="Fill-2" fill="#E6CA85" points="24.1726619 73.8593532 24.2498717 77 49.8561151 49.5544554"></polygon>
                <polygon id="Fill-3" fill="#90A3AA" points="40.0359712 0 57.787959 45.7425743 75.5395683 41.9370803"></polygon>
                <polygon id="Fill-4" fill="#FFFFFF" points="56.6982341 42.6930693 68.7410072 28.5237487 0 10.6732673"></polygon>
                <polygon id="Fill-5" fill="#FFFFFF" points="75.0916613 15.2475248 75.2398059 15.9387511 81.5827338 45.506154 40.0359712 60.2277228"></polygon>
            </g>
            <path d="M358.105913,238.38237 C357.637328,237.282142 356.957025,236.271311 356.086064,235.400579 C354.29872,233.613235 351.922627,232.629329 349.395595,232.629798 C345.839658,232.629798 342.617002,234.594798 340.985283,237.757454 C340.866689,237.98761 340.584033,238.078079 340.353877,237.959485 C340.12372,237.840423 340.033252,237.558235 340.152314,237.328079 C341.945283,233.851829 345.487158,231.692298 349.395595,231.692298 C352.173408,231.691829 354.784814,232.773704 356.749345,234.737298 C357.423098,235.411211 357.993043,236.161337 358.451095,236.968268 L358.37446,233.944021 C358.36791,233.677685 358.578259,233.456421 358.84425,233.449671 C358.981338,233.446297 359.107188,233.500552 359.19724,233.590605 C359.281835,233.675199 359.335064,233.791159 359.338509,233.919383 L359.464295,238.872688 C359.467058,239.005003 359.416622,239.13253 359.323208,239.225944 C359.229794,239.319358 359.102949,239.370477 358.970634,239.367032 C357.213021,239.326325 354.359034,239.265207 354.048711,239.274673 C353.858429,239.296448 353.66573,239.203981 353.569175,239.026286 C353.441572,238.792314 353.527772,238.499403 353.761676,238.371925 C353.906741,238.293127 353.921192,238.28508 358.105913,238.38237 Z M358.487138,238.39064 L358.487154,238.391254 C358.4865,238.391034 358.486818,238.390837 358.487138,238.39064 Z M341.043564,248.514594 C341.508034,249.541024 342.159274,250.48552 342.97968,251.305711 C344.767023,253.093055 347.143117,254.076961 349.670148,254.076492 C353.226086,254.076492 356.448742,252.111492 358.080461,248.948836 C358.199055,248.71868 358.481711,248.628211 358.711867,248.746805 C358.942023,248.865867 359.032492,249.148055 358.91343,249.378211 C357.120461,252.854461 353.578586,255.013992 349.670148,255.013992 C346.892336,255.014461 344.28093,253.932586 342.316398,251.968992 C341.480397,251.132791 340.804219,250.17925 340.303311,249.145448 L340.399452,252.939459 C340.405995,253.205509 340.195872,253.426535 339.930167,253.433277 C339.793226,253.436648 339.667512,253.382451 339.577556,253.292495 C339.493052,253.207992 339.43988,253.092156 339.43644,252.964071 L339.310789,248.016091 C339.308028,247.883918 339.358411,247.756528 339.451724,247.663215 C339.545038,247.569902 339.671746,247.518838 339.803919,247.522279 C341.559642,247.562942 344.410561,247.623994 344.72055,247.614538 C344.910627,247.592787 345.103119,247.685155 345.19957,247.862659 C345.327036,248.096379 345.240929,248.388975 345.007276,248.516316 C344.866846,248.592596 344.848949,248.602503 341.043564,248.514594 Z M340.287062,248.504205 C340.289879,248.501838 340.292671,248.499506 340.295438,248.497208 C340.292587,248.497141 340.289734,248.497075 340.28688,248.497008 L340.287062,248.504205 Z M337.75,228 L360.25,228 C362.321068,228 364,229.678932 364,231.75 L364,254.25 C364,256.321068 362.321068,258 360.25,258 L337.75,258 C335.678932,258 334,256.321068 334,254.25 L334,231.75 C334,229.678932 335.678932,228 337.75,228 Z M337.75,229.125 C336.300253,229.125 335.125,230.300253 335.125,231.75 L335.125,254.25 C335.125,255.699747 336.300253,256.875 337.75,256.875 L360.25,256.875 C361.699747,256.875 362.875,255.699747 362.875,254.25 L362.875,231.75 C362.875,230.300253 361.699747,229.125 360.25,229.125 L337.75,229.125 Z M352.228596,246.180275 C352.0009,246.40797 351.747549,246.593974 351.468542,246.744702 C351.186329,246.901844 350.881666,247.020502 350.567382,247.09747 C350.249892,247.180851 349.938815,247.216128 349.637359,247.216128 C349.194797,247.216128 348.784304,247.13916 348.405881,246.978812 C348.021044,246.818463 347.684311,246.610009 347.379648,246.34383 C347.078193,246.080858 346.818428,245.766575 346.597146,245.413807 C346.379072,245.06104 346.212309,244.67941 346.103272,244.281745 L344.875,244.281745 L345.121937,243.704489 L345.984614,243.704489 C345.962165,243.524899 345.952544,243.348515 345.952544,243.16251 L345.952544,243.053473 L345.154007,243.053473 L345.400944,242.476218 L346.016684,242.476218 C346.093651,242.052897 346.225137,241.648818 346.42397,241.267188 C346.616388,240.879144 346.872946,240.53279 347.184023,240.240956 C347.4951,239.942707 347.863902,239.702184 348.280809,239.5258 C348.704129,239.343002 349.175555,239.25 349.698292,239.25 C350.397413,239.25 350.997117,239.410349 351.500612,239.727839 C352.0009,240.04533 352.376117,240.462237 352.613433,240.968939 L351.827724,241.478848 C351.709066,241.225497 351.571166,241.020251 351.401196,240.847074 C351.231226,240.673897 351.054843,240.542411 350.859217,240.436581 C350.666799,240.337165 350.461552,240.25699 350.256306,240.218507 C350.041438,240.170402 349.839399,240.147953 349.643773,240.147953 C349.278178,240.147953 348.94786,240.212093 348.652818,240.340372 C348.357776,240.471858 348.104425,240.63862 347.886351,240.853488 C347.668276,241.065148 347.479065,241.312085 347.337958,241.594299 C347.193644,241.873306 347.087814,242.171555 347.020467,242.479425 L350.503243,242.479425 L350.256306,243.05668 L346.953121,243.05668 L346.953121,243.213822 C346.953121,243.393413 346.962742,243.556968 346.98519,243.71411 L350.115199,243.71411 L349.868262,244.291366 L347.119883,244.291366 C347.216093,244.583201 347.347579,244.84938 347.507927,245.096317 C347.671483,245.349668 347.860695,245.561328 348.085183,245.744126 C348.309671,245.926923 348.550195,246.064823 348.822787,246.170654 C349.092173,246.27007 349.377594,246.327795 349.67905,246.327795 C349.887503,246.327795 350.095957,246.298933 350.314031,246.250828 C350.528899,246.199516 350.740559,246.112928 350.942598,246.000684 C351.144638,245.885233 351.330643,245.744126 351.500612,245.567742 C351.670582,245.391359 351.818103,245.182905 351.92714,244.939175 L352.757747,245.394566 C352.629468,245.696021 352.456291,245.952579 352.228596,246.180275 Z" id="stable" fill="#4FD6A2" fill-rule="nonzero"></path>
            <g id="Mask" transform="translate(94.000000, 203.000000)" fill="#4CC6CE" fill-rule="nonzero">
                <path d="M3.75,0 L26.25,0 C28.321068,0 30,1.678932 30,3.75 L30,26.25 C30,28.321068 28.321068,30 26.25,30 L3.75,30 C1.6789322,30 0,28.321068 0,26.25 L0,3.75 C0,1.678932 1.6789322,0 3.75,0 Z M3.75,1.125 C2.3002525,1.125 1.125,2.300253 1.125,3.75 L1.125,26.25 C1.125,27.699747 2.3002525,28.875 3.75,28.875 L26.25,28.875 C27.699747,28.875 28.875,27.699747 28.875,26.25 L28.875,3.75 C28.875,2.300253 27.699747,1.125 26.25,1.125 L3.75,1.125 Z M21.717261,20.106293 C19.717084,20.106293 18.089219,18.478006 18.089219,16.476561 C18.089219,16.242862 18.278122,16.053959 18.511822,16.053959 L24.924813,16.053959 C25.158512,16.053959 25.347415,16.242862 25.347415,16.476561 C25.347415,18.478006 23.718706,20.106293 21.717261,20.106293 Z M18.966542,16.899163 C19.170236,18.234587 20.326476,19.261088 21.717261,19.261088 C23.109313,19.261088 24.265553,18.234587 24.470093,16.899163 L18.966542,16.899163 Z M18.511822,16.899163 C18.461954,16.899163 18.411665,16.890289 18.36222,16.872117 C18.143735,16.789287 18.034281,16.545445 18.116688,16.32696 L21.322128,7.869418 C21.38425,7.705448 21.541458,7.596839 21.716838,7.596417 C21.716838,7.596417 21.717261,7.596417 21.717683,7.596417 C21.892641,7.596417 22.049426,7.70418 22.112394,7.867305 L25.319946,16.208209 C25.403622,16.426271 25.29459,16.670958 25.077373,16.754633 C24.858887,16.837464 24.614623,16.7297 24.530948,16.51206 L21.721064,9.203996 L18.908223,16.626585 C18.842719,16.795203 18.682553,16.899163 18.511822,16.899163 Z M8.692655,20.106293 C6.69121,20.106293 5.0625001,18.478006 5.0625001,16.476561 C5.0625001,16.242862 5.251826,16.053959 5.4851025,16.053959 L11.898939,16.053959 C12.132216,16.053959 12.321542,16.242862 12.321542,16.476561 C12.321542,18.478006 10.693677,20.106293 8.692655,20.106293 Z M5.9398227,16.899163 C6.14394,18.234587 7.301025,19.261088 8.692655,19.261088 C10.083862,19.261088 11.240102,18.234587 11.444219,16.899163 L5.9398227,16.899163 Z M15.627983,6.566328 L15.627983,23.529795 L17.696622,23.529795 C17.930321,23.529795 18.119224,23.718698 18.119224,23.952398 C18.119224,24.186097 17.930321,24.375 17.696622,24.375 L12.713294,24.375 C12.480017,24.375 12.290692,24.186097 12.290692,23.952398 C12.290692,23.718698 12.480017,23.529795 12.713294,23.529795 L14.782778,23.529795 L14.782778,6.566005 L9.127156,7.971922 L12.293227,16.208631 C12.376902,16.426271 12.268294,16.670958 12.050231,16.754633 C11.832591,16.837886 11.587904,16.729277 11.504229,16.511637 L8.69519,9.203996 L5.8802357,16.626585 C5.8164228,16.795203 5.6554113,16.899163 5.4851025,16.899163 C5.4352354,16.899163 5.3845231,16.890289 5.3355012,16.871694 C5.1170158,16.789287 5.0075618,16.545445 5.0899692,16.32696 L8.168242,8.210296 L6.406376,8.648274 C6.372145,8.656726 6.337914,8.66053 6.304106,8.66053 C6.11478,8.66053 5.9423583,8.532058 5.8941816,8.339774 C5.8379755,8.11326 5.9761665,7.884209 6.202681,7.82758 L14.782778,5.694981 L14.782778,4.459439 C14.782778,4.226163 14.972104,4.036837 15.20538,4.036837 C15.43908,4.036837 15.627983,4.226163 15.627983,4.459439 L15.627983,5.695317 L24.206389,7.828003 C24.432904,7.884209 24.570672,8.11326 24.514466,8.339774 C24.466712,8.532058 24.29429,8.66053 24.104964,8.66053 C24.071156,8.66053 24.036925,8.656726 24.002695,8.648274 L15.627983,6.566328 Z" id="path-12"></path>
            </g>
            <path d="M369.75,115 L392.25,115 C394.321068,115 396,116.678932 396,118.75 L396,141.25 C396,143.321068 394.321068,145 392.25,145 L369.75,145 C367.678932,145 366,143.321068 366,141.25 L366,118.75 C366,116.678932 367.678932,115 369.75,115 Z M369.75,116.125 C368.300253,116.125 367.125,117.300253 367.125,118.75 L367.125,141.25 C367.125,142.699747 368.300253,143.875 369.75,143.875 L392.25,143.875 C393.699747,143.875 394.875,142.699747 394.875,141.25 L394.875,118.75 C394.875,117.300253 393.699747,116.125 392.25,116.125 L369.75,116.125 Z M389.905605,134.766537 C389.667693,134.698317 389.483226,134.491328 389.455916,134.230574 L389.030713,130.162663 L385.373669,130.871479 C385.033811,130.936573 384.706675,130.714681 384.641064,130.376625 C384.575625,130.037969 384.796488,129.709888 385.135917,129.644021 L389.462375,128.804664 C389.635052,128.771604 389.81281,128.811522 389.953762,128.916308 C390.094887,129.020493 390.185308,129.179059 390.203427,129.353954 L390.700012,134.100323 C390.735571,134.443415 390.486741,134.751123 390.143048,134.786509 C390.061138,134.795531 389.980703,134.788071 389.905605,134.766537 Z M380.177064,139.801547 L377.044928,136.525458 L373.798467,139.809464 C373.541931,140.068967 373.123598,140.071372 372.864095,139.814836 C372.604592,139.558299 372.602187,139.139967 372.858723,138.880463 L376.582976,135.11314 C376.844645,134.848446 377.273208,134.852027 377.530417,135.121057 L380.655993,138.390286 L387.363022,131.414919 C387.615937,131.151886 388.034197,131.143683 388.297231,131.396598 C388.560264,131.649513 388.568467,132.067772 388.315552,132.330806 L381.130897,139.802907 C380.870425,140.0738 380.436763,140.073182 380.177064,139.801547 Z M381.583217,129.102098 C381.285315,129.4 380.953846,129.643357 380.588811,129.840559 C380.21958,130.046154 379.820979,130.201399 379.40979,130.302098 C378.994406,130.411189 378.587413,130.457343 378.193007,130.457343 C377.613986,130.457343 377.076923,130.356643 376.581818,130.146853 C376.078322,129.937063 375.637762,129.664336 375.239161,129.316084 C374.844755,128.972028 374.504895,128.560839 374.215385,128.099301 C373.93007,127.637762 373.711888,127.138462 373.569231,126.618182 L371.962238,126.618182 L372.285315,125.862937 L373.413986,125.862937 C373.384615,125.627972 373.372028,125.397203 373.372028,125.153846 L373.372028,125.011189 L372.327273,125.011189 L372.65035,124.255944 L373.455944,124.255944 C373.556643,123.702098 373.728671,123.173427 373.988811,122.674126 C374.240559,122.166434 374.576224,121.713287 374.983217,121.331469 C375.39021,120.941259 375.872727,120.626573 376.418182,120.395804 C376.972028,120.156643 377.588811,120.034965 378.272727,120.034965 C379.187413,120.034965 379.972028,120.244755 380.630769,120.66014 C381.285315,121.075524 381.776224,121.620979 382.086713,122.283916 L381.058741,122.951049 C380.903497,122.61958 380.723077,122.351049 380.500699,122.124476 C380.278322,121.897902 380.047552,121.725874 379.791608,121.587413 C379.53986,121.457343 379.271329,121.352448 379.002797,121.302098 C378.721678,121.239161 378.457343,121.20979 378.201399,121.20979 C377.723077,121.20979 377.290909,121.293706 376.904895,121.461538 C376.518881,121.633566 376.187413,121.851748 375.902098,122.132867 C375.616783,122.40979 375.369231,122.732867 375.184615,123.102098 C374.995804,123.467133 374.857343,123.857343 374.769231,124.26014 L379.325874,124.26014 L379.002797,125.015385 L374.681119,125.015385 L374.681119,125.220979 C374.681119,125.455944 374.693706,125.66993 374.723077,125.875524 L378.818182,125.875524 L378.495105,126.630769 L374.899301,126.630769 C375.025175,127.012587 375.197203,127.360839 375.406993,127.683916 C375.620979,128.015385 375.868531,128.292308 376.162238,128.531469 C376.455944,128.770629 376.770629,128.951049 377.127273,129.08951 C377.47972,129.21958 377.853147,129.295105 378.247552,129.295105 C378.52028,129.295105 378.793007,129.257343 379.078322,129.194406 C379.359441,129.127273 379.636364,129.013986 379.900699,128.867133 C380.165035,128.716084 380.408392,128.531469 380.630769,128.300699 C380.853147,128.06993 381.046154,127.797203 381.188811,127.478322 L382.275524,128.074126 C382.107692,128.468531 381.881119,128.804196 381.583217,129.102098 Z" id="Mask" fill="#E71A6D" fill-rule="nonzero"></path>
            <path d="M68.75,74 L91.25,74 C93.3210678,74 95,75.6789322 95,77.75 L95,100.25 C95,102.321068 93.3210678,104 91.25,104 L68.75,104 C66.6789322,104 65,102.321068 65,100.25 L65,77.75 C65,75.6789322 66.6789322,74 68.75,74 Z M68.75,75.125 C67.3002525,75.125 66.125,76.3002525 66.125,77.75 L66.125,100.25 C66.125,101.699747 67.3002525,102.875 68.75,102.875 L91.25,102.875 C92.6997475,102.875 93.875,101.699747 93.875,100.25 L93.875,77.75 C93.875,76.3002525 92.6997475,75.125 91.25,75.125 L68.75,75.125 Z M83.6209794,91.8520979 C83.3230773,92.15 82.9916087,92.3933566 82.6265738,92.5905594 C82.257343,92.7961538 81.8587416,92.9513986 81.4475528,93.0520979 C81.0321682,93.1611888 80.6251752,93.2073427 80.2307696,93.2073427 C79.6517486,93.2073427 79.1146857,93.1066434 78.6195808,92.8968531 C78.1160843,92.6870629 77.6755248,92.4143357 77.2769234,92.0660839 C76.8825178,91.722028 76.5426577,91.3108392 76.2531472,90.8493007 C75.9678325,90.3877622 75.7496507,89.8884615 75.6069934,89.3681818 L74.0000004,89.3681818 L74.3230773,88.6129371 L75.4517486,88.6129371 C75.422378,88.377972 75.4097906,88.1472028 75.4097906,87.9038462 L75.4097906,87.7611888 L74.3650353,87.7611888 L74.6881122,87.0059441 L75.4937067,87.0059441 C75.594406,86.4520979 75.7664339,85.9234266 76.0265738,85.4241259 C76.278322,84.9164336 76.6139864,84.4632867 77.0209794,84.0814685 C77.4279724,83.6912587 77.9104899,83.3765734 78.4559444,83.1458042 C79.0097906,82.9066434 79.6265738,82.784965 80.3104899,82.784965 C81.2251752,82.784965 82.0097906,82.9947552 82.6685318,83.4101399 C83.3230773,83.8255245 83.8139864,84.370979 84.1244759,85.0339161 L83.0965039,85.701049 C82.9412591,85.3695804 82.7608395,85.101049 82.5384619,84.8744755 C82.3160843,84.6479021 82.085315,84.4758741 81.829371,84.3374126 C81.5776227,84.2073427 81.3090913,84.1024476 81.0405598,84.0520979 C80.7594409,83.9891608 80.4951053,83.9597902 80.2391612,83.9597902 C79.7608395,83.9597902 79.3286717,84.0437063 78.9426577,84.2115385 C78.5566437,84.3835664 78.2251752,84.6017483 77.9398605,84.8828671 C77.6545458,85.1597902 77.4069934,85.4828671 77.222378,85.8520979 C77.0335668,86.2171329 76.8951053,86.6073427 76.8069934,87.0101399 L81.3636367,87.0101399 L81.0405598,87.7653846 L76.7188815,87.7653846 L76.7188815,87.970979 C76.7188815,88.2059441 76.7314689,88.4199301 76.7608395,88.6255245 L80.8559444,88.6255245 L80.5328675,89.3807692 L76.9370633,89.3807692 C77.0629374,89.7625874 77.2349654,90.1108392 77.4447556,90.4339161 C77.6587416,90.7653846 77.9062941,91.0423077 78.2000004,91.2814685 C78.4937067,91.5206294 78.808392,91.701049 79.1650353,91.8395105 C79.5174829,91.9695804 79.8909094,92.0451049 80.285315,92.0451049 C80.5580423,92.0451049 80.8307696,92.0073427 81.1160843,91.9444056 C81.3972032,91.8772727 81.6741262,91.763986 81.9384619,91.6171329 C82.2027976,91.4660839 82.4461542,91.2814685 82.6685318,91.0506993 C82.8909094,90.8199301 83.0839164,90.5472028 83.2265738,90.2283217 L84.3132871,90.8241259 C84.1454549,91.2185315 83.9188815,91.5541958 83.6209794,91.8520979 Z M90.2422203,81.5014268 C88.5597363,81.5014268 87.2828637,80.6177531 85.9307917,79.6823306 C84.3775312,78.6075812 82.6170683,77.3894231 80.0000505,77.3894231 C77.3830328,77.3894231 75.6225698,78.6075812 74.0692083,79.6823306 C72.7172374,80.6177531 71.4403143,81.5014268 69.7578302,81.5014268 C69.4602167,81.5014268 69.21875,81.7180366 69.21875,81.985216 C69.21875,87.633807 70.0026323,91.394999 71.7604673,94.180585 C73.5059208,96.9466235 76.1041892,98.6668484 79.7304852,100.545766 C79.8138715,100.588989 79.9069105,100.610577 80,100.610577 C80.0930895,100.610577 80.1861285,100.588943 80.2695148,100.545766 C83.8958613,98.6668484 86.4940792,96.9466689 88.2396337,94.180585 C89.9973677,91.394999 90.78125,87.633807 90.78125,81.985216 C90.7813005,81.7180366 90.5398338,81.5014268 90.2422203,81.5014268 Z M80,99.3168269 C73.6853112,96.0066059 70.6613613,93.154884 70.5787628,82.6597445 C72.3035651,82.5035142 73.6113014,81.5970606 74.8797752,80.7178734 C76.3229181,79.7176199 77.8152863,78.6831731 80,78.6831731 C82.1846646,78.6831731 83.6769838,79.7175317 85.1202248,80.7178734 C86.3886004,81.5971047 87.6964349,82.50347 89.4212372,82.6597445 C89.3386387,93.154884 86.3146888,96.0066059 80,99.3168269 Z" id="Mask" fill="#60ADE5" fill-rule="nonzero"></path>
        </g>
    </g>
</svg>